<svg width="224" height="45" viewBox="0 0 224 45" fill="none" xmlns="http://www.w3.org/2000/svg">
<path d="M57.1051 17.212L56.281 18.9636C55.0025 18.1876 53.7239 17.8698 52.8297 17.8698C51.6694 17.8698 50.9118 18.3095 50.9118 19.1003C50.9118 21.6759 57.2751 20.2939 57.2603 24.536C57.2603 26.6386 55.409 27.9356 52.8149 27.9356C50.9636 27.9356 49.212 27.1781 48 26.0658L48.8573 24.3475C50.0693 25.4598 51.5844 26.0658 52.8482 26.0658C54.2302 26.0658 55.0542 25.5448 55.0542 24.6358C55.0542 22.0085 48.691 23.4755 48.691 19.2814C48.691 17.2601 50.4241 16 52.9849 16C54.511 16 56.0113 16.4878 57.1051 17.212Z" fill="#0054B4"/>
<path d="M66.2751 17.8698V21.0514H72.0323V22.8362H66.2751V26.0843H72.9081V27.8691H64.2871V16.085H72.7049V17.8698H66.2751Z" fill="#0054B4"/>
<path d="M89.7383 17.8513L88.578 19.2998C87.7207 18.3723 86.4901 17.8032 85.2966 17.8032C82.939 17.8032 81.0877 19.6213 81.0877 21.9456C81.0877 24.2699 82.939 26.1027 85.2966 26.1027C86.4754 26.1027 87.6874 25.5632 88.578 24.7059L89.7567 26.0177C88.5632 27.1965 86.8597 27.9541 85.1931 27.9541C81.7418 27.9541 79.0664 25.3452 79.0664 21.9604C79.0664 18.6088 81.775 16.0332 85.2596 16.0332C86.9299 16.0332 88.5964 16.7242 89.7383 17.8513Z" fill="#0054B4"/>
<path d="M107.748 21.9752C107.748 25.3415 105.021 27.9504 101.503 27.9504C97.9849 27.9504 95.2578 25.3415 95.2578 21.9752C95.2578 18.5903 97.9849 16.0332 101.503 16.0332C105.021 16.0332 107.748 18.6088 107.748 21.9752ZM97.2754 21.9752C97.2754 24.3142 99.2117 26.1656 101.518 26.1656C103.823 26.1656 105.708 24.3142 105.708 21.9752C105.708 19.6361 103.823 17.818 101.518 17.818C99.1969 17.818 97.2754 19.6361 97.2754 21.9752Z" fill="#0054B4"/>
<path d="M122.844 27.8691L116.566 19.4181V27.8691H114.578V16.085H116.529L122.841 24.5507V16.085H124.792V27.8691H122.844Z" fill="#0054B4"/>
<path d="M137.454 16.0848C140.991 16.0848 143.548 18.5606 143.548 21.975C143.548 25.3746 140.972 27.8652 137.403 27.8652H132.621V16.0811H137.454V16.0848ZM134.609 26.0841H137.506C139.794 26.0841 141.545 24.3843 141.545 21.9934C141.545 19.5841 139.746 17.8696 137.421 17.8696H134.609V26.0841Z" fill="#0054B4"/>
<path d="M161.033 24.6542C161.033 26.6903 159.418 27.8691 156.318 27.8691H150.225V16.085H155.982C158.927 16.085 160.442 17.3155 160.442 19.1483C160.442 20.3271 159.836 21.2361 158.875 21.7424C160.191 22.1599 161.033 23.1724 161.033 24.6542ZM152.937 18.1395V20.9183H155.646C156.976 20.9183 157.7 20.4453 157.7 19.5215C157.7 18.5977 156.976 18.1432 155.646 18.1432H152.937V18.1395ZM158.288 24.366C158.288 23.372 157.53 22.9027 156.115 22.9027H152.933V25.8145H156.115C157.534 25.8145 158.288 25.3785 158.288 24.366Z" fill="#29ABE2"/>
<path d="M175.323 27.8691L173.051 24.5877H172.918H170.545V27.8691H167.818V16.085H172.918C176.066 16.085 178.036 17.7182 178.036 20.3603C178.036 22.1267 177.145 23.4237 175.612 24.0815L178.254 27.8691H175.323ZM172.763 18.3058H170.542V22.4149H172.763C174.429 22.4149 175.272 21.6389 175.272 20.3603C175.272 19.0633 174.429 18.3058 172.763 18.3058Z" fill="#29ABE2"/>
<path d="M192.656 25.3413H187.183L186.137 27.8652H183.344L188.595 16.0811H191.289L196.558 27.8652H193.694L192.656 25.3413ZM191.798 23.272L189.929 18.7601L188.059 23.272H191.798Z" fill="#29ABE2"/>
<path d="M202.5 16.085H205.227V27.8691H202.5V16.085Z" fill="#29ABE2"/>
<path d="M223.543 16.085V27.8691H221.304L215.428 20.7151V27.8691H212.734V16.085H214.992L220.849 23.2389V16.085H223.543Z" fill="#29ABE2"/>
<path d="M20.1156 21.1124L18.2816 29.0627C16.7812 28.4245 14.9884 28.0311 14.5156 27.98V19.5062C16.2136 19.4025 18.8998 20.3054 20.1125 21.1108C20.1125 21.1108 20.114 21.1124 20.1156 21.1124Z" fill="#29ABE2"/>
<path d="M27.646 20.5908V29.0646C27.031 29.1312 25.8405 29.3325 24.5393 29.9257C24.4128 29.983 24.25 30.1007 24.1504 30.2308L26.3717 20.6016C26.7812 20.5675 27.2065 20.5644 27.646 20.5908Z" fill="#29ABE2"/>
<path d="M36.8769 18.6638C36.7583 15.1123 35.3132 11.9077 32.5796 9.13839C29.661 6.18162 25.7717 4.53054 21.6294 4.49182C17.7575 4.45775 13.9093 5.85172 11.0682 8.32059C6.22231 12.5335 5.81282 19.2137 5.80334 21.1621C5.80175 21.475 5.73851 21.7786 5.61836 22.062L2.85788 28.5053C2.57488 29.1651 2.64761 29.9132 3.05235 30.5095C3.45709 31.1058 4.13377 31.4605 4.8642 31.4605H6.44207L7.69583 37.6853C7.9899 39.1474 9.30847 40.2084 10.831 40.2084H20.6603C20.9085 40.2084 21.1093 40.0117 21.1093 39.7685V34.4777C21.1093 34.473 21.1077 34.4684 21.1077 34.4637C24.2603 31.5441 28.7314 32.08 28.7757 32.0847C29.0081 32.1141 29.2231 31.967 29.2721 31.7439L31.3338 22.522C31.3859 22.2882 31.2373 22.0574 31.0018 22.0016L29.3622 21.6144C29.1219 21.5571 28.88 21.7027 28.8215 21.9381C28.763 22.1735 28.9116 22.4105 29.152 22.4678L30.3646 22.7544L28.4816 31.1786C27.2516 31.1027 23.5551 31.1213 20.6603 33.6738C17.7654 31.1213 14.0689 31.1027 12.8389 31.1786L10.9559 22.7544L11.8018 22.5546C12.0421 22.4973 12.1907 22.2603 12.1322 22.0249C12.0737 21.7894 11.8318 21.6438 11.5915 21.7011L10.3187 22.0016C10.0816 22.0574 9.93456 22.2897 9.98674 22.522L12.0484 31.7439C12.099 31.967 12.3156 32.1156 12.5448 32.0847C12.5907 32.0785 17.0508 31.5348 20.2128 34.4637C20.2128 34.4684 20.2112 34.473 20.2112 34.4777V39.3302H10.831C9.73693 39.3302 8.78832 38.5666 8.57646 37.515L7.25156 30.9354C7.21045 30.7294 7.02547 30.5807 6.81203 30.5807H4.86579C4.431 30.5807 4.04207 30.3763 3.80175 30.0216C3.56144 29.6669 3.51875 29.2363 3.68792 28.8429L6.44839 22.3997C6.61598 22.0094 6.70136 21.5927 6.70452 21.1637C6.71401 19.3082 7.09978 12.947 11.6674 8.97576C16.8263 4.49182 25.8207 3.55167 31.9346 9.74863C37.6689 15.5599 36.1464 21.8452 34.5021 26.0674C33.4919 28.6617 33.0049 30.3391 33.1314 30.7898C33.1962 31.0237 33.4429 31.1616 33.6816 31.098C33.9029 31.0392 34.0405 30.827 34.0073 30.6102C34.0073 30.525 34.0389 29.7196 35.3401 26.3787C36.0484 24.5588 36.9796 21.777 36.8769 18.6638Z" fill="#0054B4"/>
<path d="M20.6837 40.2084H10.8544C9.33349 40.2084 8.01492 39.1474 7.71927 37.6853L6.46551 31.4605H4.88764C4.15721 31.4605 3.48053 31.1042 3.07579 30.5095C2.67104 29.9147 2.59832 29.1651 2.88132 28.5053L5.6418 22.062C5.76353 21.7786 5.82519 21.475 5.82678 21.1621C5.83626 19.2152 6.24575 12.5335 11.0916 8.32214C13.9343 5.85172 17.7825 4.45775 21.6544 4.49182C25.7967 4.53054 29.6861 6.18007 32.6031 9.13684C35.3367 11.9062 36.7817 15.1123 36.9003 18.6623C37.0046 21.7755 36.0734 24.5572 35.3635 26.3802C34.0623 29.7196 34.0291 30.5265 34.0307 30.6117C34.0639 30.8285 33.9264 31.0392 33.705 31.0996C33.4663 31.1631 33.2197 31.0253 33.1548 30.7914C33.0284 30.3391 33.5153 28.6617 34.5256 26.0689C36.1699 21.8467 37.694 15.5615 31.958 9.75018C25.8442 3.55167 16.8513 4.49182 11.6892 8.97885C7.12164 12.9501 6.73586 19.3113 6.72638 21.1668C6.7248 21.5958 6.63784 22.0109 6.47025 22.4028L3.70978 28.846C3.54061 29.2394 3.5833 29.6685 3.82361 30.0231C4.06393 30.3778 4.45286 30.5823 4.88764 30.5823H6.83389C7.04733 30.5823 7.23231 30.731 7.27341 30.937L8.59832 37.5165C8.81017 38.5682 9.75879 39.3318 10.8529 39.3318H20.2331V34.5164C20.2331 34.2732 20.4339 34.0765 20.6821 34.0765C20.9303 34.0765 21.1311 34.2732 21.1311 34.5164V39.7716C21.1311 40.0117 20.9303 40.2084 20.6837 40.2084Z" fill="#0054B4"/>
<path d="M18.3908 31.0377C18.326 31.0377 18.2565 31.033 18.1995 30.9958C16.3387 29.7335 13.5893 29.4454 13.575 29.4454C13.3331 29.4392 13.1387 29.2441 13.1387 29.0071V19.7233C13.1387 19.4987 13.3126 19.3113 13.5403 19.2865C16.1363 19.0108 18.6486 20.016 20.1347 21.0057C20.3403 21.142 20.3924 21.4146 20.2533 21.616C20.1142 21.8173 19.8359 21.8684 19.6304 21.7321C18.4177 20.9267 15.7331 20.0238 14.0335 20.1275V28.6013C14.6565 28.6695 17.0738 29.1666 18.5806 30.2028C18.7829 30.3422 18.8999 30.5684 18.794 30.7883C18.7197 30.9447 18.5584 31.0377 18.3908 31.0377Z" fill="#0054B4"/>
<path d="M20.684 34.7515C20.5702 34.7515 20.4564 34.7097 20.3694 34.6245C17.2105 31.5655 12.6145 32.1154 12.5686 32.1216C12.3378 32.151 12.1212 32.0023 12.0722 31.7808L10.0105 22.559C9.95833 22.3251 10.1054 22.0943 10.3425 22.0385L11.6153 21.7381C11.8556 21.6808 12.0975 21.8263 12.156 22.0618C12.2145 22.2972 12.0658 22.5342 11.8255 22.5915L10.9797 22.7913L12.8627 31.2155C14.1386 31.1365 18.0627 31.1582 20.9986 34.0003C21.1741 34.1707 21.1757 34.4495 21.0018 34.6214C20.9149 34.7082 20.7994 34.7515 20.684 34.7515Z" fill="#0054B4"/>
<path d="M24.1378 19.6309L23.899 20.6655C23.556 20.8142 23.2287 20.9923 22.9204 21.1999C22.8967 21.2153 22.873 21.2293 22.8477 21.2386L23.1212 20.0583C23.4469 19.8911 23.7852 19.7486 24.1378 19.6309Z" fill="#0054B4"/>
<path d="M28.226 19.722V29.0043C28.226 29.2428 28.0331 29.438 27.7896 29.4442C27.7754 29.4442 26.275 29.4953 24.6007 30.2573C24.539 30.2852 24.4758 30.2992 24.4126 30.2992C24.2434 30.2992 24.0805 30.2047 24.0046 30.0451C23.9003 29.8252 23.9983 29.5635 24.2228 29.4612C25.524 28.868 26.7145 28.6667 27.3295 28.6001V20.1263C26.89 20.0999 26.4647 20.103 26.0552 20.1371C25.7264 20.165 25.4086 20.2115 25.1019 20.2812L25.3185 19.3441C25.6236 19.293 25.9382 19.2589 26.2608 19.2434C26.762 19.2156 27.2837 19.2295 27.8244 19.2853C28.0537 19.3085 28.226 19.4974 28.226 19.722Z" fill="#0054B4"/>
<path d="M20.6832 34.7514C20.5678 34.7514 20.4524 34.708 20.3638 34.6213C20.1899 34.4493 20.1915 34.1705 20.367 34.0002C23.303 31.158 27.2271 31.1363 28.503 31.2153L30.386 22.7911L29.1733 22.5046C28.933 22.4473 28.7844 22.2103 28.8429 21.9749C28.9014 21.7394 29.1433 21.5938 29.3836 21.6512L31.0231 22.0384C31.2603 22.0941 31.4073 22.3265 31.3551 22.5588L29.2935 31.7807C29.2429 32.0037 29.0263 32.1524 28.797 32.1214C28.7512 32.1152 24.1551 31.5654 20.9962 34.6244C20.9109 34.7095 20.797 34.7514 20.6832 34.7514Z" fill="#0054B4"/>
<path d="M19.8629 29.2302L19.934 28.9235C20.1459 29.0737 20.4004 29.21 20.6755 29.2705C20.7751 29.2921 20.8779 29.3045 20.9822 29.3045C20.9838 29.3045 20.987 29.3045 20.9886 29.3045L20.7024 30.5436C20.4652 30.0805 20.1854 29.6422 19.8629 29.2302ZM21.5767 30.7357L21.8818 29.4098C22.0399 29.5167 22.2265 29.6081 22.4384 29.6561C22.4621 29.6608 22.4874 29.667 22.5127 29.6701C22.6312 29.6902 22.7735 29.6979 22.9348 29.6747L22.8779 29.921C22.4194 30.1533 21.9846 30.4259 21.5767 30.7357ZM27.2241 13.0725C26.9838 13.0199 26.7435 13.1686 26.6882 13.4055L25.319 19.3438L25.1024 20.2809L23.1751 28.637C22.9933 28.7748 22.8273 28.8306 22.6676 28.8042C22.4399 28.7671 22.2328 28.5735 22.1095 28.4248L23.8992 20.665L24.138 19.6304L25.6399 13.1236C25.6937 12.8867 25.5419 12.6512 25.3016 12.5986C25.0597 12.5444 24.8194 12.6931 24.7656 12.93L23.1214 20.0579L22.8478 21.2381L21.2162 28.3117C21.1182 28.4077 21.0376 28.4248 20.9743 28.4248C20.7135 28.4279 20.372 28.1661 20.1554 27.957L23.6668 12.7349C23.7206 12.4995 23.5688 12.264 23.3285 12.2098C23.0866 12.1572 22.8463 12.3058 22.7925 12.5413L18.9411 29.2364C18.9395 29.2457 18.9395 29.2534 18.938 29.2627C18.9348 29.2766 18.9332 29.2906 18.9332 29.3061C18.9316 29.32 18.9316 29.334 18.9316 29.3494C18.9332 29.3634 18.9332 29.3773 18.9348 29.3913C18.938 29.4052 18.9395 29.4191 18.9427 29.4331C18.9474 29.447 18.9506 29.461 18.9554 29.4749C18.9601 29.4873 18.9648 29.4997 18.9712 29.5121C18.9775 29.526 18.9838 29.5384 18.9917 29.5523C18.998 29.5647 19.0075 29.5756 19.0154 29.588C19.0202 29.5957 19.0249 29.6035 19.0297 29.6097C19.6478 30.3577 20.1063 31.2096 20.3941 32.142C20.3988 32.1606 20.4067 32.1808 20.4146 32.1978C20.4162 32.1993 20.4178 32.2024 20.4178 32.204C20.4289 32.2257 20.4415 32.2458 20.4558 32.2659C20.4589 32.2706 20.4637 32.2752 20.4668 32.2814C20.4826 32.3016 20.5016 32.3217 20.5206 32.3387V32.3403C20.5285 32.3449 20.5348 32.3511 20.5411 32.3558C20.549 32.362 20.5569 32.3697 20.5664 32.3744C20.5807 32.3837 20.5949 32.3929 20.6091 32.4007C20.6123 32.4022 20.6139 32.4022 20.6154 32.4038C20.6502 32.4224 20.6866 32.4348 20.7229 32.4425C20.7245 32.4425 20.7245 32.4425 20.7245 32.4425C20.7609 32.4518 20.8004 32.4549 20.8384 32.4533H20.8463C20.8637 32.4518 20.8795 32.4503 20.8953 32.4472C20.9095 32.4456 20.9222 32.4425 20.9348 32.4394C20.9411 32.4379 20.9459 32.4363 20.9522 32.4348C20.9775 32.427 21.0028 32.4162 21.0265 32.4053C21.0328 32.4022 21.0376 32.3991 21.0439 32.396C21.0644 32.3837 21.0866 32.3713 21.1056 32.3542C21.1071 32.3542 21.1087 32.3527 21.1087 32.3527C21.1245 32.3387 21.1403 32.3248 21.1546 32.3093C21.8154 31.5968 22.5933 31.0253 23.466 30.6133C23.4724 30.6102 23.4787 30.604 23.485 30.6009C23.4992 30.5932 23.5135 30.5854 23.5261 30.5761C23.5372 30.5684 23.5482 30.5606 23.5593 30.5514C23.5704 30.5421 23.5814 30.5328 23.5909 30.5219C23.602 30.5111 23.6115 30.5018 23.621 30.4894C23.6289 30.4786 23.6384 30.4677 23.6463 30.4553C23.6542 30.4429 23.6605 30.4305 23.6668 30.4182C23.6731 30.4058 23.6795 30.3934 23.6858 30.381C23.6905 30.3655 23.6953 30.3516 23.7 30.3361C23.7032 30.3283 23.7063 30.3221 23.7079 30.3144L26.0558 20.1369L26.2613 19.2432L27.5641 13.5976C27.6178 13.3622 27.466 13.1267 27.2241 13.0725Z" fill="#0054B4"/>
</svg>
