<svg width="428" height="352" viewBox="0 0 428 352" fill="none" xmlns="http://www.w3.org/2000/svg">
<g filter="url(#filter0_d_53380_53763)">
<g clip-path="url(#clip0_53380_53763)">
<rect x="15" y="3.78516" width="298.917" height="321" rx="9.04745" fill="white"/>
<rect x="31.3789" y="94.6616" width="261.99" height="122.808" rx="4.09359" fill="#59A7FF"/>
<path d="M107.399 136.834L102.775 149.565H100.885L106.21 135.596H107.428L107.399 136.834ZM111.275 149.565L106.641 136.834L106.613 135.596H107.831L113.175 149.565H111.275ZM111.036 144.394V145.91H103.187V144.394H111.036ZM121.321 147.551V134.828H123.105V149.565H121.474L121.321 147.551ZM114.336 144.49V144.289C114.336 143.495 114.432 142.776 114.624 142.13C114.822 141.477 115.1 140.918 115.459 140.451C115.823 139.984 116.255 139.626 116.754 139.376C117.259 139.12 117.822 138.992 118.442 138.992C119.095 138.992 119.664 139.108 120.15 139.338C120.643 139.562 121.059 139.891 121.398 140.326C121.743 140.755 122.015 141.273 122.213 141.88C122.411 142.488 122.549 143.176 122.626 143.943V144.826C122.555 145.587 122.418 146.271 122.213 146.879C122.015 147.487 121.743 148.005 121.398 148.433C121.059 148.862 120.643 149.191 120.15 149.422C119.658 149.645 119.082 149.757 118.423 149.757C117.816 149.757 117.259 149.626 116.754 149.364C116.255 149.102 115.823 148.734 115.459 148.261C115.1 147.787 114.822 147.231 114.624 146.591C114.432 145.945 114.336 145.245 114.336 144.49ZM116.121 144.289V144.49C116.121 145.008 116.172 145.494 116.274 145.948C116.383 146.402 116.549 146.802 116.773 147.148C116.997 147.493 117.282 147.765 117.627 147.963C117.972 148.155 118.385 148.251 118.865 148.251C119.453 148.251 119.936 148.126 120.313 147.877C120.697 147.627 121.004 147.298 121.234 146.889C121.465 146.479 121.644 146.035 121.772 145.555V143.243C121.695 142.891 121.583 142.552 121.436 142.226C121.295 141.893 121.11 141.599 120.879 141.343C120.656 141.081 120.377 140.873 120.045 140.719C119.718 140.566 119.332 140.489 118.884 140.489C118.398 140.489 117.979 140.592 117.627 140.796C117.282 140.994 116.997 141.27 116.773 141.621C116.549 141.967 116.383 142.37 116.274 142.83C116.172 143.284 116.121 143.77 116.121 144.289ZM132.412 147.551V134.828H134.196V149.565H132.565L132.412 147.551ZM125.427 144.49V144.289C125.427 143.495 125.523 142.776 125.715 142.13C125.913 141.477 126.191 140.918 126.55 140.451C126.914 139.984 127.346 139.626 127.845 139.376C128.35 139.12 128.913 138.992 129.534 138.992C130.186 138.992 130.755 139.108 131.241 139.338C131.734 139.562 132.15 139.891 132.489 140.326C132.834 140.755 133.106 141.273 133.304 141.88C133.502 142.488 133.64 143.176 133.717 143.943V144.826C133.646 145.587 133.509 146.271 133.304 146.879C133.106 147.487 132.834 148.005 132.489 148.433C132.15 148.862 131.734 149.191 131.241 149.422C130.749 149.645 130.173 149.757 129.514 149.757C128.907 149.757 128.35 149.626 127.845 149.364C127.346 149.102 126.914 148.734 126.55 148.261C126.191 147.787 125.913 147.231 125.715 146.591C125.523 145.945 125.427 145.245 125.427 144.49ZM127.212 144.289V144.49C127.212 145.008 127.263 145.494 127.365 145.948C127.474 146.402 127.64 146.802 127.864 147.148C128.088 147.493 128.373 147.765 128.718 147.963C129.063 148.155 129.476 148.251 129.956 148.251C130.544 148.251 131.027 148.126 131.404 147.877C131.788 147.627 132.095 147.298 132.325 146.889C132.556 146.479 132.735 146.035 132.863 145.555V143.243C132.786 142.891 132.674 142.552 132.527 142.226C132.386 141.893 132.201 141.599 131.97 141.343C131.747 141.081 131.468 140.873 131.136 140.719C130.81 140.566 130.423 140.489 129.975 140.489C129.489 140.489 129.07 140.592 128.718 140.796C128.373 140.994 128.088 141.27 127.864 141.621C127.64 141.967 127.474 142.37 127.365 142.83C127.263 143.284 127.212 143.77 127.212 144.289ZM144.462 147.723L147.13 139.184H148.3L148.07 140.883L145.355 149.565H144.213L144.462 147.723ZM142.668 139.184L144.942 147.819L145.105 149.565H143.906L140.893 139.184H142.668ZM150.852 147.752L153.021 139.184H154.786L151.773 149.565H150.584L150.852 147.752ZM148.559 139.184L151.169 147.579L151.466 149.565H150.334L147.542 140.863L147.312 139.184H148.559ZM158.384 134.828V149.565H156.609V134.828H158.384ZM157.962 143.982L157.223 143.953C157.229 143.243 157.335 142.587 157.539 141.986C157.744 141.378 158.032 140.851 158.403 140.403C158.774 139.955 159.215 139.61 159.727 139.367C160.245 139.117 160.818 138.992 161.444 138.992C161.956 138.992 162.417 139.063 162.826 139.204C163.235 139.338 163.584 139.555 163.872 139.856C164.166 140.157 164.39 140.547 164.543 141.026C164.697 141.5 164.774 142.079 164.774 142.763V149.565H162.989V142.744C162.989 142.2 162.909 141.765 162.749 141.439C162.589 141.106 162.356 140.867 162.049 140.719C161.742 140.566 161.364 140.489 160.917 140.489C160.475 140.489 160.072 140.582 159.708 140.767C159.35 140.953 159.039 141.209 158.777 141.535C158.521 141.861 158.32 142.235 158.173 142.657C158.032 143.073 157.962 143.515 157.962 143.982ZM173.552 147.79V142.446C173.552 142.037 173.469 141.682 173.303 141.381C173.143 141.074 172.9 140.838 172.574 140.671C172.248 140.505 171.845 140.422 171.365 140.422C170.917 140.422 170.524 140.499 170.185 140.652C169.852 140.806 169.59 141.007 169.398 141.257C169.213 141.506 169.12 141.775 169.12 142.063H167.345C167.345 141.692 167.441 141.324 167.633 140.959C167.825 140.595 168.1 140.265 168.458 139.971C168.822 139.67 169.257 139.434 169.763 139.261C170.274 139.082 170.844 138.992 171.47 138.992C172.225 138.992 172.89 139.12 173.466 139.376C174.048 139.632 174.502 140.019 174.828 140.537C175.161 141.049 175.327 141.692 175.327 142.466V147.301C175.327 147.647 175.356 148.014 175.414 148.405C175.478 148.795 175.57 149.13 175.692 149.412V149.565H173.84C173.751 149.361 173.68 149.089 173.629 148.75C173.578 148.405 173.552 148.085 173.552 147.79ZM173.859 143.272L173.879 144.519H172.084C171.579 144.519 171.128 144.56 170.732 144.644C170.335 144.72 170.003 144.839 169.734 144.999C169.465 145.158 169.261 145.36 169.12 145.603C168.979 145.84 168.909 146.118 168.909 146.438C168.909 146.764 168.982 147.061 169.129 147.33C169.277 147.599 169.497 147.813 169.791 147.973C170.092 148.126 170.46 148.203 170.895 148.203C171.438 148.203 171.918 148.088 172.334 147.858C172.75 147.627 173.079 147.346 173.322 147.013C173.572 146.681 173.706 146.358 173.725 146.044L174.483 146.898C174.438 147.167 174.317 147.464 174.118 147.79C173.92 148.117 173.655 148.43 173.322 148.731C172.996 149.025 172.606 149.271 172.152 149.469C171.704 149.661 171.199 149.757 170.636 149.757C169.932 149.757 169.315 149.62 168.784 149.345C168.26 149.07 167.85 148.702 167.556 148.241C167.268 147.774 167.124 147.253 167.124 146.678C167.124 146.121 167.233 145.632 167.45 145.21C167.668 144.781 167.981 144.426 168.391 144.145C168.8 143.857 169.293 143.639 169.868 143.492C170.444 143.345 171.087 143.272 171.797 143.272H173.859ZM182.466 139.184V140.547H176.853V139.184H182.466ZM178.753 136.661H180.528V146.994C180.528 147.346 180.582 147.611 180.691 147.79C180.799 147.97 180.94 148.088 181.113 148.145C181.285 148.203 181.471 148.232 181.669 148.232C181.816 148.232 181.97 148.219 182.13 148.193C182.296 148.161 182.421 148.136 182.504 148.117L182.514 149.565C182.373 149.61 182.187 149.652 181.957 149.69C181.733 149.735 181.461 149.757 181.142 149.757C180.707 149.757 180.307 149.671 179.942 149.498C179.578 149.326 179.287 149.038 179.069 148.635C178.858 148.225 178.753 147.675 178.753 146.985V136.661ZM192.338 148.491L195.226 139.184H197.126L192.962 151.168C192.866 151.424 192.738 151.699 192.578 151.993C192.425 152.293 192.226 152.578 191.983 152.847C191.74 153.115 191.446 153.333 191.1 153.499C190.761 153.672 190.355 153.758 189.882 153.758C189.741 153.758 189.562 153.739 189.345 153.701C189.127 153.662 188.974 153.63 188.884 153.605L188.875 152.166C188.926 152.172 189.006 152.178 189.114 152.185C189.23 152.197 189.31 152.204 189.354 152.204C189.757 152.204 190.099 152.15 190.381 152.041C190.662 151.938 190.899 151.763 191.091 151.513C191.289 151.27 191.459 150.934 191.599 150.506L192.338 148.491ZM190.218 139.184L192.914 147.244L193.374 149.114L192.098 149.767L188.28 139.184H190.218ZM198.104 144.49V144.269C198.104 143.521 198.213 142.827 198.431 142.187C198.648 141.541 198.961 140.982 199.371 140.508C199.78 140.029 200.276 139.658 200.858 139.395C201.44 139.127 202.092 138.992 202.815 138.992C203.544 138.992 204.2 139.127 204.782 139.395C205.371 139.658 205.869 140.029 206.279 140.508C206.695 140.982 207.011 141.541 207.229 142.187C207.446 142.827 207.555 143.521 207.555 144.269V144.49C207.555 145.238 207.446 145.932 207.229 146.572C207.011 147.212 206.695 147.771 206.279 148.251C205.869 148.724 205.374 149.095 204.792 149.364C204.216 149.626 203.564 149.757 202.834 149.757C202.105 149.757 201.45 149.626 200.868 149.364C200.285 149.095 199.787 148.724 199.371 148.251C198.961 147.771 198.648 147.212 198.431 146.572C198.213 145.932 198.104 145.238 198.104 144.49ZM199.879 144.269V144.49C199.879 145.008 199.94 145.497 200.062 145.958C200.183 146.412 200.365 146.815 200.609 147.167C200.858 147.519 201.168 147.797 201.539 148.002C201.91 148.2 202.342 148.299 202.834 148.299C203.321 148.299 203.746 148.2 204.11 148.002C204.481 147.797 204.788 147.519 205.032 147.167C205.275 146.815 205.457 146.412 205.578 145.958C205.706 145.497 205.77 145.008 205.77 144.49V144.269C205.77 143.758 205.706 143.275 205.578 142.821C205.457 142.36 205.271 141.954 205.022 141.602C204.779 141.244 204.472 140.962 204.101 140.758C203.736 140.553 203.308 140.451 202.815 140.451C202.329 140.451 201.901 140.553 201.53 140.758C201.165 140.962 200.858 141.244 200.609 141.602C200.365 141.954 200.183 142.36 200.062 142.821C199.94 143.275 199.879 143.758 199.879 144.269ZM216.132 147.167V139.184H217.917V149.565H216.219L216.132 147.167ZM216.468 144.979L217.207 144.96C217.207 145.651 217.133 146.291 216.986 146.879C216.845 147.461 216.615 147.966 216.295 148.395C215.975 148.823 215.557 149.159 215.038 149.402C214.52 149.639 213.89 149.757 213.148 149.757C212.643 149.757 212.179 149.684 211.757 149.537C211.341 149.39 210.983 149.162 210.683 148.855C210.382 148.548 210.148 148.149 209.982 147.656C209.822 147.164 209.742 146.572 209.742 145.881V139.184H211.517V145.9C211.517 146.367 211.568 146.754 211.671 147.061C211.78 147.362 211.923 147.602 212.103 147.781C212.288 147.954 212.493 148.075 212.717 148.145C212.947 148.216 213.184 148.251 213.427 148.251C214.181 148.251 214.779 148.107 215.221 147.819C215.662 147.525 215.979 147.132 216.171 146.639C216.369 146.14 216.468 145.587 216.468 144.979ZM110.748 172.812C110.748 172.556 110.69 172.319 110.575 172.102C110.466 171.878 110.239 171.677 109.894 171.497C109.555 171.312 109.043 171.152 108.359 171.018C107.783 170.896 107.262 170.752 106.795 170.586C106.334 170.42 105.941 170.218 105.615 169.982C105.295 169.745 105.049 169.467 104.876 169.147C104.703 168.827 104.617 168.453 104.617 168.024C104.617 167.615 104.707 167.228 104.886 166.863C105.071 166.499 105.33 166.176 105.663 165.894C106.002 165.613 106.408 165.392 106.881 165.232C107.355 165.072 107.882 164.992 108.464 164.992C109.296 164.992 110.006 165.14 110.594 165.434C111.183 165.728 111.634 166.121 111.947 166.614C112.26 167.1 112.417 167.64 112.417 168.235H110.642C110.642 167.948 110.556 167.669 110.383 167.401C110.217 167.126 109.971 166.899 109.644 166.719C109.325 166.54 108.931 166.451 108.464 166.451C107.972 166.451 107.572 166.528 107.265 166.681C106.964 166.828 106.744 167.017 106.603 167.247C106.469 167.477 106.402 167.72 106.402 167.976C106.402 168.168 106.434 168.341 106.497 168.494C106.568 168.642 106.689 168.779 106.862 168.907C107.035 169.028 107.278 169.144 107.591 169.252C107.905 169.361 108.304 169.47 108.791 169.579C109.641 169.77 110.342 170.001 110.892 170.269C111.442 170.538 111.851 170.867 112.12 171.258C112.388 171.648 112.523 172.121 112.523 172.678C112.523 173.132 112.427 173.547 112.235 173.925C112.049 174.302 111.778 174.628 111.419 174.903C111.068 175.172 110.645 175.383 110.153 175.537C109.667 175.684 109.12 175.757 108.512 175.757C107.598 175.757 106.824 175.594 106.19 175.268C105.557 174.942 105.078 174.52 104.751 174.002C104.425 173.483 104.262 172.937 104.262 172.361H106.047C106.072 172.847 106.213 173.234 106.469 173.522C106.725 173.803 107.038 174.005 107.409 174.126C107.78 174.241 108.148 174.299 108.512 174.299C108.998 174.299 109.405 174.235 109.731 174.107C110.063 173.979 110.316 173.803 110.489 173.579C110.661 173.356 110.748 173.1 110.748 172.812ZM119.2 165.184V166.547H113.588V165.184H119.2ZM115.487 162.661H117.262V172.994C117.262 173.346 117.317 173.611 117.425 173.79C117.534 173.97 117.675 174.088 117.848 174.145C118.02 174.203 118.206 174.232 118.404 174.232C118.551 174.232 118.705 174.219 118.865 174.193C119.031 174.161 119.156 174.136 119.239 174.117L119.248 175.565C119.108 175.61 118.922 175.652 118.692 175.69C118.468 175.735 118.196 175.757 117.876 175.757C117.441 175.757 117.042 175.671 116.677 175.498C116.312 175.326 116.021 175.038 115.804 174.635C115.593 174.225 115.487 173.675 115.487 172.985V162.661ZM127.634 173.167V165.184H129.418V175.565H127.72L127.634 173.167ZM127.97 170.979L128.708 170.96C128.708 171.651 128.635 172.291 128.488 172.879C128.347 173.461 128.117 173.966 127.797 174.395C127.477 174.823 127.058 175.159 126.54 175.402C126.022 175.639 125.392 175.757 124.65 175.757C124.145 175.757 123.681 175.684 123.259 175.537C122.843 175.39 122.485 175.162 122.184 174.855C121.884 174.548 121.65 174.149 121.484 173.656C121.324 173.164 121.244 172.572 121.244 171.881V165.184H123.019V171.9C123.019 172.367 123.07 172.754 123.172 173.061C123.281 173.362 123.425 173.602 123.604 173.781C123.79 173.954 123.994 174.075 124.218 174.145C124.449 174.216 124.685 174.251 124.928 174.251C125.683 174.251 126.281 174.107 126.722 173.819C127.164 173.525 127.48 173.132 127.672 172.639C127.87 172.14 127.97 171.587 127.97 170.979ZM138.667 173.551V160.828H140.452V175.565H138.821L138.667 173.551ZM131.683 170.49V170.289C131.683 169.495 131.779 168.776 131.97 168.13C132.169 167.477 132.447 166.918 132.805 166.451C133.17 165.984 133.602 165.626 134.1 165.376C134.606 165.12 135.169 164.992 135.789 164.992C136.441 164.992 137.011 165.108 137.497 165.338C137.989 165.562 138.405 165.891 138.744 166.326C139.09 166.755 139.361 167.273 139.56 167.88C139.758 168.488 139.895 169.176 139.972 169.943V170.826C139.902 171.587 139.764 172.271 139.56 172.879C139.361 173.487 139.09 174.005 138.744 174.433C138.405 174.862 137.989 175.191 137.497 175.422C137.004 175.645 136.429 175.757 135.77 175.757C135.162 175.757 134.606 175.626 134.1 175.364C133.602 175.102 133.17 174.734 132.805 174.261C132.447 173.787 132.169 173.231 131.97 172.591C131.779 171.945 131.683 171.245 131.683 170.49ZM133.467 170.289V170.49C133.467 171.008 133.518 171.494 133.621 171.948C133.729 172.402 133.896 172.802 134.12 173.148C134.343 173.493 134.628 173.765 134.974 173.963C135.319 174.155 135.731 174.251 136.211 174.251C136.8 174.251 137.283 174.126 137.66 173.877C138.044 173.627 138.351 173.298 138.581 172.889C138.811 172.479 138.99 172.035 139.118 171.555V169.243C139.042 168.891 138.93 168.552 138.782 168.226C138.642 167.893 138.456 167.599 138.226 167.343C138.002 167.081 137.724 166.873 137.391 166.719C137.065 166.566 136.678 166.489 136.23 166.489C135.744 166.489 135.325 166.592 134.974 166.796C134.628 166.994 134.343 167.27 134.12 167.621C133.896 167.967 133.729 168.37 133.621 168.83C133.518 169.284 133.467 169.77 133.467 170.289ZM145.144 165.184V175.565H143.359V165.184H145.144ZM143.225 162.431C143.225 162.143 143.311 161.9 143.484 161.702C143.663 161.503 143.925 161.404 144.27 161.404C144.609 161.404 144.869 161.503 145.048 161.702C145.233 161.9 145.326 162.143 145.326 162.431C145.326 162.706 145.233 162.942 145.048 163.141C144.869 163.333 144.609 163.429 144.27 163.429C143.925 163.429 143.663 163.333 143.484 163.141C143.311 162.942 143.225 162.706 143.225 162.431ZM152.301 175.757C151.578 175.757 150.923 175.636 150.334 175.393C149.752 175.143 149.25 174.795 148.828 174.347C148.412 173.899 148.092 173.368 147.868 172.754C147.644 172.14 147.533 171.469 147.533 170.739V170.337C147.533 169.492 147.657 168.741 147.907 168.082C148.156 167.417 148.495 166.854 148.924 166.393C149.352 165.933 149.838 165.584 150.382 165.347C150.926 165.111 151.489 164.992 152.071 164.992C152.813 164.992 153.452 165.12 153.99 165.376C154.533 165.632 154.978 165.99 155.323 166.451C155.669 166.905 155.924 167.442 156.091 168.063C156.257 168.677 156.34 169.348 156.34 170.077V170.874H148.588V169.425H154.565V169.291C154.54 168.83 154.444 168.382 154.277 167.948C154.117 167.513 153.862 167.154 153.51 166.873C153.158 166.592 152.678 166.451 152.071 166.451C151.668 166.451 151.297 166.537 150.958 166.71C150.619 166.876 150.328 167.126 150.085 167.458C149.842 167.791 149.653 168.197 149.519 168.677C149.384 169.156 149.317 169.71 149.317 170.337V170.739C149.317 171.232 149.384 171.696 149.519 172.131C149.659 172.559 149.861 172.937 150.123 173.263C150.392 173.589 150.715 173.845 151.092 174.03C151.476 174.216 151.911 174.309 152.397 174.309C153.024 174.309 153.555 174.181 153.99 173.925C154.424 173.669 154.805 173.327 155.131 172.898L156.206 173.752C155.982 174.091 155.697 174.414 155.352 174.721C155.007 175.028 154.581 175.278 154.076 175.469C153.577 175.661 152.985 175.757 152.301 175.757ZM164.956 173.551V160.828H166.74V175.565H165.109L164.956 173.551ZM157.971 170.49V170.289C157.971 169.495 158.067 168.776 158.259 168.13C158.457 167.477 158.736 166.918 159.094 166.451C159.458 165.984 159.89 165.626 160.389 165.376C160.894 165.12 161.457 164.992 162.078 164.992C162.73 164.992 163.299 165.108 163.785 165.338C164.278 165.562 164.694 165.891 165.033 166.326C165.378 166.755 165.65 167.273 165.848 167.88C166.046 168.488 166.184 169.176 166.261 169.943V170.826C166.19 171.587 166.053 172.271 165.848 172.879C165.65 173.487 165.378 174.005 165.033 174.433C164.694 174.862 164.278 175.191 163.785 175.422C163.293 175.645 162.717 175.757 162.058 175.757C161.451 175.757 160.894 175.626 160.389 175.364C159.89 175.102 159.458 174.734 159.094 174.261C158.736 173.787 158.457 173.231 158.259 172.591C158.067 171.945 157.971 171.245 157.971 170.49ZM159.756 170.289V170.49C159.756 171.008 159.807 171.494 159.909 171.948C160.018 172.402 160.184 172.802 160.408 173.148C160.632 173.493 160.917 173.765 161.262 173.963C161.607 174.155 162.02 174.251 162.5 174.251C163.088 174.251 163.571 174.126 163.948 173.877C164.332 173.627 164.639 173.298 164.87 172.889C165.1 172.479 165.279 172.035 165.407 171.555V169.243C165.33 168.891 165.218 168.552 165.071 168.226C164.93 167.893 164.745 167.599 164.515 167.343C164.291 167.081 164.012 166.873 163.68 166.719C163.354 166.566 162.967 166.489 162.519 166.489C162.033 166.489 161.614 166.592 161.262 166.796C160.917 166.994 160.632 167.27 160.408 167.621C160.184 167.967 160.018 168.37 159.909 168.83C159.807 169.284 159.756 169.77 159.756 170.289ZM178.724 165.184V166.547H173.111V165.184H178.724ZM175.011 162.661H176.786V172.994C176.786 173.346 176.84 173.611 176.949 173.79C177.058 173.97 177.198 174.088 177.371 174.145C177.544 174.203 177.729 174.232 177.927 174.232C178.075 174.232 178.228 174.219 178.388 174.193C178.554 174.161 178.679 174.136 178.762 174.117L178.772 175.565C178.631 175.61 178.446 175.652 178.215 175.69C177.991 175.735 177.72 175.757 177.4 175.757C176.965 175.757 176.565 175.671 176.2 175.498C175.836 175.326 175.545 175.038 175.327 174.635C175.116 174.225 175.011 173.675 175.011 172.985V162.661ZM180.144 170.49V170.269C180.144 169.521 180.252 168.827 180.47 168.187C180.687 167.541 181.001 166.982 181.41 166.508C181.82 166.029 182.315 165.658 182.897 165.395C183.479 165.127 184.132 164.992 184.855 164.992C185.584 164.992 186.239 165.127 186.821 165.395C187.41 165.658 187.909 166.029 188.318 166.508C188.734 166.982 189.051 167.541 189.268 168.187C189.485 168.827 189.594 169.521 189.594 170.269V170.49C189.594 171.238 189.485 171.932 189.268 172.572C189.051 173.212 188.734 173.771 188.318 174.251C187.909 174.724 187.413 175.095 186.831 175.364C186.255 175.626 185.603 175.757 184.874 175.757C184.145 175.757 183.489 175.626 182.907 175.364C182.325 175.095 181.826 174.724 181.41 174.251C181.001 173.771 180.687 173.212 180.47 172.572C180.252 171.932 180.144 171.238 180.144 170.49ZM181.919 170.269V170.49C181.919 171.008 181.979 171.497 182.101 171.958C182.223 172.412 182.405 172.815 182.648 173.167C182.897 173.519 183.208 173.797 183.579 174.002C183.95 174.2 184.381 174.299 184.874 174.299C185.36 174.299 185.785 174.2 186.15 174.002C186.521 173.797 186.828 173.519 187.071 173.167C187.314 172.815 187.496 172.412 187.618 171.958C187.746 171.497 187.81 171.008 187.81 170.49V170.269C187.81 169.758 187.746 169.275 187.618 168.821C187.496 168.36 187.311 167.954 187.061 167.602C186.818 167.244 186.511 166.962 186.14 166.758C185.776 166.553 185.347 166.451 184.855 166.451C184.368 166.451 183.94 166.553 183.569 166.758C183.204 166.962 182.897 167.244 182.648 167.602C182.405 167.954 182.223 168.36 182.101 168.821C181.979 169.275 181.919 169.758 181.919 170.269ZM198.363 173.551V160.828H200.148V175.565H198.517L198.363 173.551ZM191.379 170.49V170.289C191.379 169.495 191.475 168.776 191.667 168.13C191.865 167.477 192.143 166.918 192.501 166.451C192.866 165.984 193.298 165.626 193.797 165.376C194.302 165.12 194.865 164.992 195.485 164.992C196.138 164.992 196.707 165.108 197.193 165.338C197.685 165.562 198.101 165.891 198.44 166.326C198.786 166.755 199.057 167.273 199.256 167.88C199.454 168.488 199.592 169.176 199.668 169.943V170.826C199.598 171.587 199.46 172.271 199.256 172.879C199.057 173.487 198.786 174.005 198.44 174.433C198.101 174.862 197.685 175.191 197.193 175.422C196.7 175.645 196.125 175.757 195.466 175.757C194.858 175.757 194.302 175.626 193.797 175.364C193.298 175.102 192.866 174.734 192.501 174.261C192.143 173.787 191.865 173.231 191.667 172.591C191.475 171.945 191.379 171.245 191.379 170.49ZM193.163 170.289V170.49C193.163 171.008 193.214 171.494 193.317 171.948C193.426 172.402 193.592 172.802 193.816 173.148C194.04 173.493 194.324 173.765 194.67 173.963C195.015 174.155 195.428 174.251 195.907 174.251C196.496 174.251 196.979 174.126 197.356 173.877C197.74 173.627 198.047 173.298 198.277 172.889C198.507 172.479 198.686 172.035 198.814 171.555V169.243C198.738 168.891 198.626 168.552 198.479 168.226C198.338 167.893 198.152 167.599 197.922 167.343C197.698 167.081 197.42 166.873 197.087 166.719C196.761 166.566 196.374 166.489 195.926 166.489C195.44 166.489 195.021 166.592 194.67 166.796C194.324 166.994 194.04 167.27 193.816 167.621C193.592 167.967 193.426 168.37 193.317 168.83C193.214 169.284 193.163 169.77 193.163 170.289ZM209.032 173.79V168.446C209.032 168.037 208.949 167.682 208.783 167.381C208.623 167.074 208.38 166.838 208.054 166.671C207.728 166.505 207.325 166.422 206.845 166.422C206.397 166.422 206.004 166.499 205.665 166.652C205.332 166.806 205.07 167.007 204.878 167.257C204.693 167.506 204.6 167.775 204.6 168.063H202.825C202.825 167.692 202.921 167.324 203.113 166.959C203.305 166.595 203.58 166.265 203.938 165.971C204.302 165.67 204.737 165.434 205.243 165.261C205.754 165.082 206.324 164.992 206.95 164.992C207.705 164.992 208.37 165.12 208.946 165.376C209.528 165.632 209.982 166.019 210.308 166.537C210.641 167.049 210.807 167.692 210.807 168.466V173.301C210.807 173.647 210.836 174.014 210.894 174.405C210.958 174.795 211.05 175.13 211.172 175.412V175.565H209.32C209.231 175.361 209.16 175.089 209.109 174.75C209.058 174.405 209.032 174.085 209.032 173.79ZM209.339 169.272L209.359 170.519H207.564C207.059 170.519 206.608 170.56 206.212 170.644C205.815 170.72 205.482 170.839 205.214 170.999C204.945 171.158 204.74 171.36 204.6 171.603C204.459 171.84 204.389 172.118 204.389 172.438C204.389 172.764 204.462 173.061 204.609 173.33C204.756 173.599 204.977 173.813 205.271 173.973C205.572 174.126 205.94 174.203 206.375 174.203C206.918 174.203 207.398 174.088 207.814 173.858C208.23 173.627 208.559 173.346 208.802 173.013C209.052 172.681 209.186 172.358 209.205 172.044L209.963 172.898C209.918 173.167 209.797 173.464 209.598 173.79C209.4 174.117 209.135 174.43 208.802 174.731C208.476 175.025 208.086 175.271 207.632 175.469C207.184 175.661 206.679 175.757 206.116 175.757C205.412 175.757 204.795 175.62 204.264 175.345C203.739 175.07 203.33 174.702 203.036 174.241C202.748 173.774 202.604 173.253 202.604 172.678C202.604 172.121 202.713 171.632 202.93 171.21C203.148 170.781 203.461 170.426 203.871 170.145C204.28 169.857 204.772 169.639 205.348 169.492C205.924 169.345 206.567 169.272 207.277 169.272H209.339ZM216.362 174.491L219.25 165.184H221.15L216.986 177.168C216.89 177.424 216.762 177.699 216.602 177.993C216.449 178.293 216.251 178.578 216.007 178.847C215.764 179.115 215.47 179.333 215.125 179.499C214.786 179.672 214.38 179.758 213.906 179.758C213.766 179.758 213.586 179.739 213.369 179.701C213.152 179.662 212.998 179.63 212.908 179.605L212.899 178.166C212.95 178.172 213.03 178.178 213.139 178.185C213.254 178.197 213.334 178.204 213.379 178.204C213.782 178.204 214.124 178.15 214.405 178.041C214.687 177.938 214.923 177.763 215.115 177.513C215.313 177.27 215.483 176.934 215.624 176.506L216.362 174.491ZM214.242 165.184L216.938 173.244L217.399 175.114L216.123 175.767L212.304 165.184H214.242Z" fill="white"/>
<path d="M37.3075 47.1255V48.2393H33.2163V47.1255H37.3075ZM33.6081 40.0905V48.2393H32.2033V40.0905H33.6081ZM38.0834 45.2786V45.1499C38.0834 44.7133 38.1468 44.3085 38.2737 43.9354C38.4005 43.5585 38.5833 43.2321 38.8221 42.956C39.0647 42.6761 39.3594 42.4597 39.7064 42.3067C40.0571 42.15 40.4526 42.0717 40.8929 42.0717C41.3369 42.0717 41.7324 42.15 42.0794 42.3067C42.4301 42.4597 42.7268 42.6761 42.9693 42.956C43.2118 43.2321 43.3965 43.5585 43.5234 43.9354C43.6502 44.3085 43.7137 44.7133 43.7137 45.1499V45.2786C43.7137 45.7151 43.6502 46.12 43.5234 46.4931C43.3965 46.8662 43.2118 47.1927 42.9693 47.4725C42.7268 47.7486 42.432 47.965 42.085 48.1217C41.738 48.2747 41.3444 48.3512 40.9041 48.3512C40.4601 48.3512 40.0627 48.2747 39.712 48.1217C39.365 47.965 39.0703 47.7486 38.8277 47.4725C38.5852 47.1927 38.4005 46.8662 38.2737 46.4931C38.1468 46.12 38.0834 45.7151 38.0834 45.2786ZM39.4322 45.1499V45.2786C39.4322 45.551 39.4602 45.8084 39.5161 46.0509C39.5721 46.2935 39.6598 46.5061 39.7792 46.689C39.8986 46.8718 40.0515 47.0154 40.2381 47.1199C40.4247 47.2244 40.6467 47.2766 40.9041 47.2766C41.1541 47.2766 41.3705 47.2244 41.5533 47.1199C41.7399 47.0154 41.8929 46.8718 42.0123 46.689C42.1317 46.5061 42.2193 46.2935 42.2753 46.0509C42.335 45.8084 42.3649 45.551 42.3649 45.2786V45.1499C42.3649 44.8812 42.335 44.6275 42.2753 44.3887C42.2193 44.1462 42.1298 43.9317 42.0067 43.7451C41.8873 43.5585 41.7343 43.413 41.5477 43.3086C41.3649 43.2004 41.1466 43.1463 40.8929 43.1463C40.6392 43.1463 40.4191 43.2004 40.2325 43.3086C40.0497 43.413 39.8986 43.5585 39.7792 43.7451C39.6598 43.9317 39.5721 44.1462 39.5161 44.3887C39.4602 44.6275 39.4322 44.8812 39.4322 45.1499ZM48.8046 42.1836H50.0303V48.0714C50.0303 48.6161 49.9146 49.0788 49.6833 49.4593C49.4519 49.8399 49.1292 50.1291 48.715 50.3268C48.3009 50.5283 47.8214 50.6291 47.2767 50.6291C47.0454 50.6291 46.7879 50.5955 46.5043 50.5283C46.2245 50.4612 45.9521 50.3529 45.6872 50.2037C45.426 50.0582 45.2078 49.866 45.0324 49.6272L45.6648 48.8325C45.8812 49.09 46.12 49.2784 46.3812 49.3978C46.6424 49.5172 46.9166 49.5769 47.2039 49.5769C47.5136 49.5769 47.7767 49.519 47.9931 49.4034C48.2132 49.2914 48.383 49.1254 48.5024 48.9053C48.6218 48.6851 48.6815 48.4165 48.6815 48.0993V43.5548L48.8046 42.1836ZM44.691 45.2786V45.1611C44.691 44.7021 44.747 44.2843 44.8589 43.9074C44.9708 43.5268 45.1313 43.2004 45.3402 42.928C45.5492 42.6519 45.8029 42.4411 46.1014 42.2956C46.3999 42.1463 46.7375 42.0717 47.1144 42.0717C47.5062 42.0717 47.8401 42.1426 48.1162 42.2844C48.396 42.4261 48.6292 42.6295 48.8158 42.8944C49.0023 43.1556 49.1479 43.469 49.2523 43.8346C49.3605 44.1966 49.4407 44.5995 49.493 45.0435V45.4185C49.4445 45.8513 49.3624 46.2468 49.2467 46.605C49.1311 46.9632 48.9781 47.2729 48.7878 47.5341C48.5975 47.7953 48.3624 47.9967 48.0826 48.1385C47.8065 48.2803 47.48 48.3512 47.1032 48.3512C46.7338 48.3512 46.3999 48.2747 46.1014 48.1217C45.8066 47.9688 45.5529 47.7542 45.3402 47.4781C45.1313 47.202 44.9708 46.8774 44.8589 46.5043C44.747 46.1274 44.691 45.7189 44.691 45.2786ZM46.0398 45.1611V45.2786C46.0398 45.5547 46.0659 45.8122 46.1182 46.0509C46.1741 46.2897 46.2581 46.5005 46.37 46.6834C46.4857 46.8625 46.6312 47.0043 46.8066 47.1087C46.9857 47.2095 47.1965 47.2598 47.439 47.2598C47.7561 47.2598 48.0155 47.1927 48.2169 47.0584C48.4221 46.924 48.5789 46.7431 48.6871 46.5155C48.799 46.2841 48.8773 46.0267 48.9221 45.7431V44.7301C48.8997 44.51 48.8531 44.3048 48.7822 44.1145C48.715 43.9242 48.6236 43.7582 48.508 43.6164C48.3923 43.4709 48.2468 43.3589 48.0714 43.2806C47.8961 43.1985 47.689 43.1574 47.4502 43.1574C47.2077 43.1574 46.9969 43.2097 46.8178 43.3142C46.6387 43.4186 46.4913 43.5623 46.3756 43.7451C46.2637 43.9279 46.1797 44.1406 46.1238 44.3831C46.0678 44.6257 46.0398 44.885 46.0398 45.1611ZM51.2539 45.2786V45.1499C51.2539 44.7133 51.3173 44.3085 51.4442 43.9354C51.571 43.5585 51.7538 43.2321 51.9926 42.956C52.2352 42.6761 52.5299 42.4597 52.8769 42.3067C53.2276 42.15 53.6231 42.0717 54.0634 42.0717C54.5074 42.0717 54.9029 42.15 55.2499 42.3067C55.6006 42.4597 55.8973 42.6761 56.1398 42.956C56.3823 43.2321 56.567 43.5585 56.6939 43.9354C56.8207 44.3085 56.8842 44.7133 56.8842 45.1499V45.2786C56.8842 45.7151 56.8207 46.12 56.6939 46.4931C56.567 46.8662 56.3823 47.1927 56.1398 47.4725C55.8973 47.7486 55.6025 47.965 55.2555 48.1217C54.9085 48.2747 54.5149 48.3512 54.0746 48.3512C53.6306 48.3512 53.2332 48.2747 52.8825 48.1217C52.5355 47.965 52.2408 47.7486 51.9982 47.4725C51.7557 47.1927 51.571 46.8662 51.4442 46.4931C51.3173 46.12 51.2539 45.7151 51.2539 45.2786ZM52.6027 45.1499V45.2786C52.6027 45.551 52.6307 45.8084 52.6866 46.0509C52.7426 46.2935 52.8303 46.5061 52.9497 46.689C53.0691 46.8718 53.222 47.0154 53.4086 47.1199C53.5952 47.2244 53.8172 47.2766 54.0746 47.2766C54.3246 47.2766 54.541 47.2244 54.7238 47.1199C54.9104 47.0154 55.0634 46.8718 55.1828 46.689C55.3022 46.5061 55.3898 46.2935 55.4458 46.0509C55.5055 45.8084 55.5353 45.551 55.5353 45.2786V45.1499C55.5353 44.8812 55.5055 44.6275 55.4458 44.3887C55.3898 44.1462 55.3003 43.9317 55.1772 43.7451C55.0578 43.5585 54.9048 43.413 54.7182 43.3086C54.5354 43.2004 54.3171 43.1463 54.0634 43.1463C53.8097 43.1463 53.5896 43.2004 53.403 43.3086C53.2202 43.413 53.0691 43.5585 52.9497 43.7451C52.8303 43.9317 52.7426 44.1462 52.6866 44.3887C52.6307 44.6275 52.6027 44.8812 52.6027 45.1499Z" fill="black"/>
<mask id="mask0_53380_53763" style="mask-type:luminance" maskUnits="userSpaceOnUse" x="277" y="36" width="16" height="15">
<path fill-rule="evenodd" clip-rule="evenodd" d="M277.535 36.5327H292.679V50.7358H277.535V36.5327Z" fill="white"/>
</mask>
<g mask="url(#mask0_53380_53763)">
<path fill-rule="evenodd" clip-rule="evenodd" d="M285.105 37.7608C282.244 37.7608 280.249 40.0024 280.249 42.014C280.249 43.7161 279.777 44.5029 279.359 45.1972C279.024 45.7548 278.76 46.1952 278.76 47.1523C278.897 48.6964 279.916 49.5078 285.105 49.5078C290.265 49.5078 291.317 48.6604 291.453 47.0991C291.45 46.1952 291.186 45.7548 290.851 45.1972C290.433 44.5029 289.961 43.7161 289.961 42.014C289.961 40.0024 287.967 37.7608 285.105 37.7608ZM285.106 50.7358C281.278 50.7358 277.818 50.4657 277.535 47.2047C277.533 45.8555 277.945 45.1694 278.308 44.5652C278.676 43.9528 279.022 43.3756 279.022 42.014C279.022 39.3671 281.467 36.5327 285.106 36.5327C288.745 36.5327 291.19 39.3671 291.19 42.014C291.19 43.3756 291.536 43.9528 291.904 44.5652C292.267 45.1694 292.679 45.8555 292.679 47.1523C292.393 50.4657 288.934 50.7358 285.106 50.7358Z" fill="black"/>
</g>
<path fill-rule="evenodd" clip-rule="evenodd" d="M285.066 54.1352H285.064C284.146 54.1344 283.278 53.7299 282.618 52.9955C282.392 52.7442 282.412 52.3553 282.664 52.1293C282.916 51.9017 283.305 51.9222 283.531 52.1752C283.955 52.6476 284.5 52.9071 285.065 52.9071H285.066C285.633 52.9071 286.18 52.6476 286.605 52.1744C286.832 51.923 287.22 51.9026 287.472 52.1293C287.724 52.3561 287.744 52.745 287.518 52.9964C286.856 53.7308 285.986 54.1352 285.066 54.1352Z" fill="black"/>
<path d="M251.951 54.1357C250.98 54.1357 250.03 53.8476 249.222 53.3078C248.414 52.768 247.785 52.0008 247.413 51.1032C247.041 50.2056 246.944 49.2179 247.133 48.265C247.323 47.3121 247.791 46.4368 248.478 45.7498C249.165 45.0628 250.04 44.595 250.993 44.4054C251.946 44.2159 252.934 44.3132 253.831 44.685C254.729 45.0568 255.496 45.6864 256.036 46.4942C256.576 47.302 256.864 48.2518 256.864 49.2233C256.864 50.5262 256.346 51.7756 255.425 52.6969C254.504 53.6181 253.254 54.1357 251.951 54.1357ZM251.951 45.5391C251.223 45.5391 250.51 45.7552 249.905 46.16C249.299 46.5648 248.826 47.1402 248.548 47.8135C248.269 48.4867 248.196 49.2274 248.338 49.9421C248.48 50.6568 248.831 51.3132 249.346 51.8285C249.861 52.3437 250.518 52.6946 251.233 52.8368C251.947 52.9789 252.688 52.906 253.361 52.6271C254.034 52.3483 254.61 51.8761 255.015 51.2702C255.42 50.6643 255.636 49.952 255.636 49.2233C255.636 48.2462 255.247 47.3091 254.557 46.6182C253.866 45.9273 252.928 45.5391 251.951 45.5391Z" fill="black"/>
<path d="M252.926 51.0654L251.336 49.475V46.7671H252.564V48.9715L253.792 50.1996L252.926 51.0654Z" fill="black"/>
<path d="M256.249 39.3985C256.249 39.0728 256.119 38.7605 255.889 38.5302C255.659 38.2998 255.346 38.1705 255.021 38.1705H252.564V36.9424H251.336V38.1705H246.424V36.9424H245.196V38.1705H242.74C242.414 38.1705 242.102 38.2998 241.871 38.5302C241.641 38.7605 241.512 39.0728 241.512 39.3985V51.6793C241.512 52.005 241.641 52.3174 241.871 52.5477C242.102 52.778 242.414 52.9074 242.74 52.9074H245.196V51.6793H242.74V39.3985H245.196V40.6266H246.424V39.3985H251.336V40.6266H252.564V39.3985H255.021V43.0828H256.249V39.3985Z" fill="black"/>
<mask id="mask1_53380_53763" style="mask-type:luminance" maskUnits="userSpaceOnUse" x="203" y="37" width="17" height="17">
<path fill-rule="evenodd" clip-rule="evenodd" d="M203.664 37.3521H219.61V53.2982H203.664V37.3521Z" fill="white"/>
</mask>
<g mask="url(#mask1_53380_53763)">
<path fill-rule="evenodd" clip-rule="evenodd" d="M211.638 38.5801C207.918 38.5801 204.892 41.6053 204.892 45.3247C204.892 49.0442 207.918 52.0702 211.638 52.0702C215.356 52.0702 218.382 49.0442 218.382 45.3247C218.382 41.6053 215.356 38.5801 211.638 38.5801ZM211.638 53.2982C207.241 53.2982 203.664 49.7212 203.664 45.3247C203.664 40.9282 207.241 37.3521 211.638 37.3521C216.034 37.3521 219.61 40.9282 219.61 45.3247C219.61 49.7212 216.034 53.2982 211.638 53.2982Z" fill="black"/>
</g>
<mask id="mask2_53380_53763" style="mask-type:luminance" maskUnits="userSpaceOnUse" x="216" y="50" width="5" height="5">
<path fill-rule="evenodd" clip-rule="evenodd" d="M216.141 50.2114H220.254V54.3171H216.141V50.2114Z" fill="white"/>
</mask>
<g mask="url(#mask2_53380_53763)">
<path fill-rule="evenodd" clip-rule="evenodd" d="M219.64 54.3171C219.484 54.3171 219.326 54.2573 219.206 54.1378L216.321 51.2608C216.081 51.0209 216.08 50.632 216.32 50.3922C216.559 50.1506 216.948 50.1523 217.189 50.3905L220.074 53.2683C220.314 53.5082 220.315 53.8963 220.075 54.1362C219.955 54.2573 219.797 54.3171 219.64 54.3171Z" fill="black"/>
</g>
<rect width="294.739" height="41.8364" transform="translate(16.6875 282.993)" fill="white"/>
<path d="M44.6939 288.377C44.472 288.196 44.1906 288.097 43.8997 288.097C43.6088 288.097 43.3274 288.196 43.1056 288.377L36.9652 293.374C36.8292 293.484 36.72 293.622 36.645 293.777C36.5701 293.932 36.5313 294.101 36.5312 294.272V301.656C36.5312 301.969 36.6606 302.268 36.8909 302.489C37.1213 302.71 37.4336 302.834 37.7593 302.834H41.6482C41.8111 302.834 41.9673 302.772 42.0824 302.662C42.1976 302.551 42.2623 302.401 42.2623 302.245V297.337H45.5372V302.245C45.5372 302.57 45.8122 302.834 46.1512 302.834H50.0401C50.3658 302.834 50.6782 302.71 50.9085 302.489C51.1388 302.268 51.2682 301.969 51.2682 301.656V294.272C51.2682 294.101 51.2293 293.932 51.1544 293.777C51.0795 293.622 50.9702 293.484 50.8343 293.374L44.6939 288.377Z" fill="#0054B4"/>
<path d="M38.1751 313.9V314.402H35.655V313.9H38.1751ZM35.7509 311.898V316.555H35.1337V311.898H35.7509ZM38.7124 311.898V316.555H38.0983V311.898H38.7124ZM39.8906 314.863V314.789C39.8906 314.54 39.9268 314.309 39.9993 314.095C40.0718 313.88 40.1763 313.693 40.3127 313.536C40.4492 313.376 40.6144 313.252 40.8084 313.165C41.0024 313.075 41.2199 313.03 41.4608 313.03C41.7039 313.03 41.9224 313.075 42.1164 313.165C42.3126 313.252 42.4789 313.376 42.6154 313.536C42.7539 313.693 42.8595 313.88 42.932 314.095C43.0045 314.309 43.0407 314.54 43.0407 314.789V314.863C43.0407 315.112 43.0045 315.344 42.932 315.557C42.8595 315.77 42.7539 315.957 42.6154 316.117C42.4789 316.274 42.3137 316.398 42.1196 316.488C41.9278 316.575 41.7103 316.619 41.4672 316.619C41.2242 316.619 41.0056 316.575 40.8116 316.488C40.6176 316.398 40.4513 316.274 40.3127 316.117C40.1763 315.957 40.0718 315.77 39.9993 315.557C39.9268 315.344 39.8906 315.112 39.8906 314.863ZM40.4822 314.789V314.863C40.4822 315.036 40.5025 315.199 40.543 315.352C40.5835 315.504 40.6442 315.638 40.7253 315.755C40.8084 315.872 40.9118 315.965 41.0355 316.033C41.1591 316.099 41.3031 316.133 41.4672 316.133C41.6293 316.133 41.771 316.099 41.8926 316.033C42.0162 315.965 42.1186 315.872 42.1996 315.755C42.2806 315.638 42.3414 315.504 42.3819 315.352C42.4245 315.199 42.4459 315.036 42.4459 314.863V314.789C42.4459 314.619 42.4245 314.458 42.3819 314.306C42.3414 314.153 42.2795 314.018 42.1964 313.9C42.1154 313.781 42.013 313.687 41.8894 313.619C41.7679 313.551 41.625 313.516 41.4608 313.516C41.2988 313.516 41.1559 313.551 41.0323 313.619C40.9108 313.687 40.8084 313.781 40.7253 313.9C40.6442 314.018 40.5835 314.153 40.543 314.306C40.5025 314.458 40.4822 314.619 40.4822 314.789ZM44.6986 313.782V316.555H44.1038V313.094H44.6666L44.6986 313.782ZM44.5771 314.693L44.302 314.684C44.3042 314.447 44.3351 314.229 44.3948 314.028C44.4545 313.826 44.543 313.65 44.6602 313.5C44.7775 313.351 44.9235 313.236 45.0984 313.155C45.2732 313.072 45.4757 313.03 45.706 313.03C45.8681 313.03 46.0173 313.054 46.1538 313.101C46.2902 313.145 46.4085 313.217 46.5087 313.315C46.6089 313.413 46.6868 313.539 46.7422 313.692C46.7976 313.846 46.8254 314.031 46.8254 314.249V316.555H46.2337V314.278C46.2337 314.096 46.2028 313.951 46.141 313.843C46.0813 313.734 45.996 313.655 45.8851 313.606C45.7742 313.555 45.6442 313.529 45.4949 313.529C45.3201 313.529 45.1741 313.56 45.0568 313.622C44.9395 313.684 44.8457 313.769 44.7754 313.878C44.705 313.987 44.6538 314.111 44.6219 314.252C44.592 314.391 44.5771 314.538 44.5771 314.693ZM46.819 314.367L46.4224 314.489C46.4245 314.299 46.4554 314.117 46.5151 313.942C46.577 313.767 46.6654 313.611 46.7806 313.475C46.8978 313.338 47.0418 313.231 47.2123 313.152C47.3829 313.071 47.578 313.03 47.7976 313.03C47.9831 313.03 48.1472 313.055 48.2901 313.104C48.4351 313.153 48.5566 313.229 48.6547 313.331C48.7549 313.431 48.8306 313.56 48.8817 313.718C48.9329 313.876 48.9585 314.063 48.9585 314.281V316.555H48.3637V314.274C48.3637 314.08 48.3327 313.93 48.2709 313.823C48.2112 313.715 48.1259 313.639 48.0151 313.596C47.9063 313.552 47.7763 313.529 47.6249 313.529C47.4948 313.529 47.3797 313.552 47.2795 313.596C47.1793 313.641 47.0951 313.703 47.0268 313.782C46.9586 313.859 46.9064 313.947 46.8701 314.047C46.836 314.148 46.819 314.254 46.819 314.367ZM51.6174 316.619C51.3765 316.619 51.158 316.578 50.9618 316.497C50.7678 316.414 50.6004 316.298 50.4597 316.149C50.3211 315.999 50.2145 315.822 50.1399 315.618C50.0653 315.413 50.028 315.189 50.028 314.946V314.812C50.028 314.53 50.0695 314.28 50.1527 314.06C50.2358 313.838 50.3488 313.651 50.4917 313.497C50.6345 313.344 50.7966 313.228 50.9778 313.149C51.159 313.07 51.3466 313.03 51.5407 313.03C51.788 313.03 52.0012 313.073 52.1803 313.158C52.3615 313.244 52.5097 313.363 52.6248 313.516C52.74 313.668 52.8252 313.847 52.8807 314.054C52.9361 314.258 52.9638 314.482 52.9638 314.725V314.991H50.3797V314.508H52.3722V314.463C52.3636 314.31 52.3317 314.16 52.2762 314.015C52.2229 313.87 52.1376 313.751 52.0204 313.657C51.9031 313.563 51.7432 313.516 51.5407 313.516C51.4063 313.516 51.2827 313.545 51.1697 313.603C51.0567 313.658 50.9597 313.741 50.8787 313.852C50.7976 313.963 50.7347 314.099 50.69 314.258C50.6452 314.418 50.6228 314.603 50.6228 314.812V314.946C50.6228 315.11 50.6452 315.265 50.69 315.41C50.7369 315.553 50.804 315.678 50.8914 315.787C50.981 315.896 51.0887 315.981 51.2145 316.043C51.3424 316.105 51.4874 316.136 51.6494 316.136C51.8583 316.136 52.0353 316.093 52.1803 316.008C52.3253 315.923 52.4521 315.808 52.5609 315.666L52.9191 315.95C52.8444 316.063 52.7496 316.171 52.6344 316.273C52.5193 316.376 52.3775 316.459 52.2091 316.523C52.0428 316.587 51.8455 316.619 51.6174 316.619Z" fill="#0054B4"/>
<mask id="mask3_53380_53763" style="mask-type:alpha" maskUnits="userSpaceOnUse" x="90" y="286" width="21" height="20">
<rect x="90.5664" y="286.268" width="19.6492" height="19.6492" fill="white"/>
</mask>
<g mask="url(#mask3_53380_53763)">
<rect x="94.2531" y="289.133" width="12.2808" height="13.9182" rx="1.22808" fill="white" stroke="black" stroke-width="0.818718"/>
<line x1="96.0234" y1="294.046" x2="104.756" y2="294.046" stroke="black" stroke-width="0.818718"/>
<line x1="96.0234" y1="296.502" x2="100.39" y2="296.502" stroke="black" stroke-width="0.818718"/>
</g>
<path d="M95.8666 311.898V316.555H95.2589V311.898H95.8666ZM97.3633 311.898V312.404H93.7654V311.898H97.3633ZM99.4082 316.619C99.1672 316.619 98.9487 316.578 98.7525 316.497C98.5585 316.414 98.3912 316.298 98.2504 316.149C98.1119 315.999 98.0053 315.822 97.9306 315.618C97.856 315.413 97.8187 315.189 97.8187 314.946V314.812C97.8187 314.53 97.8603 314.28 97.9434 314.06C98.0266 313.838 98.1396 313.651 98.2824 313.497C98.4253 313.344 98.5873 313.228 98.7685 313.149C98.9498 313.07 99.1374 313.03 99.3314 313.03C99.5787 313.03 99.7919 313.073 99.971 313.158C100.152 313.244 100.3 313.363 100.416 313.516C100.531 313.668 100.616 313.847 100.671 314.054C100.727 314.258 100.755 314.482 100.755 314.725V314.991H98.1705V314.508H100.163V314.463C100.154 314.31 100.122 314.16 100.067 314.015C100.014 313.87 99.9284 313.751 99.8111 313.657C99.6939 313.563 99.534 313.516 99.3314 313.516C99.1971 313.516 99.0734 313.545 98.9604 313.603C98.8474 313.658 98.7504 313.741 98.6694 313.852C98.5884 313.963 98.5255 314.099 98.4807 314.258C98.4359 314.418 98.4135 314.603 98.4135 314.812V314.946C98.4135 315.11 98.4359 315.265 98.4807 315.41C98.5276 315.553 98.5948 315.678 98.6822 315.787C98.7717 315.896 98.8794 315.981 99.0052 316.043C99.1331 316.105 99.2781 316.136 99.4401 316.136C99.6491 316.136 99.8261 316.093 99.971 316.008C100.116 315.923 100.243 315.808 100.352 315.666L100.71 315.95C100.635 316.063 100.54 316.171 100.425 316.273C100.31 316.376 100.168 316.459 99.9998 316.523C99.8335 316.587 99.6363 316.619 99.4082 316.619ZM103.788 315.637C103.788 315.552 103.768 315.473 103.73 315.4C103.694 315.326 103.618 315.258 103.503 315.199C103.39 315.137 103.219 315.084 102.991 315.039C102.799 314.998 102.626 314.95 102.47 314.895C102.317 314.839 102.185 314.772 102.077 314.693C101.97 314.614 101.888 314.522 101.83 314.415C101.773 314.309 101.744 314.184 101.744 314.041C101.744 313.905 101.774 313.776 101.834 313.654C101.895 313.532 101.982 313.425 102.093 313.331C102.206 313.237 102.341 313.164 102.499 313.11C102.657 313.057 102.832 313.03 103.027 313.03C103.304 313.03 103.54 313.079 103.736 313.177C103.933 313.276 104.083 313.407 104.187 313.571C104.292 313.733 104.344 313.913 104.344 314.111H103.752C103.752 314.015 103.724 313.923 103.666 313.833C103.611 313.741 103.529 313.666 103.42 313.606C103.313 313.546 103.182 313.516 103.027 313.516C102.862 313.516 102.729 313.542 102.627 313.593C102.527 313.642 102.453 313.705 102.406 313.782C102.361 313.859 102.339 313.94 102.339 314.025C102.339 314.089 102.35 314.147 102.371 314.198C102.394 314.247 102.435 314.293 102.492 314.335C102.55 314.376 102.631 314.414 102.735 314.45C102.84 314.487 102.973 314.523 103.135 314.559C103.419 314.623 103.652 314.7 103.836 314.789C104.019 314.879 104.155 314.989 104.245 315.119C104.335 315.249 104.379 315.407 104.379 315.592C104.379 315.743 104.347 315.882 104.283 316.008C104.222 316.134 104.131 316.242 104.012 316.334C103.894 316.424 103.754 316.494 103.589 316.545C103.427 316.594 103.245 316.619 103.043 316.619C102.738 316.619 102.48 316.564 102.269 316.456C102.057 316.347 101.898 316.206 101.789 316.033C101.68 315.861 101.626 315.678 101.626 315.487H102.221C102.229 315.649 102.276 315.778 102.361 315.873C102.447 315.967 102.551 316.034 102.675 316.075C102.798 316.113 102.921 316.133 103.043 316.133C103.205 316.133 103.34 316.111 103.449 316.069C103.56 316.026 103.644 315.967 103.701 315.893C103.759 315.818 103.788 315.733 103.788 315.637ZM106.933 313.094V313.548H105.062V313.094H106.933ZM105.695 312.253H106.287V315.698C106.287 315.815 106.305 315.903 106.341 315.963C106.377 316.023 106.424 316.062 106.482 316.081C106.539 316.101 106.601 316.11 106.667 316.11C106.716 316.11 106.767 316.106 106.821 316.097C106.876 316.087 106.918 316.078 106.945 316.072L106.949 316.555C106.902 316.57 106.84 316.583 106.763 316.596C106.689 316.611 106.598 316.619 106.491 316.619C106.346 316.619 106.213 316.59 106.092 316.532C105.97 316.475 105.873 316.379 105.801 316.244C105.73 316.108 105.695 315.925 105.695 315.694V312.253Z" fill="black"/>
<mask id="mask4_53380_53763" style="mask-type:alpha" maskUnits="userSpaceOnUse" x="147" y="286" width="20" height="20">
<rect x="147.059" y="286.268" width="19.6492" height="19.6492" fill="white"/>
</mask>
<g mask="url(#mask4_53380_53763)">
<rect x="149.921" y="289.133" width="13.9182" height="13.9182" rx="1.22808" fill="white" stroke="black" stroke-width="0.818718"/>
<line x1="156.835" y1="292.408" x2="156.835" y2="299.777" stroke="black" stroke-width="0.818718" stroke-linecap="round"/>
<line x1="153.195" y1="296.138" x2="160.563" y2="296.138" stroke="black" stroke-width="0.818718" stroke-linecap="round"/>
</g>
<path d="M152.822 312.311L151.281 316.555H150.651L152.426 311.898H152.832L152.822 312.311ZM154.115 316.555L152.57 312.311L152.56 311.898H152.966L154.748 316.555H154.115ZM154.035 314.831V315.336H151.419V314.831H154.035ZM157.79 315.883V311.642H158.385V316.555H157.842L157.79 315.883ZM155.462 314.863V314.796C155.462 314.531 155.494 314.291 155.558 314.076C155.624 313.859 155.717 313.672 155.836 313.516C155.958 313.361 156.102 313.241 156.268 313.158C156.437 313.073 156.624 313.03 156.831 313.03C157.048 313.03 157.238 313.069 157.4 313.145C157.564 313.22 157.703 313.33 157.816 313.475C157.931 313.618 158.022 313.79 158.088 313.993C158.154 314.196 158.2 314.425 158.225 314.681V314.975C158.202 315.229 158.156 315.457 158.088 315.659C158.022 315.862 157.931 316.034 157.816 316.177C157.703 316.32 157.564 316.43 157.4 316.507C157.236 316.581 157.044 316.619 156.825 316.619C156.622 316.619 156.437 316.575 156.268 316.488C156.102 316.4 155.958 316.278 155.836 316.12C155.717 315.962 155.624 315.776 155.558 315.563C155.494 315.348 155.462 315.114 155.462 314.863ZM156.057 314.796V314.863C156.057 315.036 156.074 315.198 156.108 315.349C156.144 315.5 156.2 315.634 156.275 315.749C156.349 315.864 156.444 315.955 156.559 316.021C156.674 316.085 156.812 316.117 156.972 316.117C157.168 316.117 157.329 316.075 157.455 315.992C157.583 315.909 157.685 315.799 157.762 315.662C157.838 315.526 157.898 315.378 157.941 315.218V314.447C157.915 314.33 157.878 314.217 157.829 314.108C157.782 313.997 157.72 313.899 157.643 313.814C157.569 313.726 157.476 313.657 157.365 313.606C157.256 313.555 157.127 313.529 156.978 313.529C156.816 313.529 156.676 313.563 156.559 313.632C156.444 313.698 156.349 313.789 156.275 313.907C156.2 314.022 156.144 314.156 156.108 314.31C156.074 314.461 156.057 314.623 156.057 314.796ZM161.815 315.883V311.642H162.41V316.555H161.866L161.815 315.883ZM159.487 314.863V314.796C159.487 314.531 159.519 314.291 159.583 314.076C159.649 313.859 159.742 313.672 159.861 313.516C159.982 313.361 160.126 313.241 160.293 313.158C160.461 313.073 160.649 313.03 160.856 313.03C161.073 313.03 161.263 313.069 161.425 313.145C161.589 313.22 161.728 313.33 161.841 313.475C161.956 313.618 162.046 313.79 162.112 313.993C162.178 314.196 162.224 314.425 162.25 314.681V314.975C162.226 315.229 162.181 315.457 162.112 315.659C162.046 315.862 161.956 316.034 161.841 316.177C161.728 316.32 161.589 316.43 161.425 316.507C161.261 316.581 161.069 316.619 160.849 316.619C160.647 316.619 160.461 316.575 160.293 316.488C160.126 316.4 159.982 316.278 159.861 316.12C159.742 315.962 159.649 315.776 159.583 315.563C159.519 315.348 159.487 315.114 159.487 314.863ZM160.082 314.796V314.863C160.082 315.036 160.099 315.198 160.133 315.349C160.169 315.5 160.224 315.634 160.299 315.749C160.374 315.864 160.469 315.955 160.584 316.021C160.699 316.085 160.836 316.117 160.996 316.117C161.192 316.117 161.353 316.075 161.479 315.992C161.607 315.909 161.709 315.799 161.786 315.662C161.863 315.526 161.923 315.378 161.965 315.218V314.447C161.94 314.33 161.902 314.217 161.853 314.108C161.806 313.997 161.745 313.899 161.668 313.814C161.593 313.726 161.5 313.657 161.39 313.606C161.281 313.555 161.152 313.529 161.003 313.529C160.841 313.529 160.701 313.563 160.584 313.632C160.469 313.698 160.374 313.789 160.299 313.907C160.224 314.022 160.169 314.156 160.133 314.31C160.099 314.461 160.082 314.623 160.082 314.796Z" fill="black"/>
<path d="M226.975 291.954L226.975 291.954L226.978 291.956C227.799 292.537 228.328 293.487 228.328 294.57V300.661C228.328 302.432 226.891 303.87 225.119 303.87H215.982C214.21 303.87 212.773 302.432 212.773 300.661V291.524C212.773 289.752 214.21 288.315 215.982 288.315H217.881C218.505 288.315 218.864 288.416 219.118 288.565C219.378 288.717 219.573 288.943 219.838 289.296L219.839 289.298L220.985 290.82L220.985 290.821C220.993 290.831 221.001 290.842 221.009 290.853C221.111 290.988 221.235 291.154 221.419 291.251C221.622 291.358 221.853 291.36 222.073 291.36H225.119C225.394 291.36 225.66 291.396 225.918 291.468L225.918 291.468L225.93 291.471C226.306 291.564 226.661 291.728 226.975 291.954Z" stroke="black" stroke-width="0.818718"/>
<path d="M204.44 311.898H205.981C206.331 311.898 206.626 311.952 206.867 312.058C207.11 312.165 207.295 312.323 207.421 312.531C207.549 312.738 207.612 312.993 207.612 313.296C207.612 313.509 207.569 313.704 207.481 313.881C207.396 314.056 207.272 314.205 207.11 314.329C206.95 314.45 206.759 314.541 206.535 314.601L206.362 314.668H204.913L204.907 314.166H206.001C206.222 314.166 206.407 314.127 206.554 314.051C206.701 313.972 206.812 313.866 206.886 313.734C206.961 313.602 206.998 313.456 206.998 313.296C206.998 313.117 206.963 312.96 206.893 312.826C206.823 312.691 206.712 312.588 206.56 312.515C206.411 312.441 206.218 312.404 205.981 312.404H205.057V316.555H204.44V311.898ZM207.162 316.555L206.029 314.444L206.672 314.441L207.82 316.516V316.555H207.162ZM210.15 316.619C209.909 316.619 209.69 316.578 209.494 316.497C209.3 316.414 209.133 316.298 208.992 316.149C208.854 315.999 208.747 315.822 208.672 315.618C208.598 315.413 208.56 315.189 208.56 314.946V314.812C208.56 314.53 208.602 314.28 208.685 314.06C208.768 313.838 208.881 313.651 209.024 313.497C209.167 313.344 209.329 313.228 209.51 313.149C209.691 313.07 209.879 313.03 210.073 313.03C210.32 313.03 210.534 313.073 210.713 313.158C210.894 313.244 211.042 313.363 211.157 313.516C211.272 313.668 211.358 313.847 211.413 314.054C211.469 314.258 211.496 314.482 211.496 314.725V314.991H208.912V314.508H210.905V314.463C210.896 314.31 210.864 314.16 210.809 314.015C210.755 313.87 210.67 313.751 210.553 313.657C210.436 313.563 210.276 313.516 210.073 313.516C209.939 313.516 209.815 313.545 209.702 313.603C209.589 313.658 209.492 313.741 209.411 313.852C209.33 313.963 209.267 314.099 209.222 314.258C209.178 314.418 209.155 314.603 209.155 314.812V314.946C209.155 315.11 209.178 315.265 209.222 315.41C209.269 315.553 209.336 315.678 209.424 315.787C209.513 315.896 209.621 315.981 209.747 316.043C209.875 316.105 210.02 316.136 210.182 316.136C210.391 316.136 210.568 316.093 210.713 316.008C210.858 315.923 210.985 315.808 211.093 315.666L211.451 315.95C211.377 316.063 211.282 316.171 211.167 316.273C211.052 316.376 210.91 316.459 210.742 316.523C210.575 316.587 210.378 316.619 210.15 316.619ZM214.529 315.637C214.529 315.552 214.51 315.473 214.472 315.4C214.436 315.326 214.36 315.258 214.245 315.199C214.132 315.137 213.961 315.084 213.733 315.039C213.541 314.998 213.367 314.95 213.212 314.895C213.058 314.839 212.927 314.772 212.818 314.693C212.712 314.614 212.63 314.522 212.572 314.415C212.515 314.309 212.486 314.184 212.486 314.041C212.486 313.905 212.516 313.776 212.575 313.654C212.637 313.532 212.723 313.425 212.834 313.331C212.947 313.237 213.083 313.164 213.241 313.11C213.398 313.057 213.574 313.03 213.768 313.03C214.045 313.03 214.282 313.079 214.478 313.177C214.674 313.276 214.825 313.407 214.929 313.571C215.034 313.733 215.086 313.913 215.086 314.111H214.494C214.494 314.015 214.465 313.923 214.408 313.833C214.352 313.741 214.27 313.666 214.162 313.606C214.055 313.546 213.924 313.516 213.768 313.516C213.604 313.516 213.471 313.542 213.368 313.593C213.268 313.642 213.195 313.705 213.148 313.782C213.103 313.859 213.081 313.94 213.081 314.025C213.081 314.089 213.091 314.147 213.113 314.198C213.136 314.247 213.177 314.293 213.234 314.335C213.292 314.376 213.373 314.414 213.477 314.45C213.582 314.487 213.715 314.523 213.877 314.559C214.161 314.623 214.394 314.7 214.577 314.789C214.761 314.879 214.897 314.989 214.987 315.119C215.076 315.249 215.121 315.407 215.121 315.592C215.121 315.743 215.089 315.882 215.025 316.008C214.963 316.134 214.873 316.242 214.753 316.334C214.636 316.424 214.495 316.494 214.331 316.545C214.169 316.594 213.987 316.619 213.784 316.619C213.479 316.619 213.221 316.564 213.01 316.456C212.799 316.347 212.639 316.206 212.531 316.033C212.422 315.861 212.367 315.678 212.367 315.487H212.962C212.971 315.649 213.018 315.778 213.103 315.873C213.188 315.967 213.293 316.034 213.416 316.075C213.54 316.113 213.663 316.133 213.784 316.133C213.946 316.133 214.082 316.111 214.19 316.069C214.301 316.026 214.385 315.967 214.443 315.893C214.501 315.818 214.529 315.733 214.529 315.637ZM216.069 314.863V314.789C216.069 314.54 216.105 314.309 216.178 314.095C216.25 313.88 216.355 313.693 216.491 313.536C216.628 313.376 216.793 313.252 216.987 313.165C217.181 313.075 217.398 313.03 217.639 313.03C217.882 313.03 218.101 313.075 218.295 313.165C218.491 313.252 218.657 313.376 218.794 313.536C218.932 313.693 219.038 313.88 219.11 314.095C219.183 314.309 219.219 314.54 219.219 314.789V314.863C219.219 315.112 219.183 315.344 219.11 315.557C219.038 315.77 218.932 315.957 218.794 316.117C218.657 316.274 218.492 316.398 218.298 316.488C218.106 316.575 217.889 316.619 217.646 316.619C217.403 316.619 217.184 316.575 216.99 316.488C216.796 316.398 216.63 316.274 216.491 316.117C216.355 315.957 216.25 315.77 216.178 315.557C216.105 315.344 216.069 315.112 216.069 314.863ZM216.661 314.789V314.863C216.661 315.036 216.681 315.199 216.721 315.352C216.762 315.504 216.823 315.638 216.904 315.755C216.987 315.872 217.09 315.965 217.214 316.033C217.338 316.099 217.481 316.133 217.646 316.133C217.808 316.133 217.949 316.099 218.071 316.033C218.195 315.965 218.297 315.872 218.378 315.755C218.459 315.638 218.52 315.504 218.56 315.352C218.603 315.199 218.624 315.036 218.624 314.863V314.789C218.624 314.619 218.603 314.458 218.56 314.306C218.52 314.153 218.458 314.018 218.375 313.9C218.294 313.781 218.191 313.687 218.068 313.619C217.946 313.551 217.803 313.516 217.639 313.516C217.477 313.516 217.334 313.551 217.211 313.619C217.089 313.687 216.987 313.781 216.904 313.9C216.823 314.018 216.762 314.153 216.721 314.306C216.681 314.458 216.661 314.619 216.661 314.789ZM222.406 315.755V313.094H223.001V316.555H222.434L222.406 315.755ZM222.518 315.026L222.764 315.02C222.764 315.25 222.739 315.463 222.69 315.659C222.643 315.853 222.567 316.022 222.46 316.165C222.353 316.307 222.214 316.419 222.041 316.5C221.868 316.579 221.658 316.619 221.411 316.619C221.243 316.619 221.088 316.594 220.947 316.545C220.809 316.496 220.689 316.42 220.589 316.318C220.489 316.216 220.411 316.082 220.356 315.918C220.302 315.754 220.276 315.557 220.276 315.327V313.094H220.867V315.333C220.867 315.489 220.884 315.618 220.919 315.72C220.955 315.82 221.003 315.9 221.062 315.96C221.124 316.017 221.193 316.058 221.267 316.081C221.344 316.105 221.423 316.117 221.504 316.117C221.755 316.117 221.955 316.069 222.102 315.973C222.249 315.875 222.355 315.743 222.418 315.579C222.485 315.413 222.518 315.229 222.518 315.026ZM224.822 313.638V316.555H224.23V313.094H224.806L224.822 313.638ZM225.903 313.075L225.899 313.625C225.85 313.615 225.803 313.608 225.759 313.606C225.716 313.602 225.667 313.6 225.611 313.6C225.475 313.6 225.355 313.621 225.25 313.664C225.146 313.706 225.057 313.766 224.985 313.843C224.912 313.919 224.855 314.011 224.812 314.118C224.771 314.222 224.745 314.337 224.732 314.463L224.566 314.559C224.566 314.35 224.586 314.154 224.626 313.971C224.669 313.787 224.734 313.625 224.822 313.484C224.909 313.342 225.02 313.231 225.154 313.152C225.291 313.071 225.453 313.03 225.64 313.03C225.683 313.03 225.732 313.036 225.787 313.046C225.843 313.055 225.881 313.064 225.903 313.075ZM228.098 316.133C228.238 316.133 228.368 316.104 228.488 316.046C228.607 315.989 228.705 315.91 228.782 315.81C228.859 315.707 228.903 315.591 228.913 315.461H229.476C229.465 315.666 229.396 315.856 229.268 316.033C229.142 316.208 228.977 316.35 228.773 316.459C228.568 316.565 228.343 316.619 228.098 316.619C227.838 316.619 227.611 316.573 227.417 316.481C227.225 316.389 227.065 316.264 226.937 316.104C226.811 315.944 226.716 315.76 226.652 315.554C226.59 315.345 226.559 315.124 226.559 314.892V314.757C226.559 314.525 226.59 314.305 226.652 314.099C226.716 313.89 226.811 313.705 226.937 313.545C227.065 313.385 227.225 313.26 227.417 313.168C227.611 313.076 227.838 313.03 228.098 313.03C228.368 313.03 228.605 313.086 228.808 313.197C229.01 313.305 229.169 313.455 229.284 313.644C229.401 313.832 229.465 314.045 229.476 314.284H228.913C228.903 314.141 228.862 314.012 228.792 313.897C228.723 313.782 228.63 313.69 228.51 313.622C228.393 313.552 228.255 313.516 228.098 313.516C227.916 313.516 227.764 313.553 227.64 313.625C227.519 313.696 227.422 313.792 227.349 313.913C227.279 314.032 227.228 314.166 227.196 314.313C227.166 314.458 227.151 314.606 227.151 314.757V314.892C227.151 315.043 227.166 315.192 227.196 315.339C227.226 315.487 227.276 315.62 227.346 315.739C227.419 315.859 227.516 315.955 227.637 316.027C227.761 316.097 227.914 316.133 228.098 316.133ZM231.905 316.619C231.664 316.619 231.445 316.578 231.249 316.497C231.055 316.414 230.888 316.298 230.747 316.149C230.608 315.999 230.502 315.822 230.427 315.618C230.353 315.413 230.315 315.189 230.315 314.946V314.812C230.315 314.53 230.357 314.28 230.44 314.06C230.523 313.838 230.636 313.651 230.779 313.497C230.922 313.344 231.084 313.228 231.265 313.149C231.446 313.07 231.634 313.03 231.828 313.03C232.075 313.03 232.289 313.073 232.468 313.158C232.649 313.244 232.797 313.363 232.912 313.516C233.027 313.668 233.113 313.847 233.168 314.054C233.223 314.258 233.251 314.482 233.251 314.725V314.991H230.667V314.508H232.659V314.463C232.651 314.31 232.619 314.16 232.564 314.015C232.51 313.87 232.425 313.751 232.308 313.657C232.19 313.563 232.031 313.516 231.828 313.516C231.694 313.516 231.57 313.545 231.457 313.603C231.344 313.658 231.247 313.741 231.166 313.852C231.085 313.963 231.022 314.099 230.977 314.258C230.933 314.418 230.91 314.603 230.91 314.812V314.946C230.91 315.11 230.933 315.265 230.977 315.41C231.024 315.553 231.091 315.678 231.179 315.787C231.268 315.896 231.376 315.981 231.502 316.043C231.63 316.105 231.775 316.136 231.937 316.136C232.146 316.136 232.323 316.093 232.468 316.008C232.613 315.923 232.739 315.808 232.848 315.666L233.206 315.95C233.132 316.063 233.037 316.171 232.922 316.273C232.807 316.376 232.665 316.459 232.496 316.523C232.33 316.587 232.133 316.619 231.905 316.619ZM236.284 315.637C236.284 315.552 236.265 315.473 236.227 315.4C236.19 315.326 236.115 315.258 236 315.199C235.887 315.137 235.716 315.084 235.488 315.039C235.296 314.998 235.122 314.95 234.967 314.895C234.813 314.839 234.682 314.772 234.573 314.693C234.467 314.614 234.385 314.522 234.327 314.415C234.269 314.309 234.241 314.184 234.241 314.041C234.241 313.905 234.27 313.776 234.33 313.654C234.392 313.532 234.478 313.425 234.589 313.331C234.702 313.237 234.838 313.164 234.995 313.11C235.153 313.057 235.329 313.03 235.523 313.03C235.8 313.03 236.037 313.079 236.233 313.177C236.429 313.276 236.58 313.407 236.684 313.571C236.788 313.733 236.841 313.913 236.841 314.111H236.249C236.249 314.015 236.22 313.923 236.163 313.833C236.107 313.741 236.025 313.666 235.916 313.606C235.81 313.546 235.679 313.516 235.523 313.516C235.359 313.516 235.226 313.542 235.123 313.593C235.023 313.642 234.95 313.705 234.903 313.782C234.858 313.859 234.835 313.94 234.835 314.025C234.835 314.089 234.846 314.147 234.867 314.198C234.891 314.247 234.931 314.293 234.989 314.335C235.047 314.376 235.128 314.414 235.232 314.45C235.337 314.487 235.47 314.523 235.632 314.559C235.915 314.623 236.149 314.7 236.332 314.789C236.516 314.879 236.652 314.989 236.742 315.119C236.831 315.249 236.876 315.407 236.876 315.592C236.876 315.743 236.844 315.882 236.78 316.008C236.718 316.134 236.628 316.242 236.508 316.334C236.391 316.424 236.25 316.494 236.086 316.545C235.924 316.594 235.742 316.619 235.539 316.619C235.234 316.619 234.976 316.564 234.765 316.456C234.554 316.347 234.394 316.206 234.285 316.033C234.177 315.861 234.122 315.678 234.122 315.487H234.717C234.726 315.649 234.773 315.778 234.858 315.873C234.943 315.967 235.048 316.034 235.171 316.075C235.295 316.113 235.418 316.133 235.539 316.133C235.701 316.133 235.837 316.111 235.945 316.069C236.056 316.026 236.14 315.967 236.198 315.893C236.255 315.818 236.284 315.733 236.284 315.637Z" fill="black"/>
<mask id="mask5_53380_53763" style="mask-type:alpha" maskUnits="userSpaceOnUse" x="274" y="286" width="21" height="20">
<rect x="274.391" y="286.268" width="19.6492" height="19.6492" fill="white"/>
</mask>
<g mask="url(#mask5_53380_53763)">
<circle cx="284.215" cy="291.999" r="3.68423" fill="white" stroke="black" stroke-width="0.818718"/>
<path d="M290.354 301.005C290.354 301.943 289.745 302.855 288.628 303.552C287.518 304.246 285.958 304.689 284.214 304.689C282.47 304.689 280.91 304.246 279.799 303.552C278.683 302.855 278.073 301.943 278.073 301.005C278.073 300.066 278.683 299.155 279.799 298.457C280.91 297.763 282.47 297.32 284.214 297.32C285.958 297.32 287.518 297.763 288.628 298.457C289.745 299.155 290.354 300.066 290.354 301.005Z" fill="white" stroke="black" stroke-width="0.818718"/>
</g>
<path d="M280.191 311.898H280.789L282.315 315.694L283.837 311.898H284.438L282.545 316.555H282.078L280.191 311.898ZM279.996 311.898H280.524L280.61 314.738V316.555H279.996V311.898ZM284.102 311.898H284.63V316.555H284.016V314.738L284.102 311.898ZM287.388 316.619C287.147 316.619 286.929 316.578 286.732 316.497C286.538 316.414 286.371 316.298 286.23 316.149C286.092 315.999 285.985 315.822 285.91 315.618C285.836 315.413 285.799 315.189 285.799 314.946V314.812C285.799 314.53 285.84 314.28 285.923 314.06C286.006 313.838 286.119 313.651 286.262 313.497C286.405 313.344 286.567 313.228 286.748 313.149C286.93 313.07 287.117 313.03 287.311 313.03C287.559 313.03 287.772 313.073 287.951 313.158C288.132 313.244 288.28 313.363 288.395 313.516C288.511 313.668 288.596 313.847 288.651 314.054C288.707 314.258 288.734 314.482 288.734 314.725V314.991H286.15V314.508H288.143V314.463C288.134 314.31 288.102 314.16 288.047 314.015C287.994 313.87 287.908 313.751 287.791 313.657C287.674 313.563 287.514 313.516 287.311 313.516C287.177 313.516 287.053 313.545 286.94 313.603C286.827 313.658 286.73 313.741 286.649 313.852C286.568 313.963 286.505 314.099 286.461 314.258C286.416 314.418 286.393 314.603 286.393 314.812V314.946C286.393 315.11 286.416 315.265 286.461 315.41C286.507 315.553 286.575 315.678 286.662 315.787C286.752 315.896 286.859 315.981 286.985 316.043C287.113 316.105 287.258 316.136 287.42 316.136C287.629 316.136 287.806 316.093 287.951 316.008C288.096 315.923 288.223 315.808 288.331 315.666L288.69 315.95C288.615 316.063 288.52 316.171 288.405 316.273C288.29 316.376 288.148 316.459 287.98 316.523C287.813 316.587 287.616 316.619 287.388 316.619Z" fill="black"/>
</g>
</g>
<rect x="228.051" y="101.851" width="199.948" height="152.669" rx="6.88968" fill="white"/>
<path d="M246.16 134.213C246.326 134.379 246.341 134.639 246.205 134.822L246.16 134.874L242.127 138.908L246.16 142.942C246.326 143.108 246.341 143.367 246.205 143.55L246.16 143.603C245.994 143.769 245.734 143.784 245.551 143.648L245.499 143.603L241.134 139.239C240.968 139.073 240.953 138.813 241.089 138.63L241.134 138.577L245.499 134.213C245.681 134.031 245.977 134.031 246.16 134.213Z" fill="black"/>
<path d="M254.136 134.93H256.778C257.377 134.93 257.883 135.021 258.295 135.204C258.712 135.387 259.028 135.657 259.243 136.015C259.463 136.369 259.572 136.806 259.572 137.324C259.572 137.69 259.497 138.024 259.348 138.327C259.201 138.627 258.99 138.883 258.712 139.094C258.438 139.303 258.109 139.458 257.726 139.56L257.43 139.675H254.947L254.936 138.815H256.811C257.19 138.815 257.506 138.749 257.758 138.618C258.011 138.483 258.201 138.302 258.328 138.075C258.456 137.849 258.52 137.598 258.52 137.324C258.52 137.018 258.46 136.749 258.339 136.519C258.219 136.289 258.029 136.112 257.769 135.987C257.514 135.86 257.183 135.796 256.778 135.796H255.194V142.908H254.136V134.93ZM258.8 142.908L256.86 139.292L257.961 139.286L259.928 142.842V142.908H258.8ZM263.359 143.018C262.946 143.018 262.571 142.948 262.235 142.81C261.903 142.667 261.616 142.468 261.375 142.212C261.138 141.957 260.955 141.653 260.827 141.303C260.699 140.952 260.635 140.568 260.635 140.152V139.922C260.635 139.44 260.707 139.01 260.849 138.634C260.991 138.254 261.185 137.933 261.43 137.67C261.675 137.407 261.952 137.208 262.263 137.072C262.573 136.937 262.895 136.87 263.227 136.87C263.651 136.87 264.016 136.943 264.323 137.089C264.634 137.235 264.887 137.44 265.085 137.703C265.282 137.962 265.428 138.269 265.523 138.623C265.618 138.974 265.666 139.357 265.666 139.774V140.229H261.238V139.401H264.652V139.325C264.637 139.062 264.582 138.806 264.487 138.557C264.396 138.309 264.25 138.104 264.049 137.944C263.848 137.783 263.574 137.703 263.227 137.703C262.997 137.703 262.785 137.752 262.592 137.851C262.398 137.946 262.232 138.088 262.093 138.278C261.954 138.468 261.846 138.7 261.77 138.974C261.693 139.248 261.654 139.564 261.654 139.922V140.152C261.654 140.433 261.693 140.698 261.77 140.947C261.85 141.191 261.965 141.407 262.115 141.593C262.268 141.779 262.453 141.926 262.668 142.031C262.887 142.137 263.136 142.19 263.413 142.19C263.771 142.19 264.075 142.117 264.323 141.971C264.571 141.825 264.789 141.63 264.975 141.385L265.589 141.873C265.461 142.066 265.298 142.251 265.101 142.426C264.904 142.601 264.661 142.744 264.372 142.853C264.087 142.963 263.75 143.018 263.359 143.018ZM270.301 141.336C270.301 141.189 270.268 141.054 270.203 140.93C270.141 140.802 270.011 140.687 269.814 140.585C269.62 140.479 269.328 140.388 268.937 140.311C268.608 140.241 268.31 140.159 268.044 140.064C267.781 139.969 267.556 139.854 267.37 139.719C267.187 139.584 267.046 139.425 266.948 139.242C266.849 139.06 266.8 138.846 266.8 138.601C266.8 138.367 266.851 138.146 266.953 137.938C267.059 137.73 267.207 137.545 267.397 137.385C267.591 137.224 267.823 137.098 268.093 137.007C268.363 136.915 268.665 136.87 268.997 136.87C269.472 136.87 269.878 136.954 270.214 137.122C270.55 137.29 270.807 137.514 270.986 137.796C271.165 138.073 271.255 138.382 271.255 138.722H270.241C270.241 138.557 270.192 138.398 270.093 138.245C269.998 138.088 269.857 137.958 269.671 137.856C269.489 137.754 269.264 137.703 268.997 137.703C268.716 137.703 268.488 137.746 268.312 137.834C268.141 137.918 268.014 138.026 267.934 138.157C267.857 138.289 267.819 138.428 267.819 138.574C267.819 138.683 267.837 138.782 267.874 138.87C267.914 138.954 267.983 139.032 268.082 139.105C268.181 139.175 268.32 139.241 268.499 139.303C268.678 139.365 268.906 139.427 269.183 139.489C269.669 139.599 270.069 139.73 270.384 139.883C270.698 140.037 270.931 140.225 271.085 140.448C271.238 140.671 271.315 140.941 271.315 141.259C271.315 141.518 271.26 141.756 271.151 141.971C271.045 142.187 270.889 142.373 270.685 142.53C270.484 142.684 270.243 142.804 269.962 142.892C269.684 142.976 269.372 143.018 269.025 143.018C268.502 143.018 268.06 142.925 267.699 142.738C267.337 142.552 267.063 142.311 266.877 142.015C266.69 141.719 266.597 141.407 266.597 141.078H267.616C267.631 141.356 267.711 141.577 267.857 141.741C268.004 141.902 268.183 142.017 268.394 142.086C268.606 142.152 268.816 142.185 269.025 142.185C269.302 142.185 269.534 142.148 269.72 142.075C269.91 142.002 270.055 141.902 270.153 141.774C270.252 141.646 270.301 141.5 270.301 141.336ZM272.378 140.009V139.883C272.378 139.456 272.44 139.06 272.564 138.694C272.689 138.325 272.868 138.006 273.101 137.735C273.335 137.461 273.618 137.25 273.951 137.1C274.283 136.946 274.656 136.87 275.069 136.87C275.485 136.87 275.859 136.946 276.192 137.1C276.528 137.25 276.813 137.461 277.047 137.735C277.284 138.006 277.465 138.325 277.589 138.694C277.713 139.06 277.775 139.456 277.775 139.883V140.009C277.775 140.437 277.713 140.833 277.589 141.199C277.465 141.564 277.284 141.884 277.047 142.157C276.813 142.428 276.53 142.64 276.197 142.793C275.869 142.943 275.496 143.018 275.08 143.018C274.663 143.018 274.289 142.943 273.956 142.793C273.624 142.64 273.339 142.428 273.101 142.157C272.868 141.884 272.689 141.564 272.564 141.199C272.44 140.833 272.378 140.437 272.378 140.009ZM273.392 139.883V140.009C273.392 140.305 273.427 140.585 273.496 140.848C273.565 141.107 273.669 141.337 273.808 141.538C273.951 141.739 274.128 141.898 274.34 142.015C274.552 142.128 274.798 142.185 275.08 142.185C275.357 142.185 275.6 142.128 275.808 142.015C276.02 141.898 276.196 141.739 276.334 141.538C276.473 141.337 276.577 141.107 276.647 140.848C276.72 140.585 276.756 140.305 276.756 140.009V139.883C276.756 139.591 276.72 139.315 276.647 139.056C276.577 138.793 276.471 138.561 276.329 138.36C276.19 138.156 276.015 137.995 275.803 137.878C275.595 137.761 275.35 137.703 275.069 137.703C274.791 137.703 274.546 137.761 274.334 137.878C274.126 137.995 273.951 138.156 273.808 138.36C273.669 138.561 273.565 138.793 273.496 139.056C273.427 139.315 273.392 139.591 273.392 139.883ZM282.674 141.538V136.979H283.693V142.908H282.724L282.674 141.538ZM282.866 140.289L283.288 140.278C283.288 140.673 283.246 141.038 283.162 141.374C283.082 141.706 282.95 141.995 282.767 142.24C282.585 142.484 282.345 142.676 282.05 142.815C281.754 142.95 281.394 143.018 280.97 143.018C280.682 143.018 280.417 142.976 280.176 142.892C279.938 142.808 279.734 142.678 279.562 142.503C279.39 142.327 279.257 142.099 279.162 141.818C279.071 141.536 279.025 141.199 279.025 140.804V136.979H280.039V140.815C280.039 141.082 280.068 141.303 280.126 141.478C280.188 141.65 280.271 141.787 280.373 141.889C280.479 141.988 280.596 142.057 280.724 142.097C280.855 142.137 280.99 142.157 281.129 142.157C281.56 142.157 281.902 142.075 282.154 141.911C282.406 141.743 282.587 141.518 282.696 141.237C282.809 140.952 282.866 140.636 282.866 140.289ZM286.252 137.911V142.908H285.239V136.979H286.225L286.252 137.911ZM288.105 136.946L288.099 137.889C288.015 137.871 287.935 137.86 287.858 137.856C287.785 137.849 287.701 137.845 287.606 137.845C287.372 137.845 287.166 137.882 286.987 137.955C286.808 138.028 286.656 138.13 286.532 138.261C286.408 138.393 286.309 138.55 286.236 138.733C286.167 138.912 286.121 139.109 286.099 139.325L285.814 139.489C285.814 139.131 285.849 138.795 285.918 138.481C285.991 138.167 286.103 137.889 286.252 137.648C286.402 137.403 286.592 137.213 286.822 137.078C287.056 136.939 287.334 136.87 287.655 136.87C287.728 136.87 287.812 136.879 287.907 136.897C288.002 136.912 288.068 136.928 288.105 136.946ZM291.305 142.185C291.546 142.185 291.769 142.136 291.973 142.037C292.178 141.938 292.346 141.803 292.477 141.631C292.609 141.456 292.684 141.257 292.702 141.034H293.666C293.648 141.385 293.529 141.712 293.31 142.015C293.095 142.315 292.812 142.558 292.461 142.744C292.11 142.926 291.725 143.018 291.305 143.018C290.859 143.018 290.47 142.939 290.137 142.782C289.809 142.625 289.535 142.41 289.316 142.136C289.1 141.862 288.937 141.547 288.828 141.193C288.722 140.835 288.669 140.457 288.669 140.059V139.829C288.669 139.43 288.722 139.054 288.828 138.7C288.937 138.342 289.1 138.026 289.316 137.752C289.535 137.478 289.809 137.262 290.137 137.105C290.47 136.948 290.859 136.87 291.305 136.87C291.769 136.87 292.174 136.965 292.521 137.155C292.868 137.341 293.14 137.597 293.338 137.922C293.538 138.243 293.648 138.609 293.666 139.018H292.702C292.684 138.773 292.614 138.552 292.494 138.355C292.377 138.157 292.216 138 292.012 137.883C291.811 137.763 291.575 137.703 291.305 137.703C290.994 137.703 290.733 137.765 290.521 137.889C290.313 138.009 290.147 138.174 290.022 138.382C289.902 138.587 289.814 138.815 289.759 139.067C289.708 139.315 289.683 139.569 289.683 139.829V140.059C289.683 140.318 289.708 140.574 289.759 140.826C289.811 141.078 289.896 141.306 290.017 141.511C290.141 141.715 290.307 141.88 290.516 142.004C290.727 142.125 290.99 142.185 291.305 142.185ZM297.266 143.018C296.854 143.018 296.479 142.948 296.143 142.81C295.811 142.667 295.524 142.468 295.283 142.212C295.045 141.957 294.863 141.653 294.735 141.303C294.607 140.952 294.543 140.568 294.543 140.152V139.922C294.543 139.44 294.614 139.01 294.757 138.634C294.899 138.254 295.093 137.933 295.338 137.67C295.582 137.407 295.86 137.208 296.171 137.072C296.481 136.937 296.803 136.87 297.135 136.87C297.559 136.87 297.924 136.943 298.231 137.089C298.541 137.235 298.795 137.44 298.993 137.703C299.19 137.962 299.336 138.269 299.431 138.623C299.526 138.974 299.573 139.357 299.573 139.774V140.229H295.146V139.401H298.56V139.325C298.545 139.062 298.49 138.806 298.395 138.557C298.304 138.309 298.158 138.104 297.957 137.944C297.756 137.783 297.482 137.703 297.135 137.703C296.905 137.703 296.693 137.752 296.499 137.851C296.306 137.946 296.139 138.088 296.001 138.278C295.862 138.468 295.754 138.7 295.677 138.974C295.601 139.248 295.562 139.564 295.562 139.922V140.152C295.562 140.433 295.601 140.698 295.677 140.947C295.758 141.191 295.873 141.407 296.023 141.593C296.176 141.779 296.36 141.926 296.576 142.031C296.795 142.137 297.044 142.19 297.321 142.19C297.679 142.19 297.982 142.117 298.231 141.971C298.479 141.825 298.697 141.63 298.883 141.385L299.497 141.873C299.369 142.066 299.206 142.251 299.009 142.426C298.812 142.601 298.569 142.744 298.28 142.853C297.995 142.963 297.657 143.018 297.266 143.018ZM304.209 141.336C304.209 141.189 304.176 141.054 304.11 140.93C304.048 140.802 303.919 140.687 303.721 140.585C303.528 140.479 303.236 140.388 302.845 140.311C302.516 140.241 302.218 140.159 301.952 140.064C301.688 139.969 301.464 139.854 301.278 139.719C301.095 139.584 300.954 139.425 300.856 139.242C300.757 139.06 300.708 138.846 300.708 138.601C300.708 138.367 300.759 138.146 300.861 137.938C300.967 137.73 301.115 137.545 301.305 137.385C301.499 137.224 301.731 137.098 302.001 137.007C302.271 136.915 302.573 136.87 302.905 136.87C303.38 136.87 303.785 136.954 304.121 137.122C304.458 137.29 304.715 137.514 304.894 137.796C305.073 138.073 305.163 138.382 305.163 138.722H304.149C304.149 138.557 304.1 138.398 304.001 138.245C303.906 138.088 303.765 137.958 303.579 137.856C303.396 137.754 303.172 137.703 302.905 137.703C302.624 137.703 302.395 137.746 302.22 137.834C302.048 137.918 301.922 138.026 301.842 138.157C301.765 138.289 301.727 138.428 301.727 138.574C301.727 138.683 301.745 138.782 301.782 138.87C301.822 138.954 301.891 139.032 301.99 139.105C302.089 139.175 302.227 139.241 302.406 139.303C302.585 139.365 302.814 139.427 303.091 139.489C303.577 139.599 303.977 139.73 304.291 139.883C304.605 140.037 304.839 140.225 304.993 140.448C305.146 140.671 305.223 140.941 305.223 141.259C305.223 141.518 305.168 141.756 305.058 141.971C304.953 142.187 304.797 142.373 304.593 142.53C304.392 142.684 304.151 142.804 303.869 142.892C303.592 142.976 303.279 143.018 302.932 143.018C302.41 143.018 301.968 142.925 301.606 142.738C301.245 142.552 300.971 142.311 300.784 142.015C300.598 141.719 300.505 141.407 300.505 141.078H301.524C301.539 141.356 301.619 141.577 301.765 141.741C301.911 141.902 302.09 142.017 302.302 142.086C302.514 142.152 302.724 142.185 302.932 142.185C303.21 142.185 303.442 142.148 303.628 142.075C303.818 142.002 303.963 141.902 304.061 141.774C304.16 141.646 304.209 141.5 304.209 141.336Z" fill="black"/>
<g filter="url(#filter1_d_53380_53763)">
<rect x="26.1094" y="247.036" width="379.705" height="54" rx="6.01928" fill="white"/>
<rect x="32.1016" y="253.028" width="41.9414" height="41.9414" rx="20.9707" fill="#E3F0FF"/>
<path d="M59.0642 268.007H47.081C46.8824 268.007 46.6919 268.086 46.5514 268.226C46.4109 268.367 46.332 268.557 46.332 268.756V271.003C46.332 271.201 46.4109 271.392 46.5514 271.532C46.6919 271.673 46.8824 271.752 47.081 271.752C47.2796 271.752 47.4701 271.673 47.6106 271.532C47.751 271.392 47.8299 271.201 47.8299 271.003V269.505H52.3237V279.241H50.8258C50.6271 279.241 50.4366 279.32 50.2962 279.461C50.1557 279.601 50.0768 279.791 50.0768 279.99C50.0768 280.189 50.1557 280.379 50.2962 280.52C50.4366 280.66 50.6271 280.739 50.8258 280.739H55.3195C55.5181 280.739 55.7086 280.66 55.8491 280.52C55.9895 280.379 56.0684 280.189 56.0684 279.99C56.0684 279.791 55.9895 279.601 55.8491 279.461C55.7086 279.32 55.5181 279.241 55.3195 279.241H53.8216V269.505H58.3153V271.003C58.3153 271.201 58.3942 271.392 58.5347 271.532C58.6751 271.673 58.8656 271.752 59.0642 271.752C59.2629 271.752 59.4534 271.673 59.5938 271.532C59.7343 271.392 59.8132 271.201 59.8132 271.003V268.756C59.8132 268.557 59.7343 268.367 59.5938 268.226C59.4534 268.086 59.2629 268.007 59.0642 268.007Z" fill="black"/>
<rect x="86.0273" y="253.028" width="41.9414" height="41.9414" rx="20.9707" fill="#E3F0FF"/>
<path fill-rule="evenodd" clip-rule="evenodd" d="M103.398 268.629C103.699 268.082 104.026 267.716 104.512 267.523C105.403 267.169 108.592 267.169 109.482 267.523C109.968 267.716 110.295 268.082 110.596 268.629L110.935 269.278C110.943 269.291 110.95 269.303 110.956 269.312L110.985 269.352C111.14 269.52 111.398 269.621 111.568 269.621C113.18 269.621 114.487 270.928 114.487 272.539V276.88C114.487 278.935 112.82 280.602 110.765 280.602H103.23C101.174 280.602 99.5078 278.935 99.5078 276.88V272.539C99.5078 270.928 100.815 269.621 102.426 269.621C102.596 269.621 102.855 269.52 103.01 269.352C103.013 269.348 103.017 269.343 103.021 269.337L103.06 269.278L103.398 268.629ZM109.612 269.171C109.425 268.831 109.256 268.642 109.066 268.567L108.977 268.537C108.206 268.319 105.525 268.329 104.928 268.567C104.738 268.642 104.569 268.831 104.382 269.171L104.094 269.728L104.023 269.856C103.964 269.955 103.904 270.038 103.837 270.112C103.457 270.524 102.896 270.745 102.426 270.745L102.304 270.749C101.37 270.812 100.631 271.59 100.631 272.539V276.88C100.631 278.315 101.795 279.478 103.23 279.478H110.765C112.199 279.478 113.363 278.314 113.363 276.88V272.539C113.363 271.549 112.56 270.745 111.568 270.745L111.438 270.739C110.997 270.703 110.502 270.487 110.158 270.111C110.091 270.039 110.032 269.956 109.973 269.858C109.965 269.844 109.954 269.826 109.942 269.804L109.855 269.641L109.612 269.171Z" fill="black"/>
<path d="M111.119 271.377C111.533 271.377 111.868 271.712 111.868 272.126C111.868 272.51 111.579 272.827 111.206 272.87L111.119 272.875C110.699 272.875 110.363 272.54 110.363 272.126C110.363 271.742 110.652 271.425 111.025 271.382L111.119 271.377Z" fill="black"/>
<path fill-rule="evenodd" clip-rule="evenodd" d="M104.055 274.843C104.055 273.218 105.372 271.9 106.997 271.9C108.623 271.9 109.94 273.218 109.94 274.843C109.94 276.468 108.623 277.786 106.997 277.786C105.372 277.786 104.055 276.468 104.055 274.843ZM108.817 274.843C108.817 273.838 108.002 273.024 106.997 273.024C105.992 273.024 105.178 273.838 105.178 274.843C105.178 275.848 105.992 276.662 106.997 276.662C108.002 276.662 108.817 275.848 108.817 274.843Z" fill="black"/>
<rect x="139.949" y="253.028" width="41.9414" height="41.9414" rx="20.9707" fill="#E3F0FF"/>
<mask id="mask6_53380_53763" style="mask-type:luminance" maskUnits="userSpaceOnUse" x="153" y="266" width="16" height="16">
<path fill-rule="evenodd" clip-rule="evenodd" d="M153.434 266.509H168.382V281.451H153.434V266.509Z" fill="white"/>
</mask>
<g mask="url(#mask6_53380_53763)">
<path fill-rule="evenodd" clip-rule="evenodd" d="M157.665 267.633C155.777 267.633 154.557 268.926 154.557 270.927V277.033C154.557 279.035 155.777 280.327 157.665 280.327H164.144C166.036 280.327 167.259 279.035 167.259 277.033V270.927C167.259 268.926 166.036 267.633 164.144 267.633H157.665ZM164.144 281.451H157.665C155.134 281.451 153.434 279.675 153.434 277.033V270.927C153.434 268.285 155.134 266.509 157.665 266.509H164.144C166.679 266.509 168.383 268.285 168.383 270.927V277.033C168.383 279.675 166.679 281.451 164.144 281.451Z" fill="black"/>
</g>
<path fill-rule="evenodd" clip-rule="evenodd" d="M155.89 277.878C155.751 277.878 155.612 277.827 155.503 277.724C155.278 277.511 155.269 277.155 155.482 276.931L156.627 275.723C157.233 275.079 158.255 275.048 158.901 275.655L159.619 276.383C159.819 276.585 160.144 276.589 160.345 276.391C160.42 276.302 162.051 274.321 162.051 274.321C162.362 273.945 162.799 273.713 163.285 273.665C163.772 273.622 164.244 273.764 164.621 274.073C164.653 274.099 164.683 274.125 166.327 275.813C166.544 276.035 166.54 276.391 166.318 276.607C166.096 276.825 165.739 276.819 165.523 276.597C165.523 276.597 163.988 275.022 163.879 274.915C163.763 274.82 163.576 274.765 163.393 274.783C163.206 274.802 163.039 274.891 162.92 275.035C161.179 277.147 161.158 277.167 161.13 277.194C160.487 277.825 159.45 277.815 158.818 277.171C158.818 277.171 158.122 276.464 158.11 276.449C157.937 276.289 157.628 276.299 157.443 276.495L156.297 277.703C156.186 277.82 156.038 277.878 155.89 277.878Z" fill="black"/>
<path fill-rule="evenodd" clip-rule="evenodd" d="M158.339 271.1C157.925 271.1 157.588 271.437 157.588 271.851C157.588 272.266 157.925 272.604 158.34 272.604C158.755 272.604 159.093 272.266 159.093 271.851C159.093 271.437 158.755 271.1 158.339 271.1ZM158.34 273.728C157.306 273.728 156.465 272.886 156.465 271.851C156.465 270.817 157.306 269.976 158.34 269.976C159.375 269.977 160.216 270.819 160.216 271.851C160.216 272.886 159.375 273.728 158.34 273.728Z" fill="black"/>
<rect x="193.875" y="253.028" width="41.9414" height="41.9414" rx="20.9707" fill="#E3F0FF"/>
<path d="M220.296 270.235L216.364 266.303C216.315 266.248 216.254 266.205 216.186 266.176C216.118 266.146 216.045 266.132 215.971 266.134H210.354C210.056 266.135 209.771 266.254 209.56 266.465C209.35 266.675 209.231 266.96 209.23 267.258V280.739C209.231 281.037 209.35 281.322 209.56 281.532C209.771 281.743 210.056 281.862 210.354 281.863H219.341C219.639 281.862 219.924 281.743 220.135 281.532C220.345 281.322 220.464 281.037 220.465 280.739V270.628C220.467 270.554 220.453 270.481 220.424 270.413C220.395 270.345 220.351 270.284 220.296 270.235ZM215.971 267.483L219.117 270.628H215.971V267.483ZM219.341 280.739H210.354V267.258H214.848V270.628C214.849 270.926 214.967 271.211 215.178 271.422C215.388 271.632 215.673 271.751 215.971 271.752H219.341V280.739Z" fill="black"/>
<rect x="247.801" y="253.028" width="41.9414" height="41.9414" rx="20.9707" fill="#E3F0FF"/>
<path d="M269.865 276.691C269.839 276.665 269.803 276.65 269.766 276.65C269.729 276.65 269.693 276.665 269.667 276.691L267.627 278.731C266.682 279.675 265.089 279.775 264.046 278.731C263.001 277.686 263.102 276.094 264.046 275.15L266.086 273.11C266.14 273.056 266.14 272.966 266.086 272.912L265.387 272.213C265.361 272.187 265.325 272.172 265.288 272.172C265.251 272.172 265.215 272.187 265.189 272.213L263.149 274.253C261.664 275.738 261.664 278.141 263.149 279.624C264.634 281.108 267.037 281.109 268.52 279.624L270.56 277.585C270.614 277.53 270.614 277.441 270.56 277.386L269.865 276.691ZM274.404 268.371C272.919 266.886 270.516 266.886 269.033 268.371L266.991 270.41C266.965 270.437 266.951 270.472 266.951 270.51C266.951 270.547 266.965 270.582 266.991 270.609L267.688 271.306C267.743 271.36 267.832 271.36 267.887 271.306L269.926 269.266C270.871 268.321 272.465 268.221 273.507 269.266C274.552 270.31 274.452 271.902 273.507 272.847L271.468 274.887C271.441 274.913 271.427 274.949 271.427 274.986C271.427 275.023 271.441 275.058 271.468 275.085L272.166 275.784C272.221 275.838 272.31 275.838 272.365 275.784L274.404 273.744C275.888 272.259 275.888 269.856 274.404 268.371ZM270.499 271.546C270.472 271.52 270.437 271.505 270.399 271.505C270.362 271.505 270.327 271.52 270.3 271.546L266.324 275.52C266.298 275.547 266.284 275.582 266.284 275.619C266.284 275.657 266.298 275.692 266.324 275.719L267.02 276.414C267.074 276.468 267.163 276.468 267.218 276.414L271.192 272.44C271.246 272.385 271.246 272.296 271.192 272.241L270.499 271.546Z" fill="black"/>
<rect x="301.723" y="253.028" width="41.9414" height="41.9414" rx="20.9707" fill="#E3F0FF"/>
<path fill-rule="evenodd" clip-rule="evenodd" d="M322.88 267.633C319.266 267.633 316.327 270.572 316.327 274.186C316.327 277.8 319.266 280.739 322.88 280.739C326.494 280.739 329.433 277.8 329.433 274.186C329.433 270.572 326.494 267.633 322.88 267.633ZM322.88 281.863C318.647 281.863 315.203 278.419 315.203 274.186C315.203 269.953 318.647 266.509 322.88 266.509C327.113 266.509 330.557 269.953 330.557 274.186C330.557 278.419 327.113 281.863 322.88 281.863Z" fill="black"/>
<path fill-rule="evenodd" clip-rule="evenodd" d="M322.044 272.565C321.912 273.315 321.909 275.106 322.042 275.817C322.7 275.585 324.124 274.649 324.508 274.185C324.126 273.735 322.719 272.819 322.044 272.565ZM321.815 276.995C321.613 276.995 321.421 276.938 321.264 276.782C321.144 276.663 320.822 276.345 320.82 274.248C320.82 272.022 321.154 271.691 321.264 271.581C321.656 271.193 322.294 271.459 322.566 271.573C322.956 271.736 325.689 273.135 325.689 274.182C325.689 275.164 323.229 276.536 322.601 276.798C322.356 276.9 322.076 276.995 321.815 276.995Z" fill="black"/>
<rect x="355.648" y="253.028" width="41.9414" height="41.9414" rx="20.9707" fill="#E3F0FF"/>
<path fill-rule="evenodd" clip-rule="evenodd" d="M376.433 281.863C376.123 281.863 375.871 281.611 375.871 281.301V278.934C375.871 278.624 376.123 278.372 376.433 278.372C376.743 278.372 376.995 278.624 376.995 278.934V281.301C376.995 281.611 376.743 281.863 376.433 281.863Z" fill="black"/>
<path fill-rule="evenodd" clip-rule="evenodd" d="M376.432 266.884C375.065 266.884 373.952 268.003 373.952 269.379V272.89C373.952 274.264 375.065 275.384 376.432 275.384C377.8 275.384 378.913 274.264 378.913 272.89V269.379C378.913 268.003 377.8 266.884 376.432 266.884ZM376.432 276.507C374.445 276.507 372.828 274.884 372.828 272.89V269.378C372.828 267.383 374.445 265.76 376.432 265.76C378.419 265.76 380.036 267.383 380.036 269.378V272.89C380.036 274.884 378.419 276.507 376.432 276.507Z" fill="black"/>
<mask id="mask7_53380_53763" style="mask-type:luminance" maskUnits="userSpaceOnUse" x="369" y="272" width="14" height="8">
<path fill-rule="evenodd" clip-rule="evenodd" d="M369.879 272.352H382.985V279.495H369.879V272.352Z" fill="white"/>
</mask>
<g mask="url(#mask7_53380_53763)">
<path fill-rule="evenodd" clip-rule="evenodd" d="M376.432 279.495C372.819 279.495 369.879 276.543 369.879 272.913C369.879 272.603 370.131 272.352 370.441 272.352C370.751 272.352 371.002 272.603 371.002 272.913C371.002 275.923 373.438 278.372 376.432 278.372C379.427 278.372 381.862 275.923 381.862 272.913C381.862 272.603 382.114 272.352 382.424 272.352C382.735 272.352 382.986 272.603 382.986 272.913C382.986 276.543 380.046 279.495 376.432 279.495Z" fill="black"/>
</g>
</g>
<defs>
<filter id="filter0_d_53380_53763" x="0" y="0.785156" width="328.918" height="351" filterUnits="userSpaceOnUse" color-interpolation-filters="sRGB">
<feFlood flood-opacity="0" result="BackgroundImageFix"/>
<feColorMatrix in="SourceAlpha" type="matrix" values="0 0 0 0 0 0 0 0 0 0 0 0 0 0 0 0 0 0 127 0" result="hardAlpha"/>
<feOffset dy="12"/>
<feGaussianBlur stdDeviation="7.5"/>
<feColorMatrix type="matrix" values="0 0 0 0 0.25098 0 0 0 0 0.482353 0 0 0 0 1 0 0 0 0.08 0"/>
<feBlend mode="normal" in2="BackgroundImageFix" result="effect1_dropShadow_53380_53763"/>
<feBlend mode="normal" in="SourceGraphic" in2="effect1_dropShadow_53380_53763" result="shape"/>
</filter>
<filter id="filter1_d_53380_53763" x="11.1094" y="244.036" width="409.703" height="84" filterUnits="userSpaceOnUse" color-interpolation-filters="sRGB">
<feFlood flood-opacity="0" result="BackgroundImageFix"/>
<feColorMatrix in="SourceAlpha" type="matrix" values="0 0 0 0 0 0 0 0 0 0 0 0 0 0 0 0 0 0 127 0" result="hardAlpha"/>
<feOffset dy="12"/>
<feGaussianBlur stdDeviation="7.5"/>
<feColorMatrix type="matrix" values="0 0 0 0 0.25098 0 0 0 0 0.482353 0 0 0 0 1 0 0 0 0.08 0"/>
<feBlend mode="normal" in2="BackgroundImageFix" result="effect1_dropShadow_53380_53763"/>
<feBlend mode="normal" in="SourceGraphic" in2="effect1_dropShadow_53380_53763" result="shape"/>
</filter>
<clipPath id="clip0_53380_53763">
<rect x="15" y="3.78516" width="298.917" height="321" rx="9.04745" fill="white"/>
</clipPath>
</defs>
</svg>
