<svg width="176" height="12" viewBox="0 0 176 12" fill="none" xmlns="http://www.w3.org/2000/svg">
<path d="M9.10507 1.21204L8.28104 2.96358C7.00248 2.18758 5.72393 1.86979 4.82968 1.86979C3.66937 1.86979 2.91185 2.30952 2.91185 3.1003C2.91185 5.67588 9.27506 4.29387 9.26027 8.53601C9.26027 10.6386 7.40896 11.9356 4.8149 11.9356C2.96358 11.9356 1.21204 11.1781 0 10.0658L0.857296 8.34755C2.06934 9.45982 3.58438 10.0658 4.84816 10.0658C6.23018 10.0658 7.05422 9.54481 7.05422 8.63578C7.05422 6.00846 0.69101 7.47547 0.69101 3.28138C0.69101 1.26008 2.42408 0 4.98488 0C6.51101 0 8.01128 0.487771 9.10507 1.21204Z" fill="#0054B4"/>
<path d="M18.2751 1.86976V5.05137H24.0323V6.83616H18.2751V10.0843H24.9081V11.8691H16.2871V0.0849609H24.7049V1.86976H18.2751Z" fill="#0054B4"/>
<path d="M41.7383 1.85127L40.578 3.2998C39.7207 2.37229 38.4901 1.80323 37.2966 1.80323C34.939 1.80323 33.0877 3.62128 33.0877 5.94559C33.0877 8.2699 34.939 10.1027 37.2966 10.1027C38.4754 10.1027 39.6874 9.56323 40.578 8.70593L41.7567 10.0177C40.5632 11.1965 38.8597 11.9541 37.1931 11.9541C33.7418 11.9541 31.0664 9.34521 31.0664 5.96037C31.0664 2.60879 33.775 0.0332031 37.2596 0.0332031C38.9299 0.0332031 40.5964 0.724218 41.7383 1.85127Z" fill="#0054B4"/>
<path d="M59.7477 5.97516C59.7477 9.34152 57.0206 11.9504 53.5028 11.9504C49.9849 11.9504 47.2578 9.34152 47.2578 5.97516C47.2578 2.59032 49.9849 0.0332031 53.5028 0.0332031C57.0206 0.0332031 59.7477 2.60879 59.7477 5.97516ZM49.2754 5.97516C49.2754 8.31424 51.2117 10.1656 53.5175 10.1656C55.8234 10.1656 57.708 8.31424 57.708 5.97516C57.708 3.63607 55.8234 1.81801 53.5175 1.81801C51.1969 1.81801 49.2754 3.63607 49.2754 5.97516Z" fill="#0054B4"/>
<path d="M74.8444 11.8691L68.5662 3.41806V11.8691H66.5781V0.0849609H68.5292L74.8407 8.55075V0.0849609H76.7918V11.8691H74.8444Z" fill="#0054B4"/>
<path d="M89.4545 0.0847535C92.9908 0.0847535 95.5479 2.56057 95.5479 5.97497C95.5479 9.37459 92.9723 11.8652 89.4027 11.8652H84.6211V0.0810547H89.4545V0.0847535ZM86.6091 10.0841H89.5062C91.7936 10.0841 93.5451 8.38426 93.5451 5.99344C93.5451 3.58414 91.7455 1.86955 89.4212 1.86955H86.6091V10.0841Z" fill="#0054B4"/>
<path d="M113.033 8.65423C113.033 10.6903 111.418 11.8691 108.318 11.8691H102.225V0.0849609H107.982C110.927 0.0849609 112.442 1.31547 112.442 3.14831C112.442 4.32709 111.836 5.23613 110.875 5.74237C112.191 6.15994 113.033 7.17243 113.033 8.65423ZM104.937 2.13951V4.91833H107.646C108.976 4.91833 109.7 4.44534 109.7 3.52153C109.7 2.59772 108.976 2.1432 107.646 2.1432H104.937V2.13951ZM110.288 8.36599C110.288 7.37197 109.53 6.90267 108.115 6.90267H104.933V9.81453H108.115C109.534 9.81453 110.288 9.37848 110.288 8.36599Z" fill="#29ABE2"/>
<path d="M127.323 11.8691L125.051 8.5877H124.918H122.545V11.8691H119.818V0.0849609H124.918C128.066 0.0849609 130.036 1.71825 130.036 4.36035C130.036 6.12667 129.145 7.4237 127.612 8.08146L130.254 11.8691H127.323ZM124.763 2.30579H122.542V6.4149H124.763C126.429 6.4149 127.272 5.6389 127.272 4.36035C127.272 3.06332 126.429 2.30579 124.763 2.30579Z" fill="#29ABE2"/>
<path d="M144.656 9.34133H139.183L138.137 11.8652H135.344L140.595 0.0810547H143.289L148.558 11.8652H145.694L144.656 9.34133ZM143.798 7.27199L141.929 2.7601L140.059 7.27199H143.798Z" fill="#29ABE2"/>
<path d="M154.5 0.0849609H157.227V11.8691H154.5V0.0849609Z" fill="#29ABE2"/>
<path d="M175.543 0.0849609V11.8691H173.304L167.428 4.7151V11.8691H164.734V0.0849609H166.992L172.849 7.23894V0.0849609H175.543Z" fill="#29ABE2"/>
</svg>
