<svg width="351" height="221" viewBox="0 0 351 221" fill="none" xmlns="http://www.w3.org/2000/svg">
<g filter="url(#filter0_d_53364_48558)">
<g clip-path="url(#clip0_53364_48558)">
<rect x="15" y="3.70605" width="175.677" height="189.963" rx="5.35106" fill="white"/>
<rect x="24.6875" y="57.4541" width="154.952" height="72.6339" rx="2.42113" fill="#59A7FF"/>
<path d="M69.6491 82.7409L66.9139 90.271H65.796L68.9454 82.0089H69.6661L69.6491 82.7409ZM71.9416 90.271L69.2008 82.7409L69.1837 82.0089H69.9044L73.0651 90.271H71.9416ZM71.7997 87.2124V88.109H67.1579V87.2124H71.7997ZM77.8828 89.0793V81.5549H78.9382V90.271H77.9736L77.8828 89.0793ZM73.7517 87.2692V87.15C73.7517 86.6809 73.8085 86.2553 73.922 85.8732C74.0392 85.4874 74.2038 85.1564 74.4156 84.8802C74.6313 84.604 74.8866 84.3922 75.1817 84.2447C75.4806 84.0933 75.8135 84.0177 76.1804 84.0177C76.5663 84.0177 76.903 84.0858 77.1905 84.222C77.4818 84.3544 77.7277 84.5492 77.9282 84.8064C78.1325 85.0599 78.2932 85.3663 78.4105 85.7257C78.5278 86.0851 78.6091 86.4918 78.6545 86.9457V87.4678C78.6129 87.918 78.5316 88.3227 78.4105 88.6821C78.2932 89.0415 78.1325 89.3479 77.9282 89.6014C77.7277 89.8549 77.4818 90.0497 77.1905 90.1859C76.8992 90.3183 76.5587 90.3845 76.1691 90.3845C75.8097 90.3845 75.4806 90.3069 75.1817 90.1518C74.8866 89.9967 74.6313 89.7792 74.4156 89.4993C74.2038 89.2193 74.0392 88.8902 73.922 88.5119C73.8085 88.1298 73.7517 87.7156 73.7517 87.2692ZM74.8072 87.15V87.2692C74.8072 87.5756 74.8375 87.8631 74.898 88.1317C74.9623 88.4003 75.0607 88.6367 75.1931 88.841C75.3255 89.0453 75.4938 89.2061 75.6981 89.3234C75.9024 89.4368 76.1464 89.4936 76.4301 89.4936C76.7781 89.4936 77.0638 89.4198 77.287 89.2723C77.5139 89.1247 77.6955 88.9299 77.8317 88.6878C77.9679 88.4457 78.0738 88.1828 78.1495 87.899V86.5315C78.1041 86.3234 78.0379 86.1229 77.9509 85.93C77.8676 85.7333 77.7579 85.5593 77.6218 85.4079C77.4893 85.2528 77.3248 85.1299 77.1281 85.0391C76.9351 84.9483 76.7063 84.9029 76.4415 84.9029C76.1539 84.9029 75.9062 84.9634 75.6981 85.0845C75.4938 85.2018 75.3255 85.3644 75.1931 85.5725C75.0607 85.7768 74.9623 86.0151 74.898 86.2875C74.8375 86.5561 74.8072 86.8436 74.8072 87.15ZM84.4425 89.0793V81.5549H85.498V90.271H84.5333L84.4425 89.0793ZM80.3115 87.2692V87.15C80.3115 86.6809 80.3682 86.2553 80.4817 85.8732C80.599 85.4874 80.7635 85.1564 80.9754 84.8802C81.191 84.604 81.4464 84.3922 81.7415 84.2447C82.0403 84.0933 82.3732 84.0177 82.7402 84.0177C83.126 84.0177 83.4627 84.0858 83.7502 84.222C84.0415 84.3544 84.2874 84.5492 84.4879 84.8064C84.6922 85.0599 84.853 85.3663 84.9703 85.7257C85.0875 86.0851 85.1689 86.4918 85.2143 86.9457V87.4678C85.1727 87.918 85.0913 88.3227 84.9703 88.6821C84.853 89.0415 84.6922 89.3479 84.4879 89.6014C84.2874 89.8549 84.0415 90.0497 83.7502 90.1859C83.4589 90.3183 83.1185 90.3845 82.7288 90.3845C82.3694 90.3845 82.0403 90.3069 81.7415 90.1518C81.4464 89.9967 81.191 89.7792 80.9754 89.4993C80.7635 89.2193 80.599 88.8902 80.4817 88.5119C80.3682 88.1298 80.3115 87.7156 80.3115 87.2692ZM81.3669 87.15V87.2692C81.3669 87.5756 81.3972 87.8631 81.4577 88.1317C81.522 88.4003 81.6204 88.6367 81.7528 88.841C81.8852 89.0453 82.0536 89.2061 82.2578 89.3234C82.4621 89.4368 82.7061 89.4936 82.9899 89.4936C83.3379 89.4936 83.6235 89.4198 83.8467 89.2723C84.0737 89.1247 84.2553 88.9299 84.3915 88.6878C84.5276 88.4457 84.6336 88.1828 84.7092 87.899V86.5315C84.6638 86.3234 84.5976 86.1229 84.5106 85.93C84.4274 85.7333 84.3177 85.5593 84.1815 85.4079C84.0491 85.2528 83.8845 85.1299 83.6878 85.0391C83.4949 84.9483 83.266 84.9029 83.0012 84.9029C82.7137 84.9029 82.4659 84.9634 82.2578 85.0845C82.0536 85.2018 81.8852 85.3644 81.7528 85.5725C81.6204 85.7768 81.522 86.0151 81.4577 86.2875C81.3972 86.5561 81.3669 86.8436 81.3669 87.15ZM91.5697 89.1815L93.1472 84.1312H93.8395L93.7033 85.1356L92.0975 90.271H91.4222L91.5697 89.1815ZM90.5086 84.1312L91.8535 89.2382L91.9499 90.271H91.2406L89.4588 84.1312H90.5086ZM95.349 89.1985L96.6314 84.1312H97.6755L95.8937 90.271H95.1901L95.349 89.1985ZM93.9927 84.1312L95.5362 89.0964L95.7121 90.271H95.0425L93.3912 85.1242L93.2551 84.1312H93.9927ZM99.8035 81.5549V90.271H98.7537V81.5549H99.8035ZM99.5538 86.9684L99.1168 86.9514C99.1206 86.5315 99.183 86.1437 99.3041 85.7881C99.4252 85.4287 99.5954 85.1166 99.8148 84.8518C100.034 84.587 100.295 84.3827 100.598 84.239C100.904 84.0914 101.243 84.0177 101.614 84.0177C101.916 84.0177 102.189 84.0593 102.431 84.1425C102.673 84.222 102.879 84.3506 103.049 84.5284C103.223 84.7062 103.356 84.9369 103.447 85.2207C103.537 85.5006 103.583 85.843 103.583 86.2478V90.271H102.527V86.2364C102.527 85.9149 102.48 85.6576 102.385 85.4647C102.291 85.268 102.153 85.1261 101.971 85.0391C101.79 84.9483 101.566 84.9029 101.302 84.9029C101.041 84.9029 100.802 84.9578 100.587 85.0675C100.375 85.1772 100.191 85.3285 100.036 85.5214C99.8848 85.7144 99.7656 85.9357 99.6786 86.1853C99.5954 86.4312 99.5538 86.6923 99.5538 86.9684ZM108.775 89.2212V86.0605C108.775 85.8184 108.726 85.6084 108.627 85.4306C108.533 85.249 108.389 85.1091 108.196 85.0107C108.003 84.9124 107.765 84.8632 107.481 84.8632C107.216 84.8632 106.984 84.9086 106.783 84.9994C106.586 85.0902 106.431 85.2093 106.318 85.3569C106.208 85.5044 106.153 85.6633 106.153 85.8335H105.103C105.103 85.6141 105.16 85.3966 105.274 85.1809C105.387 84.9653 105.55 84.7705 105.762 84.5965C105.977 84.4187 106.235 84.2787 106.533 84.1766C106.836 84.0706 107.173 84.0177 107.544 84.0177C107.99 84.0177 108.383 84.0933 108.724 84.2447C109.068 84.396 109.337 84.6248 109.53 84.9313C109.726 85.2339 109.825 85.6141 109.825 86.0718V88.9318C109.825 89.1361 109.842 89.3536 109.876 89.5844C109.914 89.8151 109.968 90.0138 110.04 90.1802V90.271H108.945C108.892 90.1499 108.851 89.9892 108.82 89.7887C108.79 89.5844 108.775 89.3952 108.775 89.2212ZM108.956 86.5485L108.968 87.2862H107.907C107.608 87.2862 107.341 87.3108 107.107 87.36C106.872 87.4054 106.675 87.4753 106.516 87.5699C106.358 87.6645 106.236 87.7837 106.153 87.9274C106.07 88.0674 106.028 88.232 106.028 88.4211C106.028 88.614 106.072 88.7899 106.159 88.9488C106.246 89.1077 106.376 89.2345 106.55 89.329C106.728 89.4198 106.946 89.4652 107.203 89.4652C107.525 89.4652 107.808 89.3971 108.054 89.2609C108.3 89.1247 108.495 88.9583 108.639 88.7616C108.786 88.5649 108.866 88.3738 108.877 88.1884L109.325 88.6935C109.299 88.8524 109.227 89.0283 109.11 89.2212C108.992 89.4141 108.835 89.5995 108.639 89.7773C108.446 89.9513 108.215 90.097 107.946 90.2143C107.682 90.3277 107.383 90.3845 107.05 90.3845C106.634 90.3845 106.269 90.3032 105.955 90.1405C105.644 89.9778 105.402 89.7603 105.228 89.4879C105.058 89.2118 104.973 88.9034 104.973 88.563C104.973 88.2338 105.037 87.9444 105.166 87.6948C105.295 87.4413 105.48 87.2313 105.722 87.0649C105.964 86.8947 106.255 86.766 106.596 86.679C106.936 86.592 107.317 86.5485 107.736 86.5485H108.956ZM114.047 84.1312V84.9369H110.727V84.1312H114.047ZM111.85 82.6388H112.9V88.7502C112.9 88.9583 112.932 89.1153 112.997 89.2212C113.061 89.3271 113.144 89.3971 113.246 89.4312C113.349 89.4652 113.458 89.4822 113.576 89.4822C113.663 89.4822 113.753 89.4747 113.848 89.4595C113.946 89.4406 114.02 89.4255 114.069 89.4141L114.075 90.271C113.992 90.2975 113.882 90.3221 113.746 90.3448C113.613 90.3712 113.453 90.3845 113.263 90.3845C113.006 90.3845 112.77 90.3334 112.554 90.2313C112.338 90.1291 112.166 89.9589 112.038 89.7206C111.913 89.4785 111.85 89.1531 111.85 88.7445V82.6388ZM119.886 89.6354L121.594 84.1312H122.717L120.254 91.2186C120.198 91.37 120.122 91.5326 120.027 91.7067C119.937 91.8845 119.819 92.0528 119.676 92.2117C119.532 92.3706 119.358 92.4992 119.154 92.5976C118.953 92.6997 118.713 92.7508 118.433 92.7508C118.35 92.7508 118.244 92.7394 118.115 92.7167C117.987 92.694 117.896 92.6751 117.843 92.66L117.837 91.8088C117.867 91.8126 117.915 91.8164 117.979 91.8201C118.047 91.8277 118.094 91.8315 118.121 91.8315C118.359 91.8315 118.562 91.7993 118.728 91.735C118.894 91.6745 119.034 91.5705 119.148 91.4229C119.265 91.2792 119.365 91.0806 119.449 90.8271L119.886 89.6354ZM118.632 84.1312L120.226 88.8978L120.498 90.0043L119.744 90.3902L117.485 84.1312H118.632ZM123.296 87.2692V87.1387C123.296 86.696 123.36 86.2856 123.489 85.9073C123.618 85.5252 123.803 85.1942 124.045 84.9142C124.287 84.6305 124.58 84.4111 124.925 84.256C125.269 84.0971 125.655 84.0177 126.082 84.0177C126.513 84.0177 126.901 84.0971 127.245 84.256C127.593 84.4111 127.889 84.6305 128.131 84.9142C128.377 85.1942 128.564 85.5252 128.692 85.9073C128.821 86.2856 128.885 86.696 128.885 87.1387V87.2692C128.885 87.7118 128.821 88.1222 128.692 88.5005C128.564 88.8788 128.377 89.2099 128.131 89.4936C127.889 89.7735 127.595 89.9929 127.251 90.1518C126.911 90.3069 126.525 90.3845 126.094 90.3845C125.662 90.3845 125.274 90.3069 124.93 90.1518C124.586 89.9929 124.291 89.7735 124.045 89.4936C123.803 89.2099 123.618 88.8788 123.489 88.5005C123.36 88.1222 123.296 87.7118 123.296 87.2692ZM124.346 87.1387V87.2692C124.346 87.5756 124.382 87.865 124.454 88.1374C124.525 88.406 124.633 88.6443 124.777 88.8524C124.925 89.0604 125.108 89.225 125.327 89.346C125.547 89.4633 125.802 89.522 126.094 89.522C126.381 89.522 126.633 89.4633 126.848 89.346C127.068 89.225 127.249 89.0604 127.393 88.8524C127.537 88.6443 127.645 88.406 127.716 88.1374C127.792 87.865 127.83 87.5756 127.83 87.2692V87.1387C127.83 86.836 127.792 86.5504 127.716 86.2818C127.645 86.0094 127.535 85.7692 127.387 85.5611C127.244 85.3493 127.062 85.1828 126.843 85.0618C126.627 84.9407 126.373 84.8802 126.082 84.8802C125.795 84.8802 125.541 84.9407 125.322 85.0618C125.106 85.1828 124.925 85.3493 124.777 85.5611C124.633 85.7692 124.525 86.0094 124.454 86.2818C124.382 86.5504 124.346 86.836 124.346 87.1387ZM133.958 88.8524V84.1312H135.014V90.271H134.009L133.958 88.8524ZM134.157 87.5586L134.594 87.5472C134.594 87.9558 134.55 88.3341 134.463 88.6821C134.38 89.0264 134.244 89.3252 134.055 89.5787C133.866 89.8322 133.618 90.0308 133.312 90.1745C133.005 90.3145 132.632 90.3845 132.194 90.3845C131.895 90.3845 131.621 90.341 131.371 90.254C131.125 90.167 130.913 90.0327 130.735 89.8511C130.557 89.6695 130.419 89.4331 130.321 89.1418C130.226 88.8505 130.179 88.5005 130.179 88.092V84.1312H131.229V88.1033C131.229 88.3795 131.259 88.6084 131.32 88.7899C131.384 88.9677 131.469 89.1096 131.575 89.2155C131.685 89.3177 131.806 89.3896 131.938 89.4312C132.074 89.4728 132.214 89.4936 132.358 89.4936C132.805 89.4936 133.158 89.4085 133.419 89.2382C133.68 89.0642 133.868 88.8316 133.981 88.5403C134.098 88.2452 134.157 87.918 134.157 87.5586ZM71.6295 103.642C71.6295 103.491 71.5954 103.351 71.5273 103.222C71.463 103.09 71.3287 102.971 71.1244 102.865C70.9239 102.755 70.6213 102.661 70.2165 102.581C69.876 102.509 69.5677 102.424 69.2916 102.326C69.0192 102.228 68.7865 102.108 68.5936 101.968C68.4044 101.828 68.2588 101.664 68.1567 101.475C68.0545 101.286 68.0034 101.064 68.0034 100.811C68.0034 100.569 68.0564 100.34 68.1623 100.124C68.272 99.9086 68.4252 99.7175 68.622 99.5511C68.8225 99.3846 69.0627 99.2541 69.3426 99.1595C69.6226 99.065 69.9347 99.0177 70.2789 99.0177C70.7707 99.0177 71.1906 99.1047 71.5387 99.2787C71.8867 99.4527 72.1534 99.6854 72.3388 99.9767C72.5241 100.264 72.6168 100.584 72.6168 100.936H71.567C71.567 100.765 71.516 100.601 71.4138 100.442C71.3155 100.279 71.1698 100.145 70.9769 100.039C70.7877 99.9332 70.5551 99.8802 70.2789 99.8802C69.9876 99.8802 69.7512 99.9256 69.5696 100.016C69.3918 100.103 69.2613 100.215 69.1781 100.351C69.0986 100.487 69.0589 100.631 69.0589 100.782C69.0589 100.896 69.0778 100.998 69.1156 101.089C69.1573 101.176 69.2291 101.257 69.3313 101.333C69.4334 101.405 69.5772 101.473 69.7625 101.537C69.9479 101.601 70.1843 101.666 70.4719 101.73C70.975 101.844 71.3892 101.98 71.7146 102.139C72.0399 102.298 72.282 102.492 72.4409 102.723C72.5998 102.954 72.6792 103.234 72.6792 103.563C72.6792 103.832 72.6225 104.077 72.509 104.301C72.3993 104.524 72.2385 104.717 72.0267 104.879C71.8186 105.038 71.5689 105.163 71.2776 105.254C70.9901 105.341 70.6667 105.384 70.3073 105.384C69.7663 105.384 69.3086 105.288 68.9341 105.095C68.5595 104.902 68.2758 104.652 68.0829 104.346C67.8899 104.04 67.7935 103.716 67.7935 103.376H68.8489C68.8641 103.663 68.9473 103.892 69.0986 104.062C69.2499 104.229 69.4353 104.348 69.6547 104.42C69.8741 104.488 70.0917 104.522 70.3073 104.522C70.5948 104.522 70.835 104.484 71.028 104.408C71.2247 104.333 71.3741 104.229 71.4762 104.096C71.5784 103.964 71.6295 103.813 71.6295 103.642ZM76.6287 99.1312V99.9369H73.3091V99.1312H76.6287ZM74.4327 97.6388H75.4825V103.75C75.4825 103.958 75.5146 104.115 75.5789 104.221C75.6432 104.327 75.7265 104.397 75.8286 104.431C75.9307 104.465 76.0405 104.482 76.1577 104.482C76.2447 104.482 76.3355 104.475 76.4301 104.46C76.5285 104.441 76.6022 104.425 76.6514 104.414L76.6571 105.271C76.5739 105.297 76.4642 105.322 76.328 105.345C76.1956 105.371 76.0348 105.384 75.8456 105.384C75.5884 105.384 75.3519 105.333 75.1363 105.231C74.9207 105.129 74.7486 104.959 74.6199 104.721C74.4951 104.478 74.4327 104.153 74.4327 103.745V97.6388ZM81.6166 103.852V99.1312H82.6721V105.271H81.6677L81.6166 103.852ZM81.8152 102.559L82.2522 102.547C82.2522 102.956 82.2087 103.334 82.1216 103.682C82.0384 104.026 81.9022 104.325 81.7131 104.579C81.5239 104.832 81.2761 105.031 80.9697 105.175C80.6633 105.315 80.2907 105.384 79.8518 105.384C79.553 105.384 79.2787 105.341 79.029 105.254C78.7831 105.167 78.5713 105.033 78.3935 104.851C78.2157 104.669 78.0776 104.433 77.9792 104.142C77.8847 103.85 77.8374 103.501 77.8374 103.092V99.1312H78.8872V103.103C78.8872 103.379 78.9174 103.608 78.978 103.79C79.0423 103.968 79.1274 104.11 79.2333 104.216C79.343 104.318 79.4641 104.39 79.5965 104.431C79.7327 104.473 79.8726 104.494 80.0164 104.494C80.4628 104.494 80.8165 104.408 81.0775 104.238C81.3386 104.064 81.5258 103.832 81.6393 103.54C81.7566 103.245 81.8152 102.918 81.8152 102.559ZM88.1423 104.079V96.5549H89.1978V105.271H88.2331L88.1423 104.079ZM84.0113 102.269V102.15C84.0113 101.681 84.068 101.255 84.1815 100.873C84.2988 100.487 84.4633 100.156 84.6752 99.8802C84.8908 99.604 85.1462 99.3922 85.4412 99.2447C85.7401 99.0933 86.073 99.0177 86.44 99.0177C86.8258 99.0177 87.1625 99.0858 87.45 99.222C87.7413 99.3544 87.9872 99.5492 88.1877 99.8064C88.392 100.06 88.5528 100.366 88.67 100.726C88.7873 101.085 88.8687 101.492 88.9141 101.946V102.468C88.8724 102.918 88.7911 103.323 88.67 103.682C88.5528 104.042 88.392 104.348 88.1877 104.601C87.9872 104.855 87.7413 105.05 87.45 105.186C87.1587 105.318 86.8183 105.384 86.4286 105.384C86.0692 105.384 85.7401 105.307 85.4412 105.152C85.1462 104.997 84.8908 104.779 84.6752 104.499C84.4633 104.219 84.2988 103.89 84.1815 103.512C84.068 103.13 84.0113 102.716 84.0113 102.269ZM85.0667 102.15V102.269C85.0667 102.576 85.097 102.863 85.1575 103.132C85.2218 103.4 85.3202 103.637 85.4526 103.841C85.585 104.045 85.7533 104.206 85.9576 104.323C86.1619 104.437 86.4059 104.494 86.6896 104.494C87.0377 104.494 87.3233 104.42 87.5465 104.272C87.7735 104.125 87.9551 103.93 88.0912 103.688C88.2274 103.446 88.3334 103.183 88.409 102.899V101.531C88.3636 101.323 88.2974 101.123 88.2104 100.93C88.1272 100.733 88.0175 100.559 87.8813 100.408C87.7489 100.253 87.5843 100.13 87.3876 100.039C87.1947 99.9483 86.9658 99.9029 86.701 99.9029C86.4135 99.9029 86.1657 99.9634 85.9576 100.084C85.7533 100.202 85.585 100.364 85.4526 100.572C85.3202 100.777 85.2218 101.015 85.1575 101.287C85.097 101.556 85.0667 101.844 85.0667 102.15ZM91.9726 99.1312V105.271H90.9172V99.1312H91.9726ZM90.8377 97.5026C90.8377 97.3323 90.8888 97.1886 90.9909 97.0713C91.0969 96.954 91.252 96.8954 91.4562 96.8954C91.6567 96.8954 91.8099 96.954 91.9159 97.0713C92.0256 97.1886 92.0804 97.3323 92.0804 97.5026C92.0804 97.6652 92.0256 97.8052 91.9159 97.9225C91.8099 98.036 91.6567 98.0927 91.4562 98.0927C91.252 98.0927 91.0969 98.036 90.9909 97.9225C90.8888 97.8052 90.8377 97.6652 90.8377 97.5026ZM96.2058 105.384C95.7783 105.384 95.3906 105.313 95.0425 105.169C94.6983 105.021 94.4013 104.815 94.1516 104.55C93.9057 104.286 93.7166 103.972 93.5842 103.608C93.4518 103.245 93.3856 102.848 93.3856 102.417V102.178C93.3856 101.679 93.4593 101.235 93.6069 100.845C93.7544 100.451 93.9549 100.119 94.2084 99.8462C94.4618 99.5738 94.7494 99.3676 95.0709 99.2276C95.3925 99.0877 95.7254 99.0177 96.0696 99.0177C96.5085 99.0177 96.8868 99.0933 97.2045 99.2447C97.5261 99.396 97.789 99.6078 97.9933 99.8802C98.1976 100.149 98.3489 100.467 98.4472 100.834C98.5456 101.197 98.5948 101.594 98.5948 102.025V102.496H94.0098V101.639H97.545V101.56C97.5299 101.287 97.4731 101.023 97.3748 100.765C97.2802 100.508 97.1289 100.296 96.9208 100.13C96.7127 99.9634 96.429 99.8802 96.0696 99.8802C95.8313 99.8802 95.6119 99.9313 95.4114 100.033C95.2109 100.132 95.0388 100.279 94.895 100.476C94.7512 100.673 94.6396 100.913 94.5602 101.197C94.4808 101.48 94.441 101.808 94.441 102.178V102.417C94.441 102.708 94.4808 102.982 94.5602 103.24C94.6434 103.493 94.7626 103.716 94.9177 103.909C95.0766 104.102 95.2676 104.253 95.4908 104.363C95.7178 104.473 95.975 104.528 96.2626 104.528C96.6333 104.528 96.9473 104.452 97.2045 104.301C97.4618 104.149 97.6869 103.947 97.8798 103.693L98.5153 104.199C98.3829 104.399 98.2146 104.59 98.0103 104.772C97.806 104.953 97.5545 105.101 97.2556 105.214C96.9605 105.328 96.6106 105.384 96.2058 105.384ZM103.691 104.079V96.5549H104.746V105.271H103.781L103.691 104.079ZM99.5595 102.269V102.15C99.5595 101.681 99.6162 101.255 99.7297 100.873C99.847 100.487 100.012 100.156 100.223 99.8802C100.439 99.604 100.694 99.3922 100.989 99.2447C101.288 99.0933 101.621 99.0177 101.988 99.0177C102.374 99.0177 102.711 99.0858 102.998 99.222C103.29 99.3544 103.535 99.5492 103.736 99.8064C103.94 100.06 104.101 100.366 104.218 100.726C104.336 101.085 104.417 101.492 104.462 101.946V102.468C104.421 102.918 104.339 103.323 104.218 103.682C104.101 104.042 103.94 104.348 103.736 104.601C103.535 104.855 103.29 105.05 102.998 105.186C102.707 105.318 102.366 105.384 101.977 105.384C101.617 105.384 101.288 105.307 100.989 105.152C100.694 104.997 100.439 104.779 100.223 104.499C100.012 104.219 99.847 103.89 99.7297 103.512C99.6162 103.13 99.5595 102.716 99.5595 102.269ZM100.615 102.15V102.269C100.615 102.576 100.645 102.863 100.706 103.132C100.77 103.4 100.868 103.637 101.001 103.841C101.133 104.045 101.302 104.206 101.506 104.323C101.71 104.437 101.954 104.494 102.238 104.494C102.586 104.494 102.871 104.42 103.095 104.272C103.322 104.125 103.503 103.93 103.639 103.688C103.776 103.446 103.882 103.183 103.957 102.899V101.531C103.912 101.323 103.846 101.123 103.759 100.93C103.675 100.733 103.566 100.559 103.429 100.408C103.297 100.253 103.133 100.13 102.936 100.039C102.743 99.9483 102.514 99.9029 102.249 99.9029C101.962 99.9029 101.714 99.9634 101.506 100.084C101.302 100.202 101.133 100.364 101.001 100.572C100.868 100.777 100.77 101.015 100.706 101.287C100.645 101.556 100.615 101.844 100.615 102.15ZM111.833 99.1312V99.9369H108.514V99.1312H111.833ZM109.637 97.6388H110.687V103.75C110.687 103.958 110.719 104.115 110.784 104.221C110.848 104.327 110.931 104.397 111.033 104.431C111.135 104.465 111.245 104.482 111.362 104.482C111.449 104.482 111.54 104.475 111.635 104.46C111.733 104.441 111.807 104.425 111.856 104.414L111.862 105.271C111.779 105.297 111.669 105.322 111.533 105.345C111.4 105.371 111.24 105.384 111.05 105.384C110.793 105.384 110.557 105.333 110.341 105.231C110.125 105.129 109.953 104.959 109.825 104.721C109.7 104.478 109.637 104.153 109.637 103.745V97.6388ZM112.673 102.269V102.139C112.673 101.696 112.738 101.286 112.866 100.907C112.995 100.525 113.18 100.194 113.422 99.9142C113.664 99.6305 113.958 99.4111 114.302 99.256C114.646 99.0971 115.032 99.0177 115.459 99.0177C115.891 99.0177 116.278 99.0971 116.623 99.256C116.971 99.4111 117.266 99.6305 117.508 99.9142C117.754 100.194 117.941 100.525 118.07 100.907C118.198 101.286 118.263 101.696 118.263 102.139V102.269C118.263 102.712 118.198 103.122 118.07 103.501C117.941 103.879 117.754 104.21 117.508 104.494C117.266 104.774 116.973 104.993 116.628 105.152C116.288 105.307 115.902 105.384 115.471 105.384C115.04 105.384 114.652 105.307 114.308 105.152C113.963 104.993 113.668 104.774 113.422 104.494C113.18 104.21 112.995 103.879 112.866 103.501C112.738 103.122 112.673 102.712 112.673 102.269ZM113.723 102.139V102.269C113.723 102.576 113.759 102.865 113.831 103.137C113.903 103.406 114.011 103.644 114.154 103.852C114.302 104.06 114.485 104.225 114.705 104.346C114.924 104.463 115.18 104.522 115.471 104.522C115.758 104.522 116.01 104.463 116.226 104.346C116.445 104.225 116.627 104.06 116.77 103.852C116.914 103.644 117.022 103.406 117.094 103.137C117.169 102.865 117.207 102.576 117.207 102.269V102.139C117.207 101.836 117.169 101.55 117.094 101.282C117.022 101.009 116.912 100.769 116.765 100.561C116.621 100.349 116.439 100.183 116.22 100.062C116.004 99.9407 115.751 99.8802 115.459 99.8802C115.172 99.8802 114.918 99.9407 114.699 100.062C114.483 100.183 114.302 100.349 114.154 100.561C114.011 100.769 113.903 101.009 113.831 101.282C113.759 101.55 113.723 101.836 113.723 102.139ZM123.449 104.079V96.5549H124.505V105.271H123.54L123.449 104.079ZM119.318 102.269V102.15C119.318 101.681 119.375 101.255 119.488 100.873C119.606 100.487 119.77 100.156 119.982 99.8802C120.198 99.604 120.453 99.3922 120.748 99.2447C121.047 99.0933 121.38 99.0177 121.747 99.0177C122.133 99.0177 122.469 99.0858 122.757 99.222C123.048 99.3544 123.294 99.5492 123.495 99.8064C123.699 100.06 123.86 100.366 123.977 100.726C124.094 101.085 124.176 101.492 124.221 101.946V102.468C124.179 102.918 124.098 103.323 123.977 103.682C123.86 104.042 123.699 104.348 123.495 104.601C123.294 104.855 123.048 105.05 122.757 105.186C122.466 105.318 122.125 105.384 121.735 105.384C121.376 105.384 121.047 105.307 120.748 105.152C120.453 104.997 120.198 104.779 119.982 104.499C119.77 104.219 119.606 103.89 119.488 103.512C119.375 103.13 119.318 102.716 119.318 102.269ZM120.374 102.15V102.269C120.374 102.576 120.404 102.863 120.464 103.132C120.529 103.4 120.627 103.637 120.759 103.841C120.892 104.045 121.06 104.206 121.265 104.323C121.469 104.437 121.713 104.494 121.997 104.494C122.345 104.494 122.63 104.42 122.853 104.272C123.08 104.125 123.262 103.93 123.398 103.688C123.534 103.446 123.64 103.183 123.716 102.899V101.531C123.67 101.323 123.604 101.123 123.517 100.93C123.434 100.733 123.324 100.559 123.188 100.408C123.056 100.253 122.891 100.13 122.694 100.039C122.502 99.9483 122.273 99.9029 122.008 99.9029C121.72 99.9029 121.473 99.9634 121.265 100.084C121.06 100.202 120.892 100.364 120.759 100.572C120.627 100.777 120.529 101.015 120.464 101.287C120.404 101.556 120.374 101.844 120.374 102.15ZM129.759 104.221V101.061C129.759 100.818 129.71 100.608 129.612 100.431C129.517 100.249 129.373 100.109 129.18 100.011C128.988 99.9124 128.749 99.8632 128.465 99.8632C128.201 99.8632 127.968 99.9086 127.768 99.9994C127.571 100.09 127.416 100.209 127.302 100.357C127.192 100.504 127.138 100.663 127.138 100.834H126.088C126.088 100.614 126.145 100.397 126.258 100.181C126.372 99.9653 126.534 99.7705 126.746 99.5965C126.962 99.4187 127.219 99.2787 127.518 99.1766C127.82 99.0706 128.157 99.0177 128.528 99.0177C128.974 99.0177 129.368 99.0933 129.708 99.2447C130.052 99.396 130.321 99.6248 130.514 99.9313C130.711 100.234 130.809 100.614 130.809 101.072V103.932C130.809 104.136 130.826 104.354 130.86 104.584C130.898 104.815 130.953 105.014 131.025 105.18V105.271H129.929C129.877 105.15 129.835 104.989 129.805 104.789C129.774 104.584 129.759 104.395 129.759 104.221ZM129.941 101.549L129.952 102.286H128.891C128.592 102.286 128.325 102.311 128.091 102.36C127.856 102.405 127.66 102.475 127.501 102.57C127.342 102.664 127.221 102.784 127.138 102.927C127.054 103.067 127.013 103.232 127.013 103.421C127.013 103.614 127.056 103.79 127.143 103.949C127.23 104.108 127.361 104.234 127.535 104.329C127.713 104.42 127.93 104.465 128.187 104.465C128.509 104.465 128.793 104.397 129.039 104.261C129.284 104.125 129.479 103.958 129.623 103.762C129.771 103.565 129.85 103.374 129.861 103.188L130.31 103.693C130.283 103.852 130.211 104.028 130.094 104.221C129.977 104.414 129.82 104.6 129.623 104.777C129.43 104.951 129.199 105.097 128.931 105.214C128.666 105.328 128.367 105.384 128.034 105.384C127.618 105.384 127.253 105.303 126.939 105.14C126.629 104.978 126.387 104.76 126.213 104.488C126.042 104.212 125.957 103.903 125.957 103.563C125.957 103.234 126.022 102.944 126.15 102.695C126.279 102.441 126.464 102.231 126.706 102.065C126.948 101.895 127.24 101.766 127.58 101.679C127.921 101.592 128.301 101.549 128.721 101.549H129.941ZM134.095 104.635L135.803 99.1312H136.926L134.463 106.219C134.407 106.37 134.331 106.533 134.236 106.707C134.146 106.884 134.028 107.053 133.885 107.212C133.741 107.371 133.567 107.499 133.363 107.598C133.162 107.7 132.922 107.751 132.642 107.751C132.559 107.751 132.453 107.739 132.324 107.717C132.196 107.694 132.105 107.675 132.052 107.66L132.046 106.809C132.076 106.813 132.124 106.816 132.188 106.82C132.256 106.828 132.303 106.831 132.33 106.831C132.568 106.831 132.771 106.799 132.937 106.735C133.103 106.674 133.243 106.57 133.357 106.423C133.474 106.279 133.574 106.081 133.658 105.827L134.095 104.635ZM132.841 99.1312L134.435 103.898L134.707 105.004L133.953 105.39L131.694 99.1312H132.841Z" fill="white"/>
<path d="M28.1962 29.8042V30.4629H25.7765V29.8042H28.1962ZM26.0082 25.6433V30.4629H25.1774V25.6433H26.0082ZM28.6551 28.7118V28.6357C28.6551 28.3775 28.6926 28.1381 28.7677 27.9174C28.8427 27.6945 28.9508 27.5014 29.0921 27.3381C29.2355 27.1726 29.4098 27.0446 29.6151 26.9541C29.8225 26.8615 30.0564 26.8151 30.3168 26.8151C30.5794 26.8151 30.8133 26.8615 31.0186 26.9541C31.226 27.0446 31.4014 27.1726 31.5449 27.3381C31.6883 27.5014 31.7975 27.6945 31.8726 27.9174C31.9476 28.1381 31.9851 28.3775 31.9851 28.6357V28.7118C31.9851 28.97 31.9476 29.2095 31.8726 29.4301C31.7975 29.6508 31.6883 29.8439 31.5449 30.0094C31.4014 30.1727 31.2271 30.3007 31.0219 30.3934C30.8166 30.4839 30.5838 30.5291 30.3234 30.5291C30.0608 30.5291 29.8258 30.4839 29.6184 30.3934C29.4131 30.3007 29.2388 30.1727 29.0954 30.0094C28.9519 29.8439 28.8427 29.6508 28.7677 29.4301C28.6926 29.2095 28.6551 28.97 28.6551 28.7118ZM29.4529 28.6357V28.7118C29.4529 28.8729 29.4694 29.0252 29.5025 29.1686C29.5356 29.3121 29.5875 29.4379 29.6581 29.546C29.7287 29.6541 29.8192 29.7391 29.9295 29.8009C30.0399 29.8627 30.1712 29.8935 30.3234 29.8935C30.4713 29.8935 30.5993 29.8627 30.7074 29.8009C30.8177 29.7391 30.9082 29.6541 30.9788 29.546C31.0495 29.4379 31.1013 29.3121 31.1344 29.1686C31.1697 29.0252 31.1874 28.8729 31.1874 28.7118V28.6357C31.1874 28.4768 31.1697 28.3267 31.1344 28.1855C31.1013 28.0421 31.0484 27.9152 30.9755 27.8048C30.9049 27.6945 30.8144 27.6084 30.7041 27.5467C30.596 27.4827 30.4669 27.4507 30.3168 27.4507C30.1668 27.4507 30.0366 27.4827 29.9262 27.5467C29.8181 27.6084 29.7287 27.6945 29.6581 27.8048C29.5875 27.9152 29.5356 28.0421 29.5025 28.1855C29.4694 28.3267 29.4529 28.4768 29.4529 28.6357ZM34.9961 26.8813H35.721V30.3636C35.721 30.6858 35.6526 30.9594 35.5158 31.1845C35.379 31.4096 35.1881 31.5806 34.9432 31.6976C34.6982 31.8167 34.4146 31.8763 34.0925 31.8763C33.9556 31.8763 33.8034 31.8565 33.6357 31.8167C33.4701 31.777 33.3091 31.713 33.1524 31.6247C32.9979 31.5387 32.8688 31.425 32.7651 31.2838L33.1391 30.8138C33.2671 30.966 33.4084 31.0775 33.5628 31.1481C33.7173 31.2187 33.8795 31.254 34.0494 31.254C34.2326 31.254 34.3882 31.2198 34.5162 31.1514C34.6463 31.0852 34.7468 30.987 34.8174 30.8568C34.888 30.7266 34.9233 30.5677 34.9233 30.3801V27.6923L34.9961 26.8813ZM32.5632 28.7118V28.6423C32.5632 28.3709 32.5963 28.1237 32.6625 27.9008C32.7287 27.6758 32.8236 27.4827 32.9471 27.3216C33.0707 27.1583 33.2208 27.0336 33.3973 26.9475C33.5739 26.8593 33.7736 26.8151 33.9965 26.8151C34.2282 26.8151 34.4257 26.857 34.589 26.9409C34.7545 27.0248 34.8924 27.145 35.0027 27.3017C35.1131 27.4562 35.1991 27.6415 35.2609 27.8578C35.3249 28.0719 35.3724 28.3102 35.4033 28.5728V28.7946C35.3746 29.0506 35.326 29.2845 35.2576 29.4963C35.1892 29.7082 35.0987 29.8913 34.9862 30.0458C34.8736 30.2003 34.7346 30.3195 34.5691 30.4033C34.4058 30.4872 34.2127 30.5291 33.9898 30.5291C33.7714 30.5291 33.5739 30.4839 33.3973 30.3934C33.223 30.3029 33.0729 30.176 32.9471 30.0127C32.8236 29.8494 32.7287 29.6574 32.6625 29.4367C32.5963 29.2139 32.5632 28.9722 32.5632 28.7118ZM33.3609 28.6423V28.7118C33.3609 28.8751 33.3764 29.0274 33.4073 29.1686C33.4404 29.3099 33.49 29.4345 33.5562 29.5427C33.6246 29.6486 33.7107 29.7325 33.8144 29.7942C33.9203 29.8538 34.045 29.8836 34.1884 29.8836C34.376 29.8836 34.5294 29.8439 34.6486 29.7645C34.7699 29.685 34.8626 29.578 34.9266 29.4434C34.9928 29.3065 35.0392 29.1543 35.0656 28.9866V28.3874C35.0524 28.2572 35.0248 28.1359 34.9829 28.0233C34.9432 27.9108 34.8891 27.8126 34.8207 27.7287C34.7523 27.6427 34.6662 27.5765 34.5625 27.5301C34.4588 27.4816 34.3363 27.4573 34.1951 27.4573C34.0516 27.4573 33.9269 27.4882 33.821 27.55C33.7151 27.6118 33.6279 27.6967 33.5595 27.8048C33.4933 27.913 33.4437 28.0388 33.4106 28.1822C33.3775 28.3256 33.3609 28.479 33.3609 28.6423ZM36.4447 28.7118V28.6357C36.4447 28.3775 36.4822 28.1381 36.5573 27.9174C36.6323 27.6945 36.7404 27.5014 36.8817 27.3381C37.0251 27.1726 37.1994 27.0446 37.4047 26.9541C37.6121 26.8615 37.846 26.8151 38.1064 26.8151C38.369 26.8151 38.6029 26.8615 38.8082 26.9541C39.0156 27.0446 39.191 27.1726 39.3345 27.3381C39.4779 27.5014 39.5872 27.6945 39.6622 27.9174C39.7372 28.1381 39.7747 28.3775 39.7747 28.6357V28.7118C39.7747 28.97 39.7372 29.2095 39.6622 29.4301C39.5872 29.6508 39.4779 29.8439 39.3345 30.0094C39.191 30.1727 39.0167 30.3007 38.8115 30.3934C38.6063 30.4839 38.3734 30.5291 38.113 30.5291C37.8504 30.5291 37.6154 30.4839 37.408 30.3934C37.2028 30.3007 37.0284 30.1727 36.885 30.0094C36.7415 29.8439 36.6323 29.6508 36.5573 29.4301C36.4822 29.2095 36.4447 28.97 36.4447 28.7118ZM37.2425 28.6357V28.7118C37.2425 28.8729 37.259 29.0252 37.2921 29.1686C37.3252 29.3121 37.3771 29.4379 37.4477 29.546C37.5183 29.6541 37.6088 29.7391 37.7191 29.8009C37.8295 29.8627 37.9608 29.8935 38.113 29.8935C38.2609 29.8935 38.3889 29.8627 38.497 29.8009C38.6074 29.7391 38.6978 29.6541 38.7684 29.546C38.8391 29.4379 38.8909 29.3121 38.924 29.1686C38.9593 29.0252 38.977 28.8729 38.977 28.7118V28.6357C38.977 28.4768 38.9593 28.3267 38.924 28.1855C38.8909 28.0421 38.838 27.9152 38.7651 27.8048C38.6945 27.6945 38.604 27.6084 38.4937 27.5467C38.3856 27.4827 38.2565 27.4507 38.1064 27.4507C37.9564 27.4507 37.8262 27.4827 37.7158 27.5467C37.6077 27.6084 37.5183 27.6945 37.4477 27.8048C37.3771 27.9152 37.3252 28.0421 37.2921 28.1855C37.259 28.3267 37.2425 28.4768 37.2425 28.6357Z" fill="black"/>
<mask id="mask0_53364_48558" style="mask-type:luminance" maskUnits="userSpaceOnUse" x="169" y="23" width="10" height="9">
<path fill-rule="evenodd" clip-rule="evenodd" d="M169.688 23.0742H178.644V31.4746H169.688V23.0742Z" fill="white"/>
</mask>
<g mask="url(#mask0_53364_48558)">
<path fill-rule="evenodd" clip-rule="evenodd" d="M174.165 23.8006C172.472 23.8006 171.293 25.1264 171.293 26.3161C171.293 27.3228 171.013 27.7882 170.766 28.1988C170.568 28.5285 170.412 28.7891 170.412 29.3551C170.493 30.2684 171.096 30.7482 174.165 30.7482C177.217 30.7482 177.839 30.2471 177.919 29.3236C177.917 28.7891 177.761 28.5285 177.563 28.1988C177.316 27.7882 177.037 27.3228 177.037 26.3161C177.037 25.1264 175.857 23.8006 174.165 23.8006ZM174.165 31.4746C171.901 31.4746 169.855 31.3148 169.688 29.3861C169.686 28.5881 169.93 28.1823 170.145 27.825C170.362 27.4628 170.567 27.1214 170.567 26.3161C170.567 24.7506 172.013 23.0742 174.165 23.0742C176.318 23.0742 177.763 24.7506 177.763 26.3161C177.763 27.1214 177.968 27.4628 178.186 27.825C178.401 28.1823 178.644 28.5881 178.644 29.3551C178.475 31.3148 176.429 31.4746 174.165 31.4746Z" fill="black"/>
</g>
<path fill-rule="evenodd" clip-rule="evenodd" d="M174.142 33.4855H174.141C173.598 33.485 173.085 33.2458 172.695 32.8114C172.561 32.6628 172.573 32.4328 172.722 32.2991C172.871 32.1645 173.101 32.1766 173.235 32.3262C173.485 32.6056 173.807 32.7591 174.142 32.7591H174.142C174.478 32.7591 174.801 32.6056 175.052 32.3257C175.187 32.1771 175.417 32.165 175.565 32.2991C175.714 32.4332 175.726 32.6632 175.592 32.8119C175.201 33.2463 174.686 33.4855 174.142 33.4855Z" fill="black"/>
<path d="M154.554 33.4855C153.979 33.4855 153.417 33.3151 152.94 32.9959C152.462 32.6766 152.089 32.2229 151.87 31.692C151.65 31.1611 151.592 30.5769 151.704 30.0134C151.816 29.4498 152.093 28.9321 152.499 28.5258C152.906 28.1194 153.423 27.8427 153.987 27.7306C154.551 27.6185 155.135 27.6761 155.666 27.896C156.197 28.1159 156.65 28.4882 156.97 28.966C157.289 29.4438 157.459 30.0055 157.459 30.5802C157.459 31.3507 157.153 32.0897 156.608 32.6346C156.063 33.1794 155.324 33.4855 154.554 33.4855ZM154.554 28.4011C154.123 28.4011 153.702 28.5289 153.343 28.7684C152.985 29.0078 152.706 29.3481 152.541 29.7463C152.376 30.1445 152.333 30.5826 152.417 31.0053C152.501 31.428 152.708 31.8162 153.013 32.121C153.318 32.4257 153.706 32.6332 154.129 32.7173C154.551 32.8014 154.99 32.7582 155.388 32.5933C155.786 32.4284 156.126 32.1491 156.366 31.7908C156.605 31.4324 156.733 31.0111 156.733 30.5802C156.733 30.0023 156.503 29.448 156.095 29.0394C155.686 28.6307 155.132 28.4011 154.554 28.4011Z" fill="black"/>
<path d="M155.128 31.6696L154.188 30.729V29.1274H154.914V30.4312L155.64 31.1576L155.128 31.6696Z" fill="black"/>
<path d="M157.095 24.7696C157.095 24.5769 157.018 24.3922 156.882 24.256C156.746 24.1198 156.561 24.0432 156.369 24.0432H154.916V23.3169H154.19V24.0432H151.284V23.3169H150.558V24.0432H149.105C148.913 24.0432 148.728 24.1198 148.592 24.256C148.455 24.3922 148.379 24.5769 148.379 24.7696V32.033C148.379 32.2256 148.455 32.4103 148.592 32.5466C148.728 32.6828 148.913 32.7593 149.105 32.7593H150.558V32.033H149.105V24.7696H150.558V25.4959H151.284V24.7696H154.19V25.4959H154.916V24.7696H156.369V26.9486H157.095V24.7696Z" fill="black"/>
<mask id="mask1_53364_48558" style="mask-type:luminance" maskUnits="userSpaceOnUse" x="126" y="23" width="11" height="10">
<path fill-rule="evenodd" clip-rule="evenodd" d="M126.586 23.5591H136.017V32.9903H126.586V23.5591Z" fill="white"/>
</mask>
<g mask="url(#mask1_53364_48558)">
<path fill-rule="evenodd" clip-rule="evenodd" d="M131.302 24.2854C129.102 24.2854 127.312 26.0746 127.312 28.2745C127.312 30.4743 129.102 32.264 131.302 32.264C133.501 32.264 135.291 30.4743 135.291 28.2745C135.291 26.0746 133.501 24.2854 131.302 24.2854ZM131.302 32.9903C128.702 32.9903 126.586 30.8748 126.586 28.2745C126.586 25.6742 128.702 23.5591 131.302 23.5591C133.902 23.5591 136.017 25.6742 136.017 28.2745C136.017 30.8748 133.902 32.9903 131.302 32.9903Z" fill="black"/>
</g>
<mask id="mask2_53364_48558" style="mask-type:luminance" maskUnits="userSpaceOnUse" x="133" y="31" width="4" height="3">
<path fill-rule="evenodd" clip-rule="evenodd" d="M133.965 31.1646H136.398V33.5928H133.965V31.1646Z" fill="white"/>
</mask>
<g mask="url(#mask2_53364_48558)">
<path fill-rule="evenodd" clip-rule="evenodd" d="M136.035 33.5928C135.942 33.5928 135.849 33.5575 135.778 33.4868L134.071 31.7852C133.93 31.6433 133.929 31.4133 134.071 31.2714C134.212 31.1286 134.442 31.1296 134.585 31.2705L136.291 32.9725C136.433 33.1144 136.434 33.3439 136.292 33.4858C136.221 33.5575 136.128 33.5928 136.035 33.5928Z" fill="black"/>
</g>
<rect width="174.321" height="24.4637" transform="translate(16 169.446)" fill="white"/>
<path d="M32.6168 172.63C32.4856 172.523 32.3191 172.465 32.1471 172.465C31.9751 172.465 31.8086 172.523 31.6774 172.63L28.0457 175.586C27.9653 175.651 27.9007 175.732 27.8564 175.824C27.812 175.916 27.7891 176.016 27.7891 176.117V180.484C27.7891 180.669 27.8656 180.846 28.0018 180.977C28.138 181.108 28.3228 181.181 28.5154 181.181H30.8155C30.9118 181.181 31.0042 181.144 31.0723 181.079C31.1404 181.014 31.1786 180.925 31.1786 180.833V177.93H33.1155V180.833C33.1155 181.025 33.2782 181.181 33.4787 181.181H35.7788C35.9714 181.181 36.1562 181.108 36.2924 180.977C36.4286 180.846 36.5051 180.669 36.5051 180.484V176.117C36.5051 176.016 36.4822 175.916 36.4378 175.824C36.3935 175.732 36.3289 175.651 36.2485 175.586L32.6168 172.63Z" fill="#0054B4"/>
<path d="M28.7634 187.403V187.7H27.2729V187.403H28.7634ZM27.3296 186.219V188.973H26.9646V186.219H27.3296ZM29.0812 186.219V188.973H28.718V186.219H29.0812ZM29.778 187.972V187.929C29.778 187.781 29.7994 187.644 29.8423 187.518C29.8852 187.391 29.947 187.28 30.0277 187.187C30.1084 187.092 30.2061 187.019 30.3209 186.968C30.4356 186.915 30.5642 186.888 30.7067 186.888C30.8505 186.888 30.9797 186.915 31.0945 186.968C31.2105 187.019 31.3089 187.092 31.3896 187.187C31.4715 187.28 31.5339 187.391 31.5768 187.518C31.6197 187.644 31.6411 187.781 31.6411 187.929V187.972C31.6411 188.12 31.6197 188.256 31.5768 188.383C31.5339 188.509 31.4715 188.619 31.3896 188.714C31.3089 188.807 31.2111 188.88 31.0964 188.933C30.9829 188.985 30.8543 189.01 30.7105 189.01C30.5668 189.01 30.4375 188.985 30.3228 188.933C30.208 188.88 30.1096 188.807 30.0277 188.714C29.947 188.619 29.8852 188.509 29.8423 188.383C29.7994 188.256 29.778 188.12 29.778 187.972ZM30.1279 187.929V187.972C30.1279 188.074 30.1399 188.171 30.1639 188.261C30.1878 188.351 30.2238 188.43 30.2717 188.5C30.3209 188.569 30.382 188.624 30.4552 188.664C30.5283 188.703 30.6134 188.723 30.7105 188.723C30.8064 188.723 30.8902 188.703 30.9621 188.664C31.0352 188.624 31.0958 188.569 31.1437 188.5C31.1916 188.43 31.2275 188.351 31.2515 188.261C31.2767 188.171 31.2893 188.074 31.2893 187.972V187.929C31.2893 187.828 31.2767 187.732 31.2515 187.643C31.2275 187.552 31.191 187.472 31.1418 187.403C31.0939 187.332 31.0333 187.277 30.9602 187.236C30.8883 187.196 30.8038 187.176 30.7067 187.176C30.6109 187.176 30.5264 187.196 30.4533 187.236C30.3814 187.277 30.3209 187.332 30.2717 187.403C30.2238 187.472 30.1878 187.552 30.1639 187.643C30.1399 187.732 30.1279 187.828 30.1279 187.929ZM32.6217 187.333V188.973H32.2699V186.926H32.6028L32.6217 187.333ZM32.5498 187.872L32.3871 187.866C32.3884 187.726 32.4067 187.597 32.442 187.478C32.4773 187.359 32.5296 187.255 32.599 187.166C32.6683 187.078 32.7547 187.01 32.8581 186.962C32.9615 186.913 33.0813 186.888 33.2175 186.888C33.3134 186.888 33.4016 186.902 33.4823 186.93C33.563 186.956 33.633 186.999 33.6923 187.057C33.7516 187.115 33.7976 187.189 33.8304 187.28C33.8632 187.371 33.8795 187.48 33.8795 187.609V188.973H33.5296V187.626C33.5296 187.519 33.5113 187.433 33.4748 187.369C33.4395 187.304 33.389 187.258 33.3234 187.229C33.2579 187.198 33.1809 187.183 33.0927 187.183C32.9893 187.183 32.9029 187.202 32.8335 187.238C32.7642 187.275 32.7087 187.325 32.6671 187.389C32.6255 187.454 32.5952 187.528 32.5763 187.611C32.5586 187.693 32.5498 187.78 32.5498 187.872ZM33.8758 187.679L33.6412 187.751C33.6425 187.639 33.6608 187.531 33.6961 187.427C33.7326 187.324 33.785 187.232 33.8531 187.151C33.9224 187.07 34.0075 187.007 34.1084 186.96C34.2093 186.912 34.3247 186.888 34.4546 186.888C34.5643 186.888 34.6614 186.903 34.7459 186.932C34.8316 186.961 34.9035 187.005 34.9615 187.066C35.0208 187.125 35.0655 187.202 35.0958 187.295C35.126 187.388 35.1412 187.499 35.1412 187.628V188.973H34.7894V187.624C34.7894 187.509 34.7711 187.42 34.7345 187.357C34.6992 187.293 34.6488 187.248 34.5832 187.223C34.5189 187.197 34.442 187.183 34.3524 187.183C34.2755 187.183 34.2074 187.197 34.1481 187.223C34.0889 187.249 34.0391 187.286 33.9987 187.333C33.9584 187.378 33.9275 187.43 33.906 187.49C33.8859 187.549 33.8758 187.612 33.8758 187.679ZM36.7138 189.01C36.5713 189.01 36.442 188.987 36.326 188.939C36.2113 188.889 36.1123 188.821 36.0291 188.732C35.9471 188.644 35.884 188.54 35.8399 188.418C35.7958 188.297 35.7737 188.165 35.7737 188.021V187.942C35.7737 187.775 35.7983 187.627 35.8475 187.497C35.8966 187.366 35.9635 187.255 36.048 187.164C36.1325 187.074 36.2283 187.005 36.3355 186.958C36.4427 186.912 36.5536 186.888 36.6684 186.888C36.8147 186.888 36.9408 186.913 37.0467 186.964C37.1539 187.014 37.2415 187.085 37.3096 187.176C37.3777 187.265 37.4281 187.371 37.4609 187.493C37.4937 187.615 37.5101 187.747 37.5101 187.891V188.048H35.9818V187.762H37.1602V187.736C37.1551 187.645 37.1362 187.557 37.1034 187.471C37.0719 187.385 37.0215 187.314 36.9521 187.259C36.8828 187.203 36.7882 187.176 36.6684 187.176C36.5889 187.176 36.5158 187.193 36.449 187.227C36.3821 187.26 36.3248 187.309 36.2768 187.374C36.2289 187.44 36.1917 187.52 36.1652 187.615C36.1388 187.709 36.1255 187.818 36.1255 187.942V188.021C36.1255 188.118 36.1388 188.21 36.1652 188.295C36.193 188.38 36.2327 188.454 36.2844 188.519C36.3374 188.583 36.4011 188.633 36.4755 188.67C36.5511 188.707 36.6369 188.725 36.7327 188.725C36.8563 188.725 36.9609 188.7 37.0467 188.649C37.1324 188.599 37.2075 188.531 37.2718 188.447L37.4836 188.615C37.4395 188.682 37.3834 188.746 37.3153 188.806C37.2472 188.867 37.1633 188.916 37.0637 188.954C36.9654 188.992 36.8487 189.01 36.7138 189.01Z" fill="#0054B4"/>
<mask id="mask3_53364_48558" style="mask-type:alpha" maskUnits="userSpaceOnUse" x="59" y="171" width="13" height="13">
<rect x="59.9375" y="171.383" width="11.6214" height="11.6214" fill="white"/>
</mask>
<g mask="url(#mask3_53364_48558)">
<rect x="62.1171" y="173.078" width="7.26339" height="8.23184" rx="0.726339" fill="white" stroke="black" stroke-width="0.484226"/>
<line x1="63.1641" y1="175.983" x2="68.3291" y2="175.983" stroke="black" stroke-width="0.484226"/>
<line x1="63.1641" y1="177.436" x2="65.7466" y2="177.436" stroke="black" stroke-width="0.484226"/>
</g>
<path d="M63.0743 186.219V188.973H62.7149V186.219H63.0743ZM63.9595 186.219V186.517H61.8316V186.219H63.9595ZM65.1689 189.01C65.0264 189.01 64.8972 188.987 64.7812 188.939C64.6664 188.889 64.5674 188.821 64.4842 188.732C64.4022 188.644 64.3392 188.54 64.2951 188.418C64.2509 188.297 64.2288 188.165 64.2288 188.021V187.942C64.2288 187.775 64.2534 187.627 64.3026 187.497C64.3518 187.366 64.4186 187.255 64.5031 187.164C64.5876 187.074 64.6834 187.005 64.7906 186.958C64.8978 186.912 65.0088 186.888 65.1235 186.888C65.2698 186.888 65.3959 186.913 65.5018 186.964C65.609 187.014 65.6967 187.085 65.7648 187.176C65.8328 187.265 65.8833 187.371 65.9161 187.493C65.9489 187.615 65.9653 187.747 65.9653 187.891V188.048H64.4369V187.762H65.6153V187.736C65.6103 187.645 65.5914 187.557 65.5586 187.471C65.5271 187.385 65.4766 187.314 65.4073 187.259C65.3379 187.203 65.2433 187.176 65.1235 187.176C65.0441 187.176 64.971 187.193 64.9041 187.227C64.8373 187.26 64.7799 187.309 64.732 187.374C64.6841 187.44 64.6469 187.52 64.6204 187.615C64.5939 187.709 64.5807 187.818 64.5807 187.942V188.021C64.5807 188.118 64.5939 188.21 64.6204 188.295C64.6481 188.38 64.6879 188.454 64.7396 188.519C64.7925 188.583 64.8562 188.633 64.9306 188.67C65.0063 188.707 65.092 188.725 65.1878 188.725C65.3114 188.725 65.4161 188.7 65.5018 188.649C65.5876 188.599 65.6626 188.531 65.7269 188.447L65.9388 188.615C65.8946 188.682 65.8385 188.746 65.7704 188.806C65.7023 188.867 65.6185 188.916 65.5189 188.954C65.4205 188.992 65.3039 189.01 65.1689 189.01ZM67.7592 188.43C67.7592 188.379 67.7478 188.333 67.7251 188.29C67.7037 188.246 67.6589 188.206 67.5908 188.171C67.524 188.134 67.4231 188.103 67.2882 188.076C67.1747 188.052 67.0719 188.024 66.9799 187.991C66.8891 187.958 66.8115 187.918 66.7472 187.872C66.6842 187.825 66.6356 187.77 66.6016 187.707C66.5675 187.644 66.5505 187.57 66.5505 187.486C66.5505 187.405 66.5681 187.329 66.6034 187.257C66.64 187.185 66.6911 187.122 66.7567 187.066C66.8235 187.011 66.9036 186.967 66.9969 186.936C67.0902 186.904 67.1942 186.888 67.309 186.888C67.4729 186.888 67.6129 186.917 67.7289 186.975C67.8449 187.033 67.9338 187.111 67.9956 187.208C68.0574 187.304 68.0883 187.41 68.0883 187.528H67.7384C67.7384 187.471 67.7213 187.416 67.6873 187.363C67.6545 187.309 67.6059 187.264 67.5416 187.229C67.4786 187.193 67.401 187.176 67.309 187.176C67.2119 187.176 67.1331 187.191 67.0725 187.221C67.0133 187.25 66.9698 187.287 66.942 187.333C66.9155 187.378 66.9023 187.426 66.9023 187.476C66.9023 187.514 66.9086 187.548 66.9212 187.579C66.9351 187.608 66.9591 187.635 66.9931 187.66C67.0271 187.684 67.0751 187.707 67.1369 187.728C67.1986 187.749 67.2775 187.771 67.3733 187.792C67.541 187.83 67.6791 187.876 67.7875 187.929C67.896 187.982 67.9767 188.046 68.0296 188.123C68.0826 188.2 68.1091 188.294 68.1091 188.403C68.1091 188.493 68.0902 188.575 68.0523 188.649C68.0158 188.724 67.9622 188.788 67.8916 188.842C67.8222 188.895 67.739 188.937 67.6419 188.967C67.546 188.996 67.4382 189.01 67.3184 189.01C67.1381 189.01 66.9855 188.978 66.8607 188.914C66.7359 188.85 66.6413 188.766 66.577 188.664C66.5127 188.562 66.4805 188.454 66.4805 188.341H66.8323C66.8374 188.437 66.8651 188.513 66.9155 188.57C66.966 188.625 67.0278 188.665 67.1009 188.689C67.1741 188.712 67.2466 188.723 67.3184 188.723C67.4143 188.723 67.4943 188.71 67.5587 188.685C67.6242 188.66 67.674 188.625 67.7081 188.581C67.7421 188.537 67.7592 188.487 67.7592 188.43ZM69.6193 186.926V187.195H68.5127V186.926H69.6193ZM68.8873 186.429H69.2372V188.466C69.2372 188.535 69.2479 188.587 69.2693 188.623C69.2908 188.658 69.3185 188.681 69.3526 188.693C69.3866 188.704 69.4232 188.71 69.4623 188.71C69.4913 188.71 69.5215 188.707 69.5531 188.702C69.5859 188.696 69.6104 188.691 69.6268 188.687L69.6287 188.973C69.601 188.981 69.5644 188.99 69.519 188.997C69.4749 189.006 69.4213 189.01 69.3582 189.01C69.2725 189.01 69.1937 188.993 69.1218 188.959C69.0499 188.925 68.9925 188.869 68.9497 188.789C68.9081 188.708 68.8873 188.6 68.8873 188.464V186.429Z" fill="black"/>
<mask id="mask4_53364_48558" style="mask-type:alpha" maskUnits="userSpaceOnUse" x="93" y="171" width="12" height="13">
<rect x="93.3516" y="171.383" width="11.6214" height="11.6214" fill="white"/>
</mask>
<g mask="url(#mask4_53364_48558)">
<rect x="95.0468" y="173.078" width="8.23184" height="8.23184" rx="0.726339" fill="white" stroke="black" stroke-width="0.484226"/>
<line x1="99.1327" y1="175.014" x2="99.1327" y2="179.372" stroke="black" stroke-width="0.484226" stroke-linecap="round"/>
<line x1="96.9804" y1="177.22" x2="101.338" y2="177.22" stroke="black" stroke-width="0.484226" stroke-linecap="round"/>
</g>
<path d="M96.7626 186.463L95.8509 188.973H95.4783L96.5281 186.219H96.7683L96.7626 186.463ZM97.5268 188.973L96.6132 186.463L96.6075 186.219H96.8477L97.9013 188.973H97.5268ZM97.4795 187.953V188.252H95.9322V187.953H97.4795ZM99.7009 188.575V186.067H100.053V188.973H99.7311L99.7009 188.575ZM98.3239 187.972V187.932C98.3239 187.776 98.3428 187.634 98.3806 187.507C98.4197 187.378 98.4745 187.268 98.5452 187.176C98.617 187.084 98.7022 187.013 98.8005 186.964C98.9001 186.913 99.0111 186.888 99.1334 186.888C99.262 186.888 99.3743 186.911 99.4701 186.956C99.5672 187 99.6492 187.065 99.716 187.151C99.7841 187.236 99.8377 187.338 99.8768 187.458C99.9159 187.577 99.943 187.713 99.9581 187.864V188.038C99.9442 188.188 99.9171 188.323 99.8768 188.443C99.8377 188.563 99.7841 188.665 99.716 188.749C99.6492 188.834 99.5672 188.899 99.4701 188.944C99.373 188.988 99.2595 189.01 99.1296 189.01C99.0098 189.01 98.9001 188.985 98.8005 188.933C98.7022 188.881 98.617 188.809 98.5452 188.715C98.4745 188.622 98.4197 188.512 98.3806 188.386C98.3428 188.259 98.3239 188.121 98.3239 187.972ZM98.6757 187.932V187.972C98.6757 188.074 98.6858 188.17 98.7059 188.26C98.7274 188.349 98.7602 188.428 98.8043 188.496C98.8484 188.564 98.9045 188.618 98.9726 188.657C99.0407 188.695 99.1221 188.714 99.2166 188.714C99.3327 188.714 99.4279 188.689 99.5023 188.64C99.5779 188.591 99.6385 188.526 99.6838 188.445C99.7292 188.364 99.7646 188.277 99.7898 188.182V187.726C99.7746 187.657 99.7526 187.59 99.7236 187.526C99.6958 187.46 99.6593 187.402 99.6139 187.352C99.5697 187.3 99.5149 187.259 99.4493 187.229C99.385 187.198 99.3087 187.183 99.2204 187.183C99.1246 187.183 99.042 187.203 98.9726 187.244C98.9045 187.283 98.8484 187.337 98.8043 187.406C98.7602 187.475 98.7274 187.554 98.7059 187.645C98.6858 187.734 98.6757 187.83 98.6757 187.932ZM102.081 188.575V186.067H102.433V188.973H102.111L102.081 188.575ZM100.704 187.972V187.932C100.704 187.776 100.723 187.634 100.761 187.507C100.8 187.378 100.855 187.268 100.925 187.176C100.997 187.084 101.082 187.013 101.181 186.964C101.28 186.913 101.391 186.888 101.514 186.888C101.642 186.888 101.755 186.911 101.85 186.956C101.947 187 102.029 187.065 102.096 187.151C102.164 187.236 102.218 187.338 102.257 187.458C102.296 187.577 102.323 187.713 102.338 187.864V188.038C102.325 188.188 102.297 188.323 102.257 188.443C102.218 188.563 102.164 188.665 102.096 188.749C102.029 188.834 101.947 188.899 101.85 188.944C101.753 188.988 101.64 189.01 101.51 189.01C101.39 189.01 101.28 188.985 101.181 188.933C101.082 188.881 100.997 188.809 100.925 188.715C100.855 188.622 100.8 188.512 100.761 188.386C100.723 188.259 100.704 188.121 100.704 187.972ZM101.056 187.932V187.972C101.056 188.074 101.066 188.17 101.086 188.26C101.108 188.349 101.14 188.428 101.185 188.496C101.229 188.564 101.285 188.618 101.353 188.657C101.421 188.695 101.502 188.714 101.597 188.714C101.713 188.714 101.808 188.689 101.883 188.64C101.958 188.591 102.019 188.526 102.064 188.445C102.11 188.364 102.145 188.277 102.17 188.182V187.726C102.155 187.657 102.133 187.59 102.104 187.526C102.076 187.46 102.04 187.402 101.994 187.352C101.95 187.3 101.895 187.259 101.83 187.229C101.765 187.198 101.689 187.183 101.601 187.183C101.505 187.183 101.422 187.203 101.353 187.244C101.285 187.283 101.229 187.337 101.185 187.406C101.14 187.475 101.108 187.554 101.086 187.645C101.066 187.734 101.056 187.83 101.056 187.932Z" fill="black"/>
<path d="M140.56 174.746L140.56 174.746L140.562 174.747C141.047 175.091 141.36 175.653 141.36 176.293V179.895C141.36 180.943 140.51 181.793 139.462 181.793H134.058C133.01 181.793 132.16 180.943 132.16 179.895V174.491C132.16 173.444 133.01 172.593 134.058 172.593H135.182C135.551 172.593 135.763 172.653 135.913 172.741C136.067 172.831 136.182 172.965 136.339 173.174L136.339 173.175L137.017 174.075L137.017 174.076C137.022 174.082 137.027 174.088 137.031 174.094C137.092 174.174 137.165 174.273 137.274 174.33C137.394 174.393 137.53 174.395 137.661 174.395H139.462C139.625 174.395 139.782 174.416 139.935 174.458L139.935 174.458L139.942 174.46C140.164 174.515 140.374 174.612 140.56 174.746Z" stroke="black" stroke-width="0.484226"/>
<path d="M127.233 186.219H128.145C128.352 186.219 128.526 186.25 128.669 186.313C128.812 186.376 128.922 186.47 128.996 186.593C129.072 186.715 129.109 186.866 129.109 187.045C129.109 187.171 129.084 187.287 129.032 187.391C128.981 187.495 128.908 187.583 128.812 187.656C128.718 187.728 128.604 187.782 128.472 187.817L128.37 187.857H127.513L127.509 187.56H128.156C128.287 187.56 128.396 187.537 128.483 187.492C128.57 187.445 128.636 187.383 128.68 187.304C128.724 187.226 128.746 187.14 128.746 187.045C128.746 186.939 128.725 186.847 128.684 186.767C128.642 186.688 128.577 186.627 128.487 186.584C128.399 186.54 128.285 186.517 128.145 186.517H127.598V188.973H127.233V186.219ZM128.843 188.973L128.173 187.724L128.553 187.722L129.232 188.95V188.973H128.843ZM130.61 189.01C130.468 189.01 130.338 188.987 130.222 188.939C130.108 188.889 130.009 188.821 129.925 188.732C129.843 188.644 129.78 188.54 129.736 188.418C129.692 188.297 129.67 188.165 129.67 188.021V187.942C129.67 187.775 129.695 187.627 129.744 187.497C129.793 187.366 129.86 187.255 129.944 187.164C130.029 187.074 130.125 187.005 130.232 186.958C130.339 186.912 130.45 186.888 130.565 186.888C130.711 186.888 130.837 186.913 130.943 186.964C131.05 187.014 131.138 187.085 131.206 187.176C131.274 187.265 131.325 187.371 131.357 187.493C131.39 187.615 131.406 187.747 131.406 187.891V188.048H129.878V187.762H131.057V187.736C131.052 187.645 131.033 187.557 131 187.471C130.968 187.385 130.918 187.314 130.848 187.259C130.779 187.203 130.685 187.176 130.565 187.176C130.485 187.176 130.412 187.193 130.345 187.227C130.279 187.26 130.221 187.309 130.173 187.374C130.125 187.44 130.088 187.52 130.062 187.615C130.035 187.709 130.022 187.818 130.022 187.942V188.021C130.022 188.118 130.035 188.21 130.062 188.295C130.089 188.38 130.129 188.454 130.181 188.519C130.234 188.583 130.297 188.633 130.372 188.67C130.447 188.707 130.533 188.725 130.629 188.725C130.753 188.725 130.857 188.7 130.943 188.649C131.029 188.599 131.104 188.531 131.168 188.447L131.38 188.615C131.336 188.682 131.28 188.746 131.212 188.806C131.144 188.867 131.06 188.916 130.96 188.954C130.862 188.992 130.745 189.01 130.61 189.01ZM133.2 188.43C133.2 188.379 133.189 188.333 133.166 188.29C133.145 188.246 133.1 188.206 133.032 188.171C132.965 188.134 132.864 188.103 132.729 188.076C132.616 188.052 132.513 188.024 132.421 187.991C132.33 187.958 132.253 187.918 132.188 187.872C132.125 187.825 132.077 187.77 132.043 187.707C132.009 187.644 131.992 187.57 131.992 187.486C131.992 187.405 132.009 187.329 132.045 187.257C132.081 187.185 132.132 187.122 132.198 187.066C132.265 187.011 132.345 186.967 132.438 186.936C132.531 186.904 132.635 186.888 132.75 186.888C132.914 186.888 133.054 186.917 133.17 186.975C133.286 187.033 133.375 187.111 133.437 187.208C133.499 187.304 133.53 187.41 133.53 187.528H133.18C133.18 187.471 133.163 187.416 133.129 187.363C133.096 187.309 133.047 187.264 132.983 187.229C132.92 187.193 132.842 187.176 132.75 187.176C132.653 187.176 132.574 187.191 132.514 187.221C132.455 187.25 132.411 187.287 132.383 187.333C132.357 187.378 132.344 187.426 132.344 187.476C132.344 187.514 132.35 187.548 132.362 187.579C132.376 187.608 132.4 187.635 132.434 187.66C132.468 187.684 132.516 187.707 132.578 187.728C132.64 187.749 132.719 187.771 132.815 187.792C132.982 187.83 133.12 187.876 133.229 187.929C133.337 187.982 133.418 188.046 133.471 188.123C133.524 188.2 133.55 188.294 133.55 188.403C133.55 188.493 133.531 188.575 133.494 188.649C133.457 188.724 133.403 188.788 133.333 188.842C133.263 188.895 133.18 188.937 133.083 188.967C132.987 188.996 132.879 189.01 132.76 189.01C132.579 189.01 132.427 188.978 132.302 188.914C132.177 188.85 132.083 188.766 132.018 188.664C131.954 188.562 131.922 188.454 131.922 188.341H132.274C132.279 188.437 132.306 188.513 132.357 188.57C132.407 188.625 132.469 188.665 132.542 188.689C132.615 188.712 132.688 188.723 132.76 188.723C132.856 188.723 132.936 188.71 133 188.685C133.065 188.66 133.115 188.625 133.149 188.581C133.183 188.537 133.2 188.487 133.2 188.43ZM134.111 187.972V187.929C134.111 187.781 134.132 187.644 134.175 187.518C134.218 187.391 134.28 187.28 134.361 187.187C134.441 187.092 134.539 187.019 134.654 186.968C134.769 186.915 134.897 186.888 135.04 186.888C135.183 186.888 135.313 186.915 135.427 186.968C135.543 187.019 135.642 187.092 135.723 187.187C135.804 187.28 135.867 187.391 135.91 187.518C135.953 187.644 135.974 187.781 135.974 187.929V187.972C135.974 188.12 135.953 188.256 135.91 188.383C135.867 188.509 135.804 188.619 135.723 188.714C135.642 188.807 135.544 188.88 135.429 188.933C135.316 188.985 135.187 189.01 135.043 189.01C134.9 189.01 134.77 188.985 134.656 188.933C134.541 188.88 134.443 188.807 134.361 188.714C134.28 188.619 134.218 188.509 134.175 188.383C134.132 188.256 134.111 188.12 134.111 187.972ZM134.461 187.929V187.972C134.461 188.074 134.473 188.171 134.497 188.261C134.521 188.351 134.557 188.43 134.605 188.5C134.654 188.569 134.715 188.624 134.788 188.664C134.861 188.703 134.946 188.723 135.043 188.723C135.139 188.723 135.223 188.703 135.295 188.664C135.368 188.624 135.429 188.569 135.477 188.5C135.525 188.43 135.56 188.351 135.584 188.261C135.61 188.171 135.622 188.074 135.622 187.972V187.929C135.622 187.828 135.61 187.732 135.584 187.643C135.56 187.552 135.524 187.472 135.475 187.403C135.427 187.332 135.366 187.277 135.293 187.236C135.221 187.196 135.137 187.176 135.04 187.176C134.944 187.176 134.859 187.196 134.786 187.236C134.714 187.277 134.654 187.332 134.605 187.403C134.557 187.472 134.521 187.552 134.497 187.643C134.473 187.732 134.461 187.828 134.461 187.929ZM137.859 188.5V186.926H138.211V188.973H137.876L137.859 188.5ZM137.925 188.069L138.071 188.065C138.071 188.201 138.056 188.327 138.027 188.443C137.999 188.558 137.954 188.657 137.891 188.742C137.828 188.826 137.745 188.893 137.643 188.941C137.541 188.987 137.417 189.01 137.271 189.01C137.171 189.01 137.079 188.996 136.996 188.967C136.914 188.938 136.844 188.893 136.784 188.833C136.725 188.772 136.679 188.693 136.646 188.596C136.615 188.499 136.599 188.383 136.599 188.246V186.926H136.949V188.25C136.949 188.342 136.959 188.418 136.979 188.479C137.001 188.538 137.029 188.586 137.064 188.621C137.101 188.655 137.141 188.679 137.185 188.693C137.231 188.707 137.277 188.714 137.325 188.714C137.474 188.714 137.592 188.685 137.679 188.628C137.766 188.57 137.829 188.493 137.866 188.396C137.905 188.297 137.925 188.188 137.925 188.069ZM139.288 187.248V188.973H138.938V186.926H139.278L139.288 187.248ZM139.927 186.915L139.925 187.24C139.896 187.234 139.868 187.23 139.842 187.229C139.817 187.226 139.788 187.225 139.755 187.225C139.674 187.225 139.603 187.238 139.541 187.263C139.479 187.288 139.427 187.323 139.384 187.369C139.341 187.414 139.307 187.468 139.282 187.531C139.258 187.593 139.242 187.661 139.235 187.736L139.136 187.792C139.136 187.669 139.148 187.553 139.172 187.444C139.197 187.336 139.236 187.24 139.288 187.157C139.339 187.072 139.405 187.007 139.484 186.96C139.565 186.912 139.661 186.888 139.772 186.888C139.797 186.888 139.826 186.891 139.859 186.898C139.892 186.903 139.914 186.908 139.927 186.915ZM141.225 188.723C141.309 188.723 141.385 188.706 141.456 188.672C141.527 188.638 141.585 188.591 141.63 188.532C141.675 188.471 141.701 188.403 141.708 188.326H142.041C142.034 188.447 141.993 188.56 141.918 188.664C141.843 188.768 141.745 188.852 141.624 188.916C141.503 188.979 141.37 189.01 141.225 189.01C141.071 189.01 140.937 188.983 140.822 188.929C140.709 188.875 140.614 188.801 140.539 188.706C140.464 188.611 140.408 188.503 140.37 188.381C140.334 188.257 140.315 188.127 140.315 187.989V187.91C140.315 187.772 140.334 187.642 140.37 187.52C140.408 187.396 140.464 187.287 140.539 187.193C140.614 187.098 140.709 187.024 140.822 186.97C140.937 186.915 141.071 186.888 141.225 186.888C141.385 186.888 141.525 186.921 141.645 186.987C141.765 187.051 141.859 187.139 141.927 187.251C141.996 187.362 142.034 187.488 142.041 187.63H141.708C141.701 187.545 141.677 187.469 141.636 187.401C141.595 187.333 141.54 187.278 141.469 187.238C141.4 187.197 141.319 187.176 141.225 187.176C141.118 187.176 141.028 187.197 140.955 187.24C140.883 187.282 140.826 187.338 140.783 187.41C140.741 187.481 140.711 187.56 140.692 187.647C140.674 187.732 140.665 187.82 140.665 187.91V187.989C140.665 188.079 140.674 188.167 140.692 188.254C140.71 188.341 140.739 188.42 140.781 188.49C140.824 188.561 140.881 188.618 140.953 188.661C141.026 188.702 141.117 188.723 141.225 188.723ZM143.477 189.01C143.334 189.01 143.205 188.987 143.089 188.939C142.974 188.889 142.875 188.821 142.792 188.732C142.71 188.644 142.647 188.54 142.603 188.418C142.559 188.297 142.537 188.165 142.537 188.021V187.942C142.537 187.775 142.561 187.627 142.611 187.497C142.66 187.366 142.727 187.255 142.811 187.164C142.896 187.074 142.991 187.005 143.099 186.958C143.206 186.912 143.317 186.888 143.432 186.888C143.578 186.888 143.704 186.913 143.81 186.964C143.917 187.014 144.005 187.085 144.073 187.176C144.141 187.265 144.191 187.371 144.224 187.493C144.257 187.615 144.273 187.747 144.273 187.891V188.048H142.745V187.762H143.923V187.736C143.918 187.645 143.899 187.557 143.867 187.471C143.835 187.385 143.785 187.314 143.715 187.259C143.646 187.203 143.551 187.176 143.432 187.176C143.352 187.176 143.279 187.193 143.212 187.227C143.145 187.26 143.088 187.309 143.04 187.374C142.992 187.44 142.955 187.52 142.928 187.615C142.902 187.709 142.889 187.818 142.889 187.942V188.021C142.889 188.118 142.902 188.21 142.928 188.295C142.956 188.38 142.996 188.454 143.048 188.519C143.101 188.583 143.164 188.633 143.239 188.67C143.314 188.707 143.4 188.725 143.496 188.725C143.619 188.725 143.724 188.7 143.81 188.649C143.896 188.599 143.971 188.531 144.035 188.447L144.247 188.615C144.203 188.682 144.147 188.746 144.078 188.806C144.01 188.867 143.926 188.916 143.827 188.954C143.729 188.992 143.612 189.01 143.477 189.01ZM146.067 188.43C146.067 188.379 146.056 188.333 146.033 188.29C146.012 188.246 145.967 188.206 145.899 188.171C145.832 188.134 145.731 188.103 145.596 188.076C145.483 188.052 145.38 188.024 145.288 187.991C145.197 187.958 145.12 187.918 145.055 187.872C144.992 187.825 144.944 187.77 144.91 187.707C144.876 187.644 144.859 187.57 144.859 187.486C144.859 187.405 144.876 187.329 144.911 187.257C144.948 187.185 144.999 187.122 145.065 187.066C145.132 187.011 145.212 186.967 145.305 186.936C145.398 186.904 145.502 186.888 145.617 186.888C145.781 186.888 145.921 186.917 146.037 186.975C146.153 187.033 146.242 187.111 146.304 187.208C146.365 187.304 146.396 187.41 146.396 187.528H146.046C146.046 187.471 146.029 187.416 145.995 187.363C145.963 187.309 145.914 187.264 145.85 187.229C145.787 187.193 145.709 187.176 145.617 187.176C145.52 187.176 145.441 187.191 145.381 187.221C145.321 187.25 145.278 187.287 145.25 187.333C145.224 187.378 145.21 187.426 145.21 187.476C145.21 187.514 145.217 187.548 145.229 187.579C145.243 187.608 145.267 187.635 145.301 187.66C145.335 187.684 145.383 187.707 145.445 187.728C145.507 187.749 145.585 187.771 145.681 187.792C145.849 187.83 145.987 187.876 146.096 187.929C146.204 187.982 146.285 188.046 146.338 188.123C146.391 188.2 146.417 188.294 146.417 188.403C146.417 188.493 146.398 188.575 146.36 188.649C146.324 188.724 146.27 188.788 146.2 188.842C146.13 188.895 146.047 188.937 145.95 188.967C145.854 188.996 145.746 189.01 145.626 189.01C145.446 189.01 145.294 188.978 145.169 188.914C145.044 188.85 144.949 188.766 144.885 188.664C144.821 188.562 144.789 188.454 144.789 188.341H145.14C145.145 188.437 145.173 188.513 145.224 188.57C145.274 188.625 145.336 188.665 145.409 188.689C145.482 188.712 145.555 188.723 145.626 188.723C145.722 188.723 145.802 188.71 145.867 188.685C145.932 188.66 145.982 188.625 146.016 188.581C146.05 188.537 146.067 188.487 146.067 188.43Z" fill="black"/>
<mask id="mask5_53364_48558" style="mask-type:alpha" maskUnits="userSpaceOnUse" x="168" y="171" width="13" height="13">
<rect x="168.551" y="171.383" width="11.6214" height="11.6214" fill="white"/>
</mask>
<g mask="url(#mask5_53364_48558)">
<circle cx="174.363" cy="174.772" r="2.17902" fill="white" stroke="black" stroke-width="0.484226"/>
<path d="M177.994 180.099C177.994 180.654 177.633 181.193 176.973 181.606C176.316 182.016 175.394 182.278 174.362 182.278C173.33 182.278 172.408 182.016 171.751 181.606C171.091 181.193 170.73 180.654 170.73 180.099C170.73 179.544 171.091 179.005 171.751 178.592C172.408 178.182 173.33 177.92 174.362 177.92C175.394 177.92 176.316 178.182 176.973 178.592C177.633 179.005 177.994 179.544 177.994 180.099Z" fill="white" stroke="black" stroke-width="0.484226"/>
</g>
<path d="M171.983 186.219H172.337L173.239 188.464L174.14 186.219H174.495L173.376 188.973H173.099L171.983 186.219ZM171.868 186.219H172.18L172.231 187.898V188.973H171.868V186.219ZM174.297 186.219H174.609V188.973H174.246V187.898L174.297 186.219ZM176.24 189.01C176.098 189.01 175.968 188.987 175.852 188.939C175.738 188.889 175.639 188.821 175.555 188.732C175.473 188.644 175.41 188.54 175.366 188.418C175.322 188.297 175.3 188.165 175.3 188.021V187.942C175.3 187.775 175.325 187.627 175.374 187.497C175.423 187.366 175.49 187.255 175.574 187.164C175.659 187.074 175.755 187.005 175.862 186.958C175.969 186.912 176.08 186.888 176.195 186.888C176.341 186.888 176.467 186.913 176.573 186.964C176.68 187.014 176.768 187.085 176.836 187.176C176.904 187.265 176.954 187.371 176.987 187.493C177.02 187.615 177.036 187.747 177.036 187.891V188.048H175.508V187.762H176.686V187.736C176.681 187.645 176.662 187.557 176.63 187.471C176.598 187.385 176.548 187.314 176.478 187.259C176.409 187.203 176.314 187.176 176.195 187.176C176.115 187.176 176.042 187.193 175.975 187.227C175.908 187.26 175.851 187.309 175.803 187.374C175.755 187.44 175.718 187.52 175.691 187.615C175.665 187.709 175.652 187.818 175.652 187.942V188.021C175.652 188.118 175.665 188.21 175.691 188.295C175.719 188.38 175.759 188.454 175.811 188.519C175.864 188.583 175.927 188.633 176.002 188.67C176.077 188.707 176.163 188.725 176.259 188.725C176.383 188.725 176.487 188.7 176.573 188.649C176.659 188.599 176.734 188.531 176.798 188.447L177.01 188.615C176.966 188.682 176.91 188.746 176.842 188.806C176.773 188.867 176.69 188.916 176.59 188.954C176.492 188.992 176.375 189.01 176.24 189.01Z" fill="black"/>
</g>
</g>
<rect x="157" y="61.7061" width="133.266" height="90.2951" rx="4.07486" fill="white"/>
<path d="M167.708 81.0234C167.806 81.1216 167.815 81.2752 167.735 81.3835L167.708 81.4145L165.323 83.8001L167.708 86.1857C167.806 86.2839 167.815 86.4376 167.735 86.5458L167.708 86.5769C167.61 86.675 167.456 86.684 167.348 86.6036L167.317 86.5769L164.736 83.9957C164.638 83.8975 164.629 83.7438 164.709 83.6356L164.736 83.6046L167.317 81.0234C167.425 80.9154 167.6 80.9154 167.708 81.0234Z" fill="black"/>
<path d="M172.755 80.5816H174.317C174.672 80.5816 174.971 80.6356 175.215 80.7436C175.461 80.8516 175.648 81.0115 175.776 81.2233C175.905 81.4328 175.97 81.691 175.97 81.9978C175.97 82.2139 175.926 82.4116 175.837 82.5909C175.751 82.7681 175.625 82.9193 175.461 83.0446C175.299 83.1678 175.105 83.2596 174.878 83.3201L174.703 83.3882H173.235L173.228 82.8794H174.337C174.561 82.8794 174.748 82.8405 174.897 82.7627C175.046 82.6827 175.159 82.5758 175.234 82.4418C175.31 82.3079 175.348 82.1599 175.348 81.9978C175.348 81.8163 175.312 81.6575 175.241 81.5214C175.17 81.3853 175.057 81.2805 174.904 81.2071C174.753 81.1314 174.557 81.0936 174.317 81.0936H173.381V85.3003H172.755V80.5816ZM175.513 85.3003L174.366 83.1613L175.017 83.1581L176.181 85.2614V85.3003H175.513ZM178.21 85.3651C177.965 85.3651 177.744 85.3241 177.545 85.242C177.349 85.1577 177.179 85.0399 177.036 84.8887C176.896 84.7375 176.788 84.5581 176.712 84.3507C176.637 84.1433 176.599 83.9164 176.599 83.6701V83.534C176.599 83.2488 176.641 82.9949 176.725 82.7724C176.809 82.5477 176.924 82.3576 177.069 82.202C177.213 82.0465 177.378 81.9287 177.561 81.8488C177.745 81.7688 177.935 81.7288 178.132 81.7288C178.382 81.7288 178.598 81.7721 178.78 81.8585C178.964 81.9449 179.114 82.0659 179.23 82.2215C179.347 82.3749 179.433 82.5563 179.49 82.7659C179.546 82.9733 179.574 83.2002 179.574 83.4465V83.7155H176.955V83.2261H178.974V83.1808C178.966 83.0252 178.933 82.874 178.877 82.727C178.823 82.5801 178.737 82.4591 178.618 82.3641C178.499 82.269 178.337 82.2215 178.132 82.2215C177.996 82.2215 177.87 82.2506 177.756 82.309C177.641 82.3651 177.543 82.4494 177.461 82.5618C177.379 82.6741 177.315 82.8113 177.27 82.9733C177.224 83.1354 177.202 83.3223 177.202 83.534V83.6701C177.202 83.8365 177.224 83.9931 177.27 84.1401C177.317 84.2848 177.385 84.4123 177.474 84.5225C177.565 84.6327 177.674 84.7191 177.801 84.7818C177.931 84.8444 178.078 84.8757 178.242 84.8757C178.454 84.8757 178.633 84.8325 178.78 84.7461C178.927 84.6597 179.055 84.5441 179.166 84.3993L179.529 84.6878C179.453 84.8023 179.357 84.9114 179.24 85.0151C179.123 85.1188 178.98 85.2031 178.809 85.2679C178.641 85.3327 178.441 85.3651 178.21 85.3651ZM182.316 84.3702C182.316 84.2837 182.296 84.2038 182.257 84.1303C182.221 84.0547 182.144 83.9867 182.027 83.9262C181.913 83.8635 181.74 83.8095 181.509 83.7641C181.314 83.7231 181.138 83.6745 180.98 83.6183C180.825 83.5621 180.692 83.494 180.582 83.4141C180.474 83.3342 180.391 83.2402 180.332 83.1321C180.274 83.0241 180.245 82.8977 180.245 82.753C180.245 82.6147 180.275 82.484 180.336 82.3608C180.398 82.2377 180.486 82.1286 180.598 82.0335C180.713 81.9384 180.85 81.8639 181.01 81.8099C181.17 81.7559 181.348 81.7288 181.544 81.7288C181.825 81.7288 182.065 81.7785 182.264 81.8779C182.463 81.9773 182.615 82.1102 182.721 82.2766C182.827 82.4408 182.88 82.6233 182.88 82.8243H182.28C182.28 82.727 182.251 82.633 182.193 82.5423C182.136 82.4494 182.053 82.3727 181.943 82.3122C181.835 82.2517 181.702 82.2215 181.544 82.2215C181.378 82.2215 181.243 82.2474 181.139 82.2992C181.038 82.3489 180.963 82.4127 180.916 82.4905C180.87 82.5682 180.848 82.6503 180.848 82.7368C180.848 82.8016 180.858 82.8599 180.88 82.9118C180.904 82.9615 180.945 83.0079 181.003 83.0511C181.061 83.0922 181.144 83.1311 181.249 83.1678C181.355 83.2045 181.49 83.2413 181.655 83.278C181.942 83.3428 182.179 83.4206 182.364 83.5113C182.55 83.6021 182.688 83.7133 182.779 83.8451C182.87 83.9769 182.915 84.1368 182.915 84.3248C182.915 84.4782 182.883 84.6186 182.818 84.7461C182.755 84.8736 182.664 84.9838 182.543 85.0767C182.424 85.1674 182.281 85.2387 182.115 85.2906C181.951 85.3403 181.766 85.3651 181.561 85.3651C181.252 85.3651 180.99 85.31 180.776 85.1998C180.562 85.0896 180.4 84.947 180.29 84.772C180.18 84.597 180.125 84.4123 180.125 84.2178H180.728C180.736 84.382 180.784 84.5128 180.87 84.61C180.957 84.7051 181.063 84.7731 181.188 84.8142C181.313 84.8531 181.437 84.8725 181.561 84.8725C181.725 84.8725 181.862 84.8509 181.972 84.8077C182.085 84.7645 182.17 84.7051 182.228 84.6294C182.287 84.5538 182.316 84.4674 182.316 84.3702ZM183.544 83.5859V83.5113C183.544 83.2585 183.581 83.0241 183.654 82.8081C183.728 82.5898 183.834 82.4008 183.972 82.2409C184.11 82.0789 184.278 81.9535 184.474 81.865C184.671 81.7742 184.891 81.7288 185.135 81.7288C185.382 81.7288 185.603 81.7742 185.8 81.865C185.998 81.9535 186.167 82.0789 186.305 82.2409C186.446 82.4008 186.553 82.5898 186.626 82.8081C186.7 83.0241 186.736 83.2585 186.736 83.5113V83.5859C186.736 83.8387 186.7 84.0731 186.626 84.2891C186.553 84.5052 186.446 84.6942 186.305 84.8563C186.167 85.0162 186 85.1415 185.803 85.2322C185.608 85.3208 185.388 85.3651 185.142 85.3651C184.895 85.3651 184.674 85.3208 184.477 85.2322C184.281 85.1415 184.112 85.0162 183.972 84.8563C183.834 84.6942 183.728 84.5052 183.654 84.2891C183.581 84.0731 183.544 83.8387 183.544 83.5859ZM184.144 83.5113V83.5859C184.144 83.7609 184.164 83.9262 184.205 84.0817C184.246 84.2351 184.308 84.3712 184.39 84.4901C184.474 84.6089 184.579 84.7029 184.704 84.772C184.83 84.839 184.975 84.8725 185.142 84.8725C185.306 84.8725 185.45 84.839 185.573 84.772C185.698 84.7029 185.802 84.6089 185.884 84.4901C185.966 84.3712 186.028 84.2351 186.069 84.0817C186.112 83.9262 186.133 83.7609 186.133 83.5859V83.5113C186.133 83.3385 186.112 83.1754 186.069 83.022C186.028 82.8664 185.965 82.7292 185.881 82.6104C185.799 82.4894 185.695 82.3943 185.57 82.3252C185.446 82.256 185.302 82.2215 185.135 82.2215C184.971 82.2215 184.826 82.256 184.701 82.3252C184.578 82.3943 184.474 82.4894 184.39 82.6104C184.308 82.7292 184.246 82.8664 184.205 83.022C184.164 83.1754 184.144 83.3385 184.144 83.5113ZM189.634 84.4901V81.7937H190.236V85.3003H189.663L189.634 84.4901ZM189.747 83.7512L189.997 83.7447C189.997 83.978 189.972 84.1941 189.922 84.3928C189.875 84.5895 189.797 84.7601 189.689 84.9049C189.581 85.0497 189.439 85.1631 189.264 85.2452C189.089 85.3251 188.876 85.3651 188.626 85.3651C188.455 85.3651 188.298 85.3403 188.156 85.2906C188.015 85.2409 187.894 85.1642 187.793 85.0605C187.691 84.9568 187.612 84.8217 187.556 84.6554C187.502 84.489 187.475 84.2891 187.475 84.0558V81.7937H188.075V84.0623C188.075 84.22 188.092 84.3507 188.127 84.4544C188.163 84.556 188.212 84.637 188.272 84.6975C188.335 84.7558 188.404 84.7969 188.48 84.8206C188.558 84.8444 188.638 84.8563 188.72 84.8563C188.975 84.8563 189.177 84.8077 189.326 84.7105C189.475 84.6111 189.582 84.4782 189.647 84.3118C189.714 84.1433 189.747 83.9564 189.747 83.7512ZM191.75 82.3446V85.3003H191.15V81.7937H191.734L191.75 82.3446ZM192.845 81.7742L192.842 82.3316C192.792 82.3208 192.745 82.3144 192.699 82.3122C192.656 82.3079 192.607 82.3057 192.55 82.3057C192.412 82.3057 192.29 82.3273 192.184 82.3705C192.078 82.4138 191.989 82.4742 191.915 82.552C191.842 82.6298 191.783 82.7227 191.74 82.8307C191.699 82.9366 191.672 83.0533 191.659 83.1808L191.491 83.278C191.491 83.0662 191.511 82.8675 191.552 82.6817C191.595 82.4959 191.661 82.3316 191.75 82.189C191.838 82.0443 191.951 81.9319 192.087 81.852C192.225 81.7699 192.389 81.7288 192.58 81.7288C192.623 81.7288 192.672 81.7342 192.729 81.745C192.785 81.7537 192.824 81.7634 192.845 81.7742ZM194.738 84.8725C194.881 84.8725 195.012 84.8433 195.133 84.785C195.254 84.7267 195.354 84.6467 195.432 84.5452C195.509 84.4415 195.554 84.3237 195.564 84.1919H196.135C196.124 84.3993 196.054 84.5927 195.924 84.772C195.797 84.9492 195.629 85.0929 195.422 85.2031C195.214 85.3111 194.986 85.3651 194.738 85.3651C194.474 85.3651 194.244 85.3187 194.048 85.2258C193.853 85.1328 193.691 85.0054 193.562 84.8433C193.434 84.6813 193.338 84.4955 193.273 84.2859C193.21 84.0742 193.179 83.8505 193.179 83.615V83.4789C193.179 83.2434 193.21 83.0209 193.273 82.8113C193.338 82.5996 193.434 82.4127 193.562 82.2506C193.691 82.0886 193.853 81.9611 194.048 81.8682C194.244 81.7753 194.474 81.7288 194.738 81.7288C195.012 81.7288 195.252 81.785 195.457 81.8974C195.663 82.0076 195.824 82.1588 195.94 82.3511C196.059 82.5412 196.124 82.7573 196.135 82.9993H195.564C195.554 82.8545 195.513 82.7238 195.441 82.6071C195.372 82.4905 195.277 82.3975 195.156 82.3284C195.037 82.2571 194.898 82.2215 194.738 82.2215C194.554 82.2215 194.4 82.2582 194.275 82.3316C194.151 82.4029 194.053 82.5002 193.98 82.6233C193.908 82.7443 193.856 82.8794 193.824 83.0284C193.794 83.1754 193.779 83.3255 193.779 83.4789V83.615C193.779 83.7684 193.794 83.9197 193.824 84.0688C193.854 84.2178 193.905 84.3529 193.976 84.4739C194.05 84.5949 194.148 84.6921 194.271 84.7655C194.397 84.8368 194.552 84.8725 194.738 84.8725ZM198.264 85.3651C198.02 85.3651 197.798 85.3241 197.6 85.242C197.403 85.1577 197.233 85.0399 197.091 84.8887C196.95 84.7375 196.842 84.5581 196.767 84.3507C196.691 84.1433 196.653 83.9164 196.653 83.6701V83.534C196.653 83.2488 196.695 82.9949 196.78 82.7724C196.864 82.5477 196.979 82.3576 197.123 82.202C197.268 82.0465 197.432 81.9287 197.616 81.8488C197.8 81.7688 197.99 81.7288 198.186 81.7288C198.437 81.7288 198.653 81.7721 198.834 81.8585C199.018 81.9449 199.168 82.0659 199.285 82.2215C199.402 82.3749 199.488 82.5563 199.544 82.7659C199.6 82.9733 199.628 83.2002 199.628 83.4465V83.7155H197.01V83.2261H199.029V83.1808C199.02 83.0252 198.988 82.874 198.932 82.727C198.878 82.5801 198.791 82.4591 198.672 82.3641C198.554 82.269 198.392 82.2215 198.186 82.2215C198.05 82.2215 197.925 82.2506 197.81 82.309C197.696 82.3651 197.598 82.4494 197.515 82.5618C197.433 82.6741 197.37 82.8113 197.324 82.9733C197.279 83.1354 197.256 83.3223 197.256 83.534V83.6701C197.256 83.8365 197.279 83.9931 197.324 84.1401C197.372 84.2848 197.44 84.4123 197.528 84.5225C197.619 84.6327 197.728 84.7191 197.856 84.7818C197.985 84.8444 198.132 84.8757 198.296 84.8757C198.508 84.8757 198.688 84.8325 198.834 84.7461C198.981 84.6597 199.11 84.5441 199.22 84.3993L199.583 84.6878C199.507 84.8023 199.411 84.9114 199.295 85.0151C199.178 85.1188 199.034 85.2031 198.864 85.2679C198.695 85.3327 198.495 85.3651 198.264 85.3651ZM202.37 84.3702C202.37 84.2837 202.351 84.2038 202.312 84.1303C202.275 84.0547 202.199 83.9867 202.082 83.9262C201.967 83.8635 201.794 83.8095 201.563 83.7641C201.369 83.7231 201.193 83.6745 201.035 83.6183C200.879 83.5621 200.747 83.494 200.636 83.4141C200.528 83.3342 200.445 83.2402 200.387 83.1321C200.329 83.0241 200.299 82.8977 200.299 82.753C200.299 82.6147 200.33 82.484 200.39 82.3608C200.453 82.2377 200.54 82.1286 200.653 82.0335C200.767 81.9384 200.904 81.8639 201.064 81.8099C201.224 81.7559 201.402 81.7288 201.599 81.7288C201.88 81.7288 202.12 81.7785 202.318 81.8779C202.517 81.9773 202.67 82.1102 202.775 82.2766C202.881 82.4408 202.934 82.6233 202.934 82.8243H202.335C202.335 82.727 202.305 82.633 202.247 82.5423C202.191 82.4494 202.108 82.3727 201.998 82.3122C201.89 82.2517 201.757 82.2215 201.599 82.2215C201.433 82.2215 201.298 82.2474 201.194 82.2992C201.092 82.3489 201.018 82.4127 200.97 82.4905C200.925 82.5682 200.902 82.6503 200.902 82.7368C200.902 82.8016 200.913 82.8599 200.935 82.9118C200.958 82.9615 200.999 83.0079 201.058 83.0511C201.116 83.0922 201.198 83.1311 201.304 83.1678C201.41 83.2045 201.545 83.2413 201.709 83.278C201.996 83.3428 202.233 83.4206 202.419 83.5113C202.605 83.6021 202.743 83.7133 202.834 83.8451C202.924 83.9769 202.97 84.1368 202.97 84.3248C202.97 84.4782 202.937 84.6186 202.873 84.7461C202.81 84.8736 202.718 84.9838 202.597 85.0767C202.478 85.1674 202.336 85.2387 202.169 85.2906C202.005 85.3403 201.82 85.3651 201.615 85.3651C201.306 85.3651 201.045 85.31 200.831 85.1998C200.617 85.0896 200.455 84.947 200.345 84.772C200.235 84.597 200.179 84.4123 200.179 84.2178H200.782C200.791 84.382 200.838 84.5128 200.925 84.61C201.011 84.7051 201.117 84.7731 201.242 84.8142C201.368 84.8531 201.492 84.8725 201.615 84.8725C201.779 84.8725 201.917 84.8509 202.027 84.8077C202.139 84.7645 202.224 84.7051 202.283 84.6294C202.341 84.5538 202.37 84.4674 202.37 84.3702Z" fill="black"/>
<g filter="url(#filter1_d_53364_48558)">
<rect x="111.547" y="125.503" width="223.457" height="32.0406" rx="3.56006" fill="white"/>
<rect x="115.09" y="129.047" width="24.806" height="24.806" rx="12.403" fill="#E3F0FF"/>
<path d="M131.034 137.906H123.947C123.829 137.906 123.717 137.953 123.634 138.036C123.551 138.119 123.504 138.232 123.504 138.349V139.678C123.504 139.796 123.551 139.908 123.634 139.991C123.717 140.074 123.829 140.121 123.947 140.121C124.064 140.121 124.177 140.074 124.26 139.991C124.343 139.908 124.39 139.796 124.39 139.678V138.792H127.048V144.551H126.162C126.044 144.551 125.932 144.597 125.848 144.68C125.765 144.764 125.719 144.876 125.719 144.994C125.719 145.111 125.765 145.224 125.848 145.307C125.932 145.39 126.044 145.437 126.162 145.437H128.819C128.937 145.437 129.05 145.39 129.133 145.307C129.216 145.224 129.262 145.111 129.262 144.994C129.262 144.876 129.216 144.764 129.133 144.68C129.05 144.597 128.937 144.551 128.819 144.551H127.934V138.792H130.591V139.678C130.591 139.796 130.638 139.908 130.721 139.991C130.804 140.074 130.917 140.121 131.034 140.121C131.152 140.121 131.264 140.074 131.348 139.991C131.431 139.908 131.477 139.796 131.477 139.678V138.349C131.477 138.232 131.431 138.119 131.348 138.036C131.264 137.953 131.152 137.906 131.034 137.906Z" fill="black"/>
<rect x="146.984" y="129.047" width="24.806" height="24.806" rx="12.403" fill="#E3F0FF"/>
<path fill-rule="evenodd" clip-rule="evenodd" d="M157.258 138.274C157.436 137.951 157.629 137.734 157.917 137.62C158.444 137.411 160.33 137.411 160.856 137.62C161.143 137.734 161.337 137.951 161.515 138.274L161.716 138.658C161.72 138.666 161.724 138.673 161.728 138.678L161.745 138.702C161.837 138.801 161.989 138.861 162.09 138.861C163.043 138.861 163.816 139.634 163.816 140.587V143.154C163.816 144.369 162.83 145.355 161.615 145.355H157.159C155.943 145.355 154.957 144.37 154.957 143.154V140.587C154.957 139.634 155.73 138.861 156.683 138.861C156.784 138.861 156.937 138.801 157.028 138.702C157.03 138.7 157.032 138.697 157.035 138.693L157.058 138.658L157.258 138.274ZM160.933 138.595C160.823 138.394 160.723 138.282 160.61 138.237L160.558 138.22C160.102 138.091 158.516 138.097 158.162 138.237C158.05 138.282 157.95 138.394 157.84 138.595L157.669 138.924L157.627 139C157.592 139.058 157.557 139.108 157.517 139.151C157.293 139.395 156.961 139.526 156.683 139.526L156.611 139.528C156.058 139.565 155.621 140.025 155.621 140.587V143.154C155.621 144.003 156.31 144.691 157.159 144.691H161.615C162.463 144.691 163.152 144.003 163.152 143.154V140.587C163.152 140.001 162.676 139.526 162.09 139.526L162.013 139.522C161.752 139.501 161.459 139.373 161.256 139.151C161.216 139.108 161.181 139.059 161.147 139.001C161.142 138.993 161.135 138.982 161.128 138.969L161.077 138.873L160.933 138.595Z" fill="black"/>
<path d="M161.822 139.899C162.067 139.899 162.265 140.098 162.265 140.342C162.265 140.57 162.094 140.757 161.874 140.782L161.822 140.785C161.573 140.785 161.375 140.587 161.375 140.342C161.375 140.115 161.546 139.928 161.766 139.902L161.822 139.899Z" fill="black"/>
<path fill-rule="evenodd" clip-rule="evenodd" d="M157.645 141.949C157.645 140.988 158.424 140.209 159.385 140.209C160.346 140.209 161.125 140.988 161.125 141.949C161.125 142.911 160.346 143.69 159.385 143.69C158.424 143.69 157.645 142.911 157.645 141.949ZM160.461 141.949C160.461 141.355 159.979 140.873 159.385 140.873C158.791 140.873 158.309 141.355 158.309 141.949C158.309 142.544 158.791 143.025 159.385 143.025C159.979 143.025 160.461 142.544 160.461 141.949Z" fill="black"/>
<rect x="178.879" y="129.047" width="24.806" height="24.806" rx="12.403" fill="#E3F0FF"/>
<mask id="mask6_53364_48558" style="mask-type:luminance" maskUnits="userSpaceOnUse" x="186" y="137" width="10" height="9">
<path fill-rule="evenodd" clip-rule="evenodd" d="M186.848 137.021H195.689V145.858H186.848V137.021Z" fill="white"/>
</mask>
<g mask="url(#mask6_53364_48558)">
<path fill-rule="evenodd" clip-rule="evenodd" d="M189.35 137.685C188.234 137.685 187.512 138.45 187.512 139.634V143.245C187.512 144.429 188.234 145.194 189.35 145.194H193.182C194.301 145.194 195.025 144.429 195.025 143.245V139.634C195.025 138.45 194.301 137.685 193.182 137.685H189.35ZM193.182 145.858H189.35C187.853 145.858 186.848 144.808 186.848 143.245V139.634C186.848 138.071 187.853 137.021 189.35 137.021H193.182C194.681 137.021 195.689 138.071 195.689 139.634V143.245C195.689 144.808 194.681 145.858 193.182 145.858Z" fill="black"/>
</g>
<path fill-rule="evenodd" clip-rule="evenodd" d="M188.301 143.745C188.219 143.745 188.137 143.715 188.072 143.654C187.939 143.528 187.934 143.317 188.06 143.185L188.737 142.47C189.095 142.09 189.7 142.071 190.082 142.43L190.506 142.86C190.625 142.98 190.817 142.982 190.936 142.865C190.98 142.813 191.945 141.641 191.945 141.641C192.129 141.419 192.387 141.281 192.675 141.253C192.963 141.228 193.242 141.311 193.465 141.494C193.484 141.51 193.501 141.525 194.474 142.524C194.602 142.655 194.6 142.865 194.468 142.993C194.337 143.122 194.126 143.118 193.998 142.987C193.998 142.987 193.091 142.056 193.026 141.993C192.957 141.936 192.847 141.904 192.739 141.914C192.628 141.925 192.529 141.978 192.459 142.064C191.429 143.312 191.417 143.324 191.4 143.341C191.02 143.714 190.406 143.707 190.033 143.326C190.033 143.326 189.621 142.908 189.614 142.9C189.512 142.805 189.329 142.811 189.22 142.927L188.542 143.641C188.476 143.711 188.389 143.745 188.301 143.745Z" fill="black"/>
<path fill-rule="evenodd" clip-rule="evenodd" d="M189.753 139.736C189.508 139.736 189.309 139.935 189.309 140.18C189.309 140.426 189.508 140.626 189.754 140.626C189.999 140.626 190.199 140.426 190.199 140.18C190.199 139.936 189.999 139.736 189.753 139.736ZM189.754 141.29C189.142 141.29 188.645 140.792 188.645 140.18C188.645 139.569 189.142 139.071 189.754 139.071C190.366 139.072 190.863 139.57 190.863 140.18C190.863 140.792 190.365 141.29 189.754 141.29Z" fill="black"/>
<rect x="210.77" y="129.047" width="24.806" height="24.806" rx="12.403" fill="#E3F0FF"/>
<g clip-path="url(#clip1_53364_48558)">
<path d="M226.392 139.224L224.067 136.899C224.038 136.866 224.002 136.84 223.962 136.823C223.921 136.806 223.878 136.798 223.834 136.799H220.512C220.336 136.799 220.167 136.87 220.043 136.994C219.918 137.119 219.848 137.287 219.848 137.463V145.437C219.848 145.613 219.918 145.782 220.043 145.906C220.167 146.03 220.336 146.101 220.512 146.101H225.828C226.004 146.101 226.172 146.03 226.297 145.906C226.421 145.782 226.492 145.613 226.492 145.437V139.457C226.493 139.413 226.485 139.37 226.468 139.329C226.451 139.289 226.425 139.253 226.392 139.224ZM223.834 137.596L225.695 139.457H223.834V137.596ZM225.828 145.437H220.512V137.463H223.17V139.457C223.17 139.633 223.241 139.801 223.365 139.926C223.49 140.05 223.658 140.121 223.834 140.121H225.828V145.437Z" fill="black"/>
</g>
<rect x="242.664" y="129.047" width="24.806" height="24.806" rx="12.403" fill="#E3F0FF"/>
<path d="M255.713 143.043C255.697 143.027 255.676 143.019 255.654 143.019C255.632 143.019 255.611 143.027 255.596 143.043L254.389 144.249C253.831 144.808 252.888 144.867 252.271 144.249C251.654 143.631 251.713 142.69 252.271 142.131L253.478 140.925C253.51 140.893 253.51 140.84 253.478 140.807L253.064 140.394C253.049 140.379 253.028 140.37 253.006 140.37C252.984 140.37 252.963 140.379 252.947 140.394L251.741 141.601C250.862 142.479 250.862 143.9 251.741 144.778C252.619 145.655 254.04 145.656 254.918 144.778L256.124 143.571C256.156 143.539 256.156 143.486 256.124 143.454L255.713 143.043ZM258.398 138.122C257.519 137.243 256.098 137.243 255.221 138.122L254.013 139.328C253.998 139.344 253.989 139.365 253.989 139.387C253.989 139.409 253.998 139.43 254.013 139.445L254.426 139.857C254.458 139.89 254.511 139.89 254.543 139.857L255.749 138.651C256.308 138.093 257.25 138.033 257.867 138.651C258.485 139.269 258.426 140.21 257.867 140.769L256.661 141.975C256.645 141.991 256.637 142.012 256.637 142.034C256.637 142.056 256.645 142.077 256.661 142.093L257.074 142.506C257.106 142.538 257.159 142.538 257.191 142.506L258.398 141.3C259.275 140.421 259.275 139 258.398 138.122ZM256.088 140C256.072 139.984 256.051 139.976 256.029 139.976C256.007 139.976 255.986 139.984 255.97 140L253.619 142.35C253.603 142.366 253.595 142.387 253.595 142.409C253.595 142.431 253.603 142.452 253.619 142.468L254.03 142.879C254.062 142.911 254.115 142.911 254.147 142.879L256.498 140.528C256.53 140.496 256.53 140.443 256.498 140.411L256.088 140Z" fill="black"/>
<rect x="274.559" y="129.047" width="24.806" height="24.806" rx="12.403" fill="#E3F0FF"/>
<path fill-rule="evenodd" clip-rule="evenodd" d="M287.071 137.685C284.934 137.685 283.195 139.424 283.195 141.561C283.195 143.698 284.934 145.437 287.071 145.437C289.209 145.437 290.947 143.698 290.947 141.561C290.947 139.424 289.209 137.685 287.071 137.685ZM287.072 146.101C284.568 146.101 282.531 144.065 282.531 141.561C282.531 139.057 284.568 137.021 287.072 137.021C289.575 137.021 291.612 139.057 291.612 141.561C291.612 144.065 289.575 146.101 287.072 146.101Z" fill="black"/>
<path fill-rule="evenodd" clip-rule="evenodd" d="M286.579 140.603C286.501 141.046 286.5 142.105 286.578 142.526C286.967 142.389 287.809 141.835 288.036 141.561C287.81 141.295 286.978 140.752 286.579 140.603ZM286.444 143.223C286.324 143.223 286.211 143.189 286.118 143.097C286.047 143.026 285.856 142.838 285.855 141.598C285.855 140.282 286.053 140.086 286.118 140.021C286.35 139.791 286.727 139.948 286.888 140.016C287.118 140.112 288.735 140.94 288.735 141.559C288.735 142.139 287.28 142.951 286.908 143.106C286.764 143.166 286.598 143.223 286.444 143.223Z" fill="black"/>
<rect x="306.449" y="129.047" width="24.806" height="24.806" rx="12.403" fill="#E3F0FF"/>
<path fill-rule="evenodd" clip-rule="evenodd" d="M318.738 146.101C318.555 146.101 318.406 145.952 318.406 145.769V144.369C318.406 144.185 318.555 144.037 318.738 144.037C318.922 144.037 319.071 144.185 319.071 144.369V145.769C319.071 145.952 318.922 146.101 318.738 146.101Z" fill="black"/>
<path fill-rule="evenodd" clip-rule="evenodd" d="M318.737 137.242C317.928 137.242 317.27 137.904 317.27 138.718V140.794C317.27 141.607 317.928 142.269 318.737 142.269C319.546 142.269 320.204 141.607 320.204 140.794V138.718C320.204 137.904 319.546 137.242 318.737 137.242ZM318.737 142.934C317.562 142.934 316.605 141.974 316.605 140.794V138.718C316.605 137.538 317.562 136.578 318.737 136.578C319.912 136.578 320.869 137.538 320.869 138.718V140.794C320.869 141.974 319.912 142.934 318.737 142.934Z" fill="black"/>
<mask id="mask7_53364_48558" style="mask-type:luminance" maskUnits="userSpaceOnUse" x="314" y="140" width="9" height="5">
<path fill-rule="evenodd" clip-rule="evenodd" d="M314.863 140.476H322.615V144.701H314.863V140.476Z" fill="white"/>
</mask>
<g mask="url(#mask7_53364_48558)">
<path fill-rule="evenodd" clip-rule="evenodd" d="M318.739 144.701C316.602 144.701 314.863 142.955 314.863 140.808C314.863 140.625 315.012 140.476 315.196 140.476C315.379 140.476 315.528 140.625 315.528 140.808C315.528 142.588 316.968 144.037 318.739 144.037C320.51 144.037 321.951 142.588 321.951 140.808C321.951 140.625 322.1 140.476 322.283 140.476C322.467 140.476 322.615 140.625 322.615 140.808C322.615 142.955 320.877 144.701 318.739 144.701Z" fill="black"/>
</g>
</g>
<defs>
<filter id="filter0_d_53364_48558" x="0" y="0.706055" width="205.676" height="219.963" filterUnits="userSpaceOnUse" color-interpolation-filters="sRGB">
<feFlood flood-opacity="0" result="BackgroundImageFix"/>
<feColorMatrix in="SourceAlpha" type="matrix" values="0 0 0 0 0 0 0 0 0 0 0 0 0 0 0 0 0 0 127 0" result="hardAlpha"/>
<feOffset dy="12"/>
<feGaussianBlur stdDeviation="7.5"/>
<feColorMatrix type="matrix" values="0 0 0 0 0.25098 0 0 0 0 0.482353 0 0 0 0 1 0 0 0 0.08 0"/>
<feBlend mode="normal" in2="BackgroundImageFix" result="effect1_dropShadow_53364_48558"/>
<feBlend mode="normal" in="SourceGraphic" in2="effect1_dropShadow_53364_48558" result="shape"/>
</filter>
<filter id="filter1_d_53364_48558" x="96.5469" y="122.503" width="253.457" height="62.0405" filterUnits="userSpaceOnUse" color-interpolation-filters="sRGB">
<feFlood flood-opacity="0" result="BackgroundImageFix"/>
<feColorMatrix in="SourceAlpha" type="matrix" values="0 0 0 0 0 0 0 0 0 0 0 0 0 0 0 0 0 0 127 0" result="hardAlpha"/>
<feOffset dy="12"/>
<feGaussianBlur stdDeviation="7.5"/>
<feColorMatrix type="matrix" values="0 0 0 0 0.25098 0 0 0 0 0.482353 0 0 0 0 1 0 0 0 0.08 0"/>
<feBlend mode="normal" in2="BackgroundImageFix" result="effect1_dropShadow_53364_48558"/>
<feBlend mode="normal" in="SourceGraphic" in2="effect1_dropShadow_53364_48558" result="shape"/>
</filter>
<clipPath id="clip0_53364_48558">
<rect x="15" y="3.70605" width="175.677" height="189.963" rx="5.35106" fill="white"/>
</clipPath>
<clipPath id="clip1_53364_48558">
<rect width="10.6311" height="10.6311" fill="white" transform="translate(217.855 136.135)"/>
</clipPath>
</defs>
</svg>
