<svg width="24" height="22" viewBox="0 0 24 22" fill="none" xmlns="http://www.w3.org/2000/svg">
<g clip-path="url(#clip0_53403_47465)">
<path d="M23.1207 4.40992C23.0581 4.26101 22.9529 4.13396 22.8182 4.04478C22.6835 3.9556 22.5254 3.90828 22.3639 3.90878H19.2548C18.8817 3.25784 18.3638 2.70151 17.7411 2.28288C17.1185 1.86425 16.4078 1.59455 15.6642 1.49468C14.9206 1.3948 14.164 1.46743 13.453 1.70694C12.7419 1.94644 12.0955 2.3464 11.5639 2.87583C11.0984 3.32968 10.7284 3.87199 10.4755 4.4709C10.2226 5.0698 10.0919 5.71321 10.0912 6.36333V6.98719C5.92868 5.9031 2.523 2.54855 2.49232 2.50765C2.38534 2.4024 2.25147 2.3286 2.10536 2.29433C1.95925 2.26005 1.80653 2.26663 1.66391 2.31333C1.52174 2.35857 1.39443 2.44137 1.29542 2.55298C1.19641 2.66459 1.12938 2.80087 1.10141 2.94742C0.211636 7.87696 1.69459 11.1804 3.09573 13.0826C3.7985 14.0446 4.65144 14.8871 5.62186 15.5781C4.05709 17.3474 1.64345 18.2679 1.623 18.2781C1.50758 18.3209 1.40331 18.3892 1.31795 18.4779C1.23259 18.5666 1.16835 18.6734 1.13001 18.7904C1.09167 18.9074 1.08023 19.0315 1.09652 19.1535C1.11282 19.2756 1.15644 19.3923 1.22414 19.4951C1.30595 19.6179 1.61277 20.0167 2.35936 20.3951C3.29005 20.8554 4.51732 21.0906 6.00027 21.0906C13.2105 21.0906 19.2446 15.5372 19.8582 8.38833L22.9469 5.30992C23.0579 5.19162 23.1331 5.04432 23.1639 4.88504C23.1946 4.72577 23.1797 4.56105 23.1207 4.40992ZM18.4878 7.44742C18.3452 7.58878 18.2612 7.77868 18.2525 7.97924C17.8332 14.4122 12.4537 19.4542 6.00027 19.4542C4.91618 19.4542 4.15936 19.3111 3.62755 19.1372C4.80368 18.5031 6.44005 17.3986 7.50368 15.8133C7.56542 15.7174 7.60642 15.6096 7.62403 15.4969C7.64164 15.3841 7.63549 15.269 7.60595 15.1588C7.57618 15.0475 7.52351 14.9436 7.45131 14.8538C7.37911 14.7639 7.28896 14.6902 7.18664 14.6372C7.17641 14.627 5.66277 13.8395 4.36391 12.0497C2.89118 10.0247 2.26732 7.55992 2.51277 4.71674C4.12868 6.04628 7.21732 8.21446 10.7764 8.80765C10.8939 8.82652 11.0142 8.81985 11.1289 8.78808C11.2436 8.75632 11.3501 8.7002 11.4412 8.62355C11.5302 8.54565 11.6018 8.44979 11.6511 8.34226C11.7005 8.23474 11.7265 8.11799 11.7275 7.99969V6.36333C11.7291 5.61264 11.9886 4.8853 12.4627 4.30324C12.9367 3.72117 13.5965 3.31978 14.3313 3.16634C15.0662 3.0129 15.8314 3.11674 16.4988 3.46046C17.1661 3.80419 17.6951 4.36689 17.9969 5.05424C18.0621 5.20044 18.1683 5.32462 18.3026 5.41174C18.4369 5.49886 18.5936 5.5452 18.7537 5.54515H20.39L18.4878 7.44742Z" fill="black"/>
</g>
<defs>
<clipPath id="clip0_53403_47465">
<rect width="24" height="20.7273" fill="white" transform="translate(0 0.63623)"/>
</clipPath>
</defs>
</svg>
